/* XPM */
static char *result[] = {
/* columns rows colors chars-per-pixel */
"32 32 191 2 ",
"   c #0B0706",
".  c #1C120E",
"X  c #1D1E1E",
"o  c #250D08",
"O  c #21130E",
"+  c #2B1611",
"@  c #351C15",
"#  c #2D2011",
"$  c #382215",
"%  c #3D2319",
"&  c #2B3613",
"*  c #393A14",
"=  c #382C2C",
"-  c #42140C",
";  c #4E1913",
":  c #5C1D10",
">  c #621E15",
",  c #4B2216",
"<  c #432619",
"1  c #4B221A",
"2  c #422A19",
"3  c #4C2C1D",
"4  c #522E1F",
"5  c #4E331E",
"6  c #47391C",
"7  c #51301E",
"8  c #672519",
"9  c #452B23",
"0  c #532A21",
"q  c #41342D",
"w  c #553320",
"e  c #5C3423",
"r  c #583A25",
"t  c #742B27",
"y  c #613624",
"u  c #653926",
"i  c #643A29",
"p  c #6C3D29",
"a  c #713F2A",
"s  c #643B37",
"d  c #3F4617",
"f  c #4C431D",
"g  c #4E4C1F",
"h  c #594424",
"j  c #565525",
"k  c #59512C",
"l  c #6D442C",
"z  c #73412B",
"x  c #7C462E",
"c  c #7F482F",
"v  c #6D4938",
"b  c #695837",
"n  c #795437",
"m  c #4D6921",
"M  c #5A6725",
"N  c #68652C",
"B  c #65762A",
"V  c #6E7E36",
"C  c #444549",
"Z  c #564743",
"A  c #5A585A",
"S  c #714342",
"D  c #785643",
"F  c #697544",
"G  c #7F6457",
"H  c #595B61",
"J  c #5B6064",
"K  c #6E6363",
"L  c #746767",
"P  c #6F7277",
"I  c #7D7574",
"U  c #812C1D",
"Y  c #B1331F",
"T  c #842E27",
"R  c #8A3025",
"E  c #87392E",
"W  c #933320",
"Q  c #993831",
"!  c #B43420",
"~  c #814930",
"^  c #894D33",
"/  c #855437",
"(  c #925639",
")  c #97633B",
"_  c #827534",
"`  c #A0633E",
"'  c #875D45",
"]  c #A14F46",
"[  c #956442",
"{  c #986945",
"}  c #866957",
"|  c #9B6C52",
" . c #9C7957",
".. c #A76B45",
"X. c #B2754D",
"o. c #B86352",
"O. c #A97855",
"+. c #BA7D56",
"@. c #B37D5A",
"#. c #816F66",
"$. c #8D7668",
"%. c #93746A",
"&. c #827878",
"*. c #A27662",
"=. c #5D8328",
"-. c #67862D",
";. c #6C862E",
":. c #6A952E",
">. c #6A8930",
",. c #768932",
"<. c #749531",
"1. c #799D33",
"2. c #78A734",
"3. c #7DB036",
"4. c #6E8149",
"5. c #80A936",
"6. c #8DA63C",
"7. c #84B23B",
"8. c #85B439",
"9. c #95BD3F",
"0. c #89C03B",
"q. c #93CB3F",
"w. c #8BAF4F",
"e. c #8AB44C",
"r. c #A88268",
"t. c #B88C6C",
"y. c #B49173",
"u. c #86A465",
"i. c #96AD6E",
"p. c #C6885A",
"a. c #C68C64",
"s. c #D59562",
"d. c #D79B6A",
"f. c #C89874",
"g. c #D49C72",
"h. c #DCA06E",
"j. c #C9A67C",
"k. c #D8A176",
"l. c #E2A673",
"z. c #E6AB78",
"x. c #95CD45",
"c. c #94CC48",
"v. c #9BCE4B",
"b. c #9AD442",
"n. c #9CDB43",
"m. c #A3DE47",
"M. c #A4DE48",
"N. c #B3DA51",
"B. c #AEE34D",
"V. c #B7E653",
"C. c #BEE856",
"Z. c #C4EB5A",
"A. c #7A7E83",
"S. c #7C8286",
"D. c #878684",
"F. c #978B86",
"G. c #9F928F",
"H. c #888C93",
"J. c #8C9198",
"K. c #9F9390",
"L. c #949C9B",
"P. c #A39798",
"I. c #BEA58A",
"U. c #959CA2",
"Y. c #9A9FA7",
"T. c #9A9FA8",
"R. c #BAA9A6",
"E. c #A4AAB2",
"W. c #ADB2BB",
"Q. c #B1B7BE",
"!. c #C7A88D",
"~. c #DBB08D",
"^. c #DCB18D",
"/. c #EAB486",
"(. c #F0BE8D",
"). c #F2BF91",
"_. c #DFBEA4",
"`. c #E0BFA5",
"'. c #EBC39A",
"]. c #F5C698",
"[. c #F6C99C",
"{. c #E0C0A7",
"}. c #F9CDA1",
"|. c #FCD4A7",
" X c #FDD6AA",
".X c #FFD9AD",
"XX c #B7BCC4",
"oX c #BEC5CD",
"OX c #C2CBD2",
"+X c #C8D1D8",
"@X c #D4DBE4",
/* pixels */
"n.n.n.n.n.n.q.8.8.8.B $ < < < e u 4 @ @ $ B 8.q.q.n.n.n.n.n.n.n.",
"n.n.n.n.n.q.>.f f r 5 e p w 4 ~ ~ y u y 4 2 f ;.q.n.n.n.n.n.n.n.",
"n.n.n.n.n.5.g e x x a a a e y ~ z p ^ ~ e 4 4 6 <.q.M.M.m.n.n.n.",
"n.n.n.M.M.q.M 3 y ~ ^ a e 4 u x z x ( ~ e 4 p y 6 6.B.C.C.m.n.n.",
"n.n.m.Z.N.;.r e y i ~ ~ e 0 y x p u z e 4 p ^ ~ 5 ;.q.M.m.n.n.n.",
"n.n.n.b.,.l c ( ^ p u y 3 3 w ~ z 4 4 < < p ^ x 4 6 2.m.n.n.n.n.",
"n.n.n.1.5 p z z ~ c y e l / i x x 4 % e e 4 u e < $ <.q.n.n.n.n.",
"m.q.n.1.2 $ 2 3 e y i ..d.g.) x z 3 < / ` u 4 w 7 % 1.n.n.n.n.n.",
"n.n.n.5.6 $ 2 $ % < / d.].].O.z p < e X.p.^ 3 y p 2 <.n.n.n.n.n.",
"n.n.m.q.>.% 4 4 % w @.]..X.Xr.e e w { z.l...e w y 2 <.n.n.n.n.n.",
"n.n.m.n.2.f w e 9 x d.~.^.'.r.5 w [ a.k.g.p.n 3 3 f 5.n.n.n.n.n.",
"n.n.n.n.n.-.$ 0 e [ t.D r r.O.w [ d.| i D a.{ 5 w B 0.n.n.n.n.n.",
"n.n.n.n.n.:.# w w O.!.A   n O.) h.z.b   A ~.s.l / h :.n.q.n.n.n.",
"n.n.n.n.n.:.j 9 r s._.I . D d.h././.D O &.`.s.r k M 2.n.m.n.n.n.",
"n.n.n.n.n.q.2.& 5 a.`.F.r  .(.'.).). .w F.{.a.9 & 2.n.n.n.n.n.n.",
"n.n.n.n.n.n.q.-.q [ ^.I.r.j.|.|. X Xj. .I.^.[ q 4.v.m.n.n.n.n.n.",
"n.n.n.n.n.c.u.L.A.D p./.}..X.X.X.X X X}./.+.D A.U.i.v.n.n.n.n.n.",
"n.n.n.n.c.u.Y.@XOXF.| p.!.).).).}.].).g.+.| F.+X@XU.u.b.n.n.n.n.",
"n.n.m.c.u.L.XXoXXXXX&.%.*.@.@.a.a.+.O.r.%.D.XXXXoXXXJ.u.x.n.n.n.",
"n.n.M.4.D.J.T.Y.J.T.U.Q.XXG.} S v } P.XXW.U.T.J.U.T.J.S.3.x.n.n.",
"n.n.e.P #.G $.P.H.H A.E.XX+XA.s s I +XOXT.A.J H.K.$.} #.A.w.b.n.",
"n.n.e.G X.d.+.*.K X H XXE.U.&.] E L T.E.W.H X L O.p.s.X.G w.n.n.",
"n.b.6.) s.z.l.f.D . C XXOXXXR.o.] P.R.OXXXC O ' j.l.z.s.) 6.n.n.",
"n.m.9.V ..s.z. Xf.0 = A.OX@X@.Y ! G.@XOXA.= 0 f.|.l.s.{ _ e.n.n.",
"n.n.n.5.N ) h.[.t.1 1 Z P H.} W W } H.P Z 1 1 y.[.h.) M 8.n.n.n.",
"n.n.n.n.8.N n } F f : y s S S E E S S s 8 : f F } n M 3.q.m.n.n.",
"n.n.n.n.M.e.B m :.;.1 > R Q T t t T Q R 8 , >.:.m m 8.m.n.n.n.n.",
"n.n.n.n.m.M.m.n.b.-.+ : T U > + @ : U U : + -.n.q.B.Z.Z.m.n.n.n.",
"m.q.n.n.n.n.n.M.n.=.O > R U : o o : T R : O =.n.m.V.B.C.m.n.n.n.",
"m.n.n.n.n.n.m.V.n.3.d ; t 8 - * * - > t , d 3.n.n.m.m.m.m.n.n.n.",
"n.n.n.n.n.n.n.M.n.b.V @ 0 0 O m m + 0 0 % >.n.n.n.n.n.n.n.n.n.n.",
"n.n.n.n.n.n.n.n.n.7.j 9 w e $ g g @ 9 b ,.8.n.n.n.n.n.n.n.n.n.n."
};
