/* XPM */
static char *result[] = {
/* columns rows colors chars-per-pixel */
"32 32 187 2 ",
"   c #1C180B",
".  c #260B07",
"X  c #3A0F0B",
"o  c #23140B",
"O  c #2A180E",
"+  c #3C130B",
"@  c #3A180D",
"#  c #251811",
"$  c #2E1A11",
"%  c #331D13",
"&  c #331B15",
"*  c #391C13",
"=  c #292713",
"-  c #3C2216",
";  c #382A15",
":  c #352419",
">  c #3F2419",
",  c #3F2D18",
"<  c #2B3412",
"1  c #333313",
"2  c #3A3616",
"3  c #2B2726",
"4  c #3A312C",
"5  c #3E3636",
"6  c #45120C",
"7  c #4C150E",
"8  c #52170E",
"9  c #551A0F",
"0  c #5A1B0F",
"q  c #471C15",
"w  c #571D12",
"e  c #611E11",
"r  c #472116",
"t  c #432619",
"y  c #45291C",
"u  c #4B2B1C",
"i  c #542011",
"p  c #512E1F",
"a  c #49371A",
"s  c #53311E",
"d  c #662010",
"f  c #6B2211",
"g  c #612C1F",
"h  c #782818",
"j  c #4C2F23",
"k  c #432D28",
"l  c #542F20",
"z  c #563120",
"x  c #5C3422",
"c  c #5E3925",
"v  c #54342A",
"b  c #5C3429",
"n  c #4F3D36",
"m  c #623624",
"M  c #653926",
"N  c #683B27",
"B  c #683429",
"V  c #633D2A",
"C  c #6C3D29",
"Z  c #713F2A",
"A  c #44441C",
"S  c #4B441E",
"D  c #434A1B",
"F  c #4C491D",
"G  c #5A421F",
"H  c #455B1E",
"J  c #634C1F",
"K  c #534521",
"L  c #4D5922",
"P  c #525221",
"I  c #5E5926",
"U  c #624221",
"Y  c #694B27",
"T  c #724B26",
"R  c #75422C",
"E  c #7A452D",
"W  c #6A5529",
"Q  c #715522",
"!  c #6A473D",
"~  c #695D3E",
"^  c #775432",
"/  c #4E6422",
"(  c #5B6025",
")  c #547324",
"_  c #7A662A",
"`  c #6D732B",
"'  c #677C2A",
"]  c #484B4D",
"[  c #564A49",
"{  c #5C5753",
"}  c #624F48",
"|  c #734E4E",
" . c #7A5541",
".. c #615353",
"X. c #745152",
"o. c #696046",
"O. c #7B715E",
"+. c #676565",
"@. c #716C6F",
"#. c #6B7075",
"$. c #7D7574",
"%. c #832D1E",
"&. c #842E21",
"*. c #8A3227",
"=. c #91332A",
"-. c #A33D3B",
";. c #844A31",
":. c #8A4E33",
">. c #875939",
",. c #935337",
"<. c #965438",
"1. c #94762B",
"2. c #8B6244",
"3. c #A46D50",
"4. c #A87153",
"5. c #86776B",
"6. c #847E7D",
"7. c #668A2C",
"8. c #718F2F",
"9. c #6A942E",
"0. c #76962F",
"q. c #739330",
"w. c #7A9533",
"e. c #749D32",
"r. c #7B9936",
"t. c #75A232",
"y. c #7CA434",
"u. c #7BAC35",
"i. c #6B8544",
"p. c #79814D",
"a. c #7C8679",
"s. c #A68B2B",
"d. c #83AB38",
"f. c #84B139",
"g. c #87B73B",
"h. c #90C73E",
"j. c #92C93E",
"k. c #AE9347",
"l. c #BD8057",
"z. c #81A747",
"x. c #89B745",
"c. c #84A559",
"v. c #8CB657",
"b. c #BAA142",
"n. c #A4BD58",
"m. c #96B872",
"M. c #95CE44",
"N. c #98CA45",
"B. c #96D241",
"V. c #99D543",
"C. c #9CDB43",
"Z. c #90C150",
"A. c #A0D646",
"S. c #A3DE47",
"D. c #A4DD48",
"F. c #B1D854",
"G. c #A8E04A",
"H. c #B2E44F",
"J. c #B7E552",
"K. c #BCE755",
"L. c #BEE956",
"P. c #C3EA59",
"I. c #7B7D83",
"U. c #8D888B",
"Y. c #899687",
"T. c #8D9596",
"R. c #95979E",
"E. c #999698",
"W. c #96A09C",
"Q. c #979BA4",
"!. c #9BA3A5",
"~. c #A6A8AB",
"^. c #BDABA4",
"/. c #ABB2BA",
"(. c #B9B6B6",
"). c #C1B0AA",
"_. c #B6BEC6",
"`. c #BABFC9",
"'. c #B7C0C5",
"]. c #BCC2CA",
"[. c #C3CBD4",
"{. c #CACFDB",
"}. c #CCD4DC",
"|. c #D3DBE3",
" X c #D5DBE5",
".X c #D9E0EA",
"XX c #E1EAF2",
/* pixels */
"C.C.C.C.C.C.C.C.V.j.w.F , $ y V V y ; A 7.h.N.h.j.V.C.V.C.C.C.C.",
"C.C.C.C.C.C.C.V.y.P S s M c x C C c l p a P F P P q.V.C.C.C.C.C.",
"C.C.C.C.C.C.V.y.F u p R ;.;.R ;.:.R M x x C C C p S d.D.D.C.C.C.",
"C.C.C.D.D.C.f.F s M M E ,.:.;.,.,.;.M m R ;.;.M u ` N.K.K.S.C.C.",
"C.C.S.K.L.C.q.u E ;.E E :.:.;.<.<.E M R ;.;.C x p K w.A.D.C.C.C.",
"C.C.C.G.G.f.F z E ,.:.E ;.:.E :.:.E R E E C C E ;.C K 8.j.G.C.C.",
"C.C.C.C.C.y., u M ;.:.E E E E ;.:.E E R C M E ;.N l u F u.C.C.C.",
"C.C.C.C.S.y., u x R ;.:.E E E E E E E E R Z C l t & - 7.j.C.C.C.",
"C.C.C.C.S.u., u z m ;.:.C M E N m E R E E M p t % O % 8.C.G.C.C.",
"C.C.C.C.C.y., z M m R E M x R M m R N N E m u t * O = 8.S.j.C.C.",
"C.C.C.C.C.y.; s R M x m p p M M s N x m R u % t u & 2 r.C.C.C.C.",
"C.C.C.C.C.t.  > R m y z t - x m c M t p m t $ $ - O ) M.C.C.C.C.",
"C.C.C.C.C.u.< O z c s z t > p p m M t - u - - t   < 9.C.C.C.C.C.",
"C.C.C.C.C.B.7.  * u z M z u p u s m t % t * t t   7.j.C.C.C.C.C.",
"C.C.C.C.C.C.u.< $ > y R N c T W W U s - $ $ - % = 9.C.C.S.j.C.C.",
"C.C.C.C.C.C.C.e.< O * z c Y s.b.k.1.Y - $ $ $ 1 w.A.S.C.C.C.C.C.",
"C.C.C.C.C.C.V.Z.i.4 O @ a _ s.J G 1._ ; * * 4 p.n.F.D.C.C.C.C.C.",
"C.C.C.C.C.V.c.a.W.E.{ n : ( >.u u Q _ : o 4 U.~.a.c.A.C.C.C.C.C.",
"C.C.C.C.C.Z.Y.{.XX|.[.~.+.~ U N Z K o.{ ] I.{.XX}.R.v.C.C.C.C.C.",
"C.C.C.C.B.m.(.}..X[./..X|.E.c :.,.z $.}.|./.`. X}.].m.M.C.C.C.C.",
"C.C.C.C.x.Y.].]._.!.T.{..XE.b :.,.x $. X XQ.Q._.'.{.T.c.C.C.C.C.",
"C.C.C.C.x.O.^.(.!.@.#.`..X(.} V R t 6. X[.I.+.E.(.).5.z.C.C.C.C.",
"C.C.C.C.f.^ l.4. .3 5 R.}. XU.j z n E.|.~.] 3 } 3.l.^ r.C.C.C.C.",
"C.C.C.C.g.( >.2.R * * [ U.Q.@.> j +.Q.U...4 : b >.>.I t.C.C.C.C.",
"C.C.C.G.H.g./ L D r 8 i x | ! q v X.X.B i 7 q A H / t.C.C.C.C.C.",
"C.C.C.C.G.L.D.S.u.F 9 f &.-.=.e w *.-.*.f 0 a e.j.C.C.C.C.C.C.C.",
"C.C.C.C.D.P.P.S.S.t.9 d h =.&.0 9 h =.%.f i ` C.C.S.S.G.C.C.C.C.",
"C.C.C.C.C.D.D.C.j.0.@ 7 d e 9 X X 9 e e 0 + ' C.C.G.L.P.C.C.C.C.",
"C.C.C.C.C.C.C.D.C.9.  6 8 8 7 . . 6 8 8 6 . ) C.G.J.J.L.G.C.C.C.",
"C.C.C.C.C.C.S.J.G.f.D + e d 6 1 2 + d d + 2 t.C.C.S.C.C.C.C.C.C.",
"C.C.C.C.C.C.C.D.C.C.7.O g B & H ) $ m g O ) C.C.C.C.C.C.C.C.C.C.",
"C.C.C.C.C.C.C.C.C.C.9.o k x : A P & v j # ) C.C.C.C.C.C.C.C.C.C."
};
