/* XPM */
static char *result[] = {
/* columns rows colors chars-per-pixel */
"32 32 192 2 ",
"   c #170E0A",
".  c #1E130B",
"X  c #320D0A",
"o  c #23150E",
"O  c #2B140C",
"+  c #261712",
"@  c #2C1C13",
"#  c #361E16",
"$  c #24201C",
"%  c #3C2317",
"&  c #3F2418",
"*  c #382A18",
"=  c #2E2824",
"-  c #3D2B23",
";  c #44140D",
":  c #49130D",
">  c #53160E",
",  c #581D13",
"<  c #601F11",
"1  c #4B2417",
"2  c #422519",
"3  c #442B1B",
"4  c #4B2B1C",
"5  c #502018",
"6  c #522E1E",
"7  c #4A3C1D",
"8  c #54311F",
"9  c #672314",
"0  c #463121",
"q  c #483A23",
"w  c #49372E",
"e  c #563120",
"r  c #5B3423",
"t  c #732821",
"y  c #613624",
"u  c #643925",
"i  c #693B27",
"p  c #623E2A",
"a  c #6D3D29",
"s  c #703F2A",
"d  c #693A31",
"f  c #3D4817",
"g  c #4B471E",
"h  c #455B1E",
"j  c #46601E",
"k  c #4F4F20",
"l  c #524227",
"z  c #4B5521",
"x  c #545A22",
"c  c #51413D",
"v  c #634629",
"b  c #6A432A",
"n  c #74412B",
"m  c #7C462E",
"M  c #695C26",
"N  c #6B4C39",
"B  c #794934",
"V  c #6C5539",
"C  c #795538",
"Z  c #4C6A21",
"A  c #576D27",
"S  c #5D6B26",
"D  c #526C2A",
"F  c #567825",
"G  c #5A7429",
"H  c #506933",
"J  c #766723",
"K  c #637229",
"L  c #67782A",
"P  c #6F7330",
"I  c #4B4C4B",
"U  c #4F514F",
"Y  c #535658",
"T  c #5A5A5B",
"R  c #684B46",
"E  c #7C5846",
"W  c #615C5C",
"Q  c #75624C",
"!  c #616467",
"~  c #736B6A",
"^  c #6A7964",
"/  c #7F716A",
"(  c #6D7377",
")  c #787679",
"_  c #872A1B",
"`  c #A62C13",
"'  c #AB311E",
"]  c #832D22",
"[  c #95372F",
"{  c #A13F38",
"}  c #8E4334",
"|  c #864B32",
" . c #8B4E34",
".. c #8E5036",
"X. c #885938",
"o. c #925236",
"O. c #955539",
"+. c #A05A3D",
"@. c #916B36",
"#. c #804642",
"$. c #835C42",
"%. c #975743",
"&. c #87644A",
"*. c #93664E",
"=. c #99604B",
"-. c #9C714C",
";. c #8F6C52",
":. c #966B51",
">. c #9A6B53",
",. c #9B7558",
"<. c #AA7348",
"1. c #B97B4D",
"2. c #A16750",
"3. c #A77858",
"4. c #876C66",
"5. c #957A77",
"6. c #AB7368",
"7. c #C57D79",
"8. c #62842A",
"9. c #6A832C",
"0. c #6E8B2E",
"q. c #708E2F",
"w. c #6C8C34",
"e. c #758734",
"r. c #779732",
"t. c #688545",
"y. c #729744",
"u. c #789E46",
"i. c #7FAC44",
"p. c #858F2E",
"a. c #AD922C",
"s. c #AD9331",
"d. c #88AB36",
"f. c #81B437",
"g. c #85BA3B",
"h. c #89BD3A",
"j. c #8DC33D",
"k. c #91C63E",
"l. c #BB875F",
"z. c #818C7E",
"x. c #9D8B78",
"c. c #B58F6D",
"v. c #C38C66",
"b. c #C99365",
"n. c #D69B6A",
"m. c #D39F72",
"M. c #CAA07D",
"N. c #D8A476",
"B. c #E0A26F",
"V. c #E4AB7B",
"C. c #93CC41",
"Z. c #97D241",
"A. c #99D642",
"S. c #9CDB43",
"D. c #A3DE47",
"F. c #A4DE48",
"G. c #ABE14C",
"H. c #B2E44F",
"J. c #B6E452",
"K. c #B8E653",
"L. c #BEE856",
"P. c #C2EA59",
"I. c #787B80",
"U. c #CF7E81",
"Y. c #81878D",
"T. c #88858B",
"R. c #8B8F94",
"E. c #8F959C",
"W. c #A3979E",
"Q. c #979CA1",
"!. c #9FA6AD",
"~. c #A1A6AD",
"^. c #A7AEB3",
"/. c #CFAE8C",
"(. c #E7B487",
"). c #EAB484",
"_. c #EEBA8B",
"`. c #F0BD8E",
"'. c #EBBD92",
"]. c #D9BEA8",
"[. c #EAC49B",
"{. c #F6C89A",
"}. c #F7C99A",
"|. c #F5CDA3",
" X c #FACEA1",
".X c #FBD2A6",
"XX c #FDD5A9",
"oX c #FFDAAD",
"OX c #EED4B5",
"+X c #B4BBC3",
"@X c #BBC2CA",
"#X c #D5DDE7",
/* pixels */
"S.S.S.S.S.S.S.S.D.k.k.L g * 4 p p 2 @ 3 g 7 g 0.k.k.S.S.S.S.S.S.",
"S.S.S.S.S.S.S.Z.k.9.k 7 8 i m | m 8 4 2 % 2 2 7 z r.A.S.S.S.S.S.",
"S.S.S.S.S.S.C.9.g 7 e i |  .O.+.O.m n 8 4 2 1 4 1 g r.F.D.S.S.S.",
"S.S.S.F.F.S.q.g 2 r s s a i m  . .| m u 3 2 r s r 3 L J.L.D.S.S.",
"S.S.D.P.P.D.h.x # 4 6 6 y i m o. .s y y 6 8 m | | r g r.F.S.S.S.",
"S.S.S.D.D.S.k.S % 4 4 4 4 6 b ....m u 8 4 1 8 o.o.i 2 9.S.S.S.S.",
"S.S.S.S.S.A.0.7 4 y r 6 4 4 4 u n m @.<.<.b 4 m  .u % 9.S.S.S.S.",
"S.S.S.S.S.A.S 2 r i e 6 i s r 4  .1.n._.{.v.b i n 6 3 0.S.S.S.S.",
"S.S.S.S.S.S.F 2 y u u m ....m O.b._.}.XXoX'.&.r u % S j.S.S.S.S.",
"S.S.S.S.S.S.G 2 1 8 m | m a r 3.`..X.X|.|.{.,.r 6 @ 8.S.S.S.k.S.",
"S.S.S.S.S.k.A @ % y a 8 4 % 3 3._.V.3.>.*.M.,.e @ h j.S.S.S.G.S.",
"S.S.S.S.G.k.A $ 2 8 2 % % 3 4 3.).B.c.c o ;.-.3 o F S.S.S.S.S.S.",
"S.S.S.S.S.S.g.z % 2 # # $.E e 3.).B./.T   Q &.C l 8.k.S.S.S.S.S.",
"S.S.S.S.S.S.k.A @ % & % &.&.X.N.}.`.]./ * l.v.b.V 8.S.S.S.S.S.S.",
"S.S.S.S.S.S.d.J g 4 2 @ 0 - X._.oX.XOXx.C c.}.[.Q F S.S.S.S.S.S.",
"S.S.S.S.S.k.p.a.s.M @ . + o C (.oXoXXX]./.[.oX.XQ F S.S.S.S.S.S.",
"S.S.S.S.k.e.M J a.@.* . O + r v.[.oXoXoXoXoXXXN.V 0.D.S.S.S.S.S.",
"S.S.S.D.q.v i u J M D z # 2 - N v.[.|.|.|.'.m.&.K j.S.S.S.S.S.S.",
"S.S.S.k.P n u 4 9.f.g.t.) W.R.W E :.>.>.*.N q S h.S.S.S.S.S.S.S.",
"S.S.S.S.L u r 3 r.k.u.Y.+X#X@XY.~ / ~ R 2 = H g.S.S.S.S.S.S.S.S.",
"S.S.S.k.S 3 4 S k.i.^ Y.~.~.R.Y.( E.@X4.> R ^ d.S.S.S.S.S.S.S.S.",
"S.S.D.S.S % 3 0.k.y.! E.+X+XQ.) Y T ^.5._ #.U y.S.S.S.S.S.S.S.S.",
"S.S.S.k.S % G j.A.t.) !.T.z.4.E w @ I ) %._ d y.S.S.S.S.S.S.S.S.",
"S.S.D.D.e.K j.G.A.D ! 5.x.c.l.v.c.:.w I.7.` u y.S.S.S.S.S.S.S.S.",
"S.S.S.D.D.Z.F.K.S.Z q 3.(.}.{.{. X).N ~ U.' v y.S.S.S.S.S.S.S.S.",
"S.S.S.S.G.P.H.F.S.f.j X.N.(.N.'.'.m.v W 6.} e.C.S.S.S.S.S.S.S.S.",
"S.S.S.S.F.P.P.S.S.S.f.j 0 B X.%.N 4 1 i d Q C.S.S.S.G.D.S.S.S.S.",
"S.S.S.S.S.F.F.S.S.S.S.Z . ; , , ; ; 9 5 * w.S.S.S.G.L.P.G.S.S.S.",
"S.S.S.S.S.S.S.F.S.S.S.i.f X : : , _ t 6 G k.S.S.G.J.H.L.S.S.S.S.",
"S.S.S.S.S.S.F.K.G.S.S.S.Z X : < ] [ 9 J k.S.S.S.S.G.S.D.S.S.S.S.",
"S.S.S.S.S.S.S.F.S.S.S.G.i.f X t } { 1 L S.S.S.S.k.S.S.S.S.S.S.S.",
"S.S.S.S.S.S.S.S.S.S.S.k.k.j + d 2.=.& F S.S.S.S.S.S.S.S.S.S.S.S."
};
