/* XPM */
static char *result[] = {
/* columns rows colors chars-per-pixel */
"32 32 185 2 ",
"   c #150D05",
".  c #1C120A",
"X  c #1C1614",
"o  c #310F0A",
"O  c #25150C",
"+  c #38130E",
"@  c #261811",
"#  c #341E15",
"$  c #25250F",
"%  c #2A231C",
"&  c #3E2317",
"*  c #3D261C",
"=  c #3A3D18",
"-  c #3C2C22",
";  c #3C3B39",
":  c #45110D",
">  c #4D160D",
",  c #561D15",
"<  c #44271A",
"1  c #432A1A",
"2  c #4B2B1C",
"3  c #5C261C",
"4  c #522E1F",
"5  c #45341B",
"6  c #4A331C",
"7  c #473B1C",
"8  c #54331E",
"9  c #6A2214",
"0  c #64271B",
"q  c #71261F",
"w  c #61371B",
"e  c #582B21",
"r  c #493523",
"t  c #543321",
"y  c #5B3422",
"u  c #553B22",
"i  c #533C2E",
"p  c #613625",
"a  c #6E3327",
"s  c #653A26",
"d  c #693B27",
"f  c #6C3D29",
"g  c #703F2A",
"h  c #38412D",
"j  c #4B451B",
"k  c #414C19",
"l  c #51511F",
"z  c #454722",
"x  c #504820",
"c  c #565B23",
"v  c #545136",
"b  c #64452B",
"n  c #684928",
"m  c #74422B",
"M  c #7B452E",
"N  c #754A2D",
"B  c #775D23",
"V  c #724D36",
"C  c #794936",
"Z  c #486020",
"A  c #5C6425",
"S  c #5B6926",
"D  c #5B613E",
"F  c #636928",
"G  c #756826",
"H  c #637529",
"J  c #667D2B",
"K  c #6A792C",
"L  c #4C4B4A",
"P  c #545959",
"I  c #6B504A",
"U  c #7F5B42",
"Y  c #705651",
"T  c #556649",
"R  c #5C615F",
"E  c #7C6042",
"W  c #697B5D",
"Q  c #686B6A",
"!  c #776966",
"~  c #757476",
"^  c #852C17",
"/  c #802B20",
"(  c #8C322A",
")  c #963426",
"_  c #9F3A34",
"`  c #834A31",
"'  c #8A4E33",
"]  c #865733",
"[  c #8D5135",
"{  c #925236",
"}  c #97573A",
"|  c #B4402E",
" . c #C6483E",
".. c #875D46",
"X. c #93564D",
"o. c #AF5147",
"O. c #98684A",
"+. c #98714C",
"@. c #946955",
"#. c #9D6D55",
"$. c #A66C43",
"%. c #A36B4C",
"&. c #B6794D",
"*. c #A97958",
"=. c #B87B52",
"-. c #8D7A70",
";. c #5F8529",
":. c #61892A",
">. c #6E8A2E",
",. c #698B33",
"<. c #718A30",
"1. c #6C9339",
"2. c #799733",
"3. c #759A32",
"4. c #7CA335",
"5. c #7FB237",
"6. c #6F8D4D",
"7. c #779A42",
"8. c #78886C",
"9. c #9B8227",
"0. c #839A34",
"q. c #AE942E",
"w. c #86A837",
"e. c #94AB3D",
"r. c #81B637",
"t. c #85B539",
"y. c #8DBC3C",
"u. c #8EC43D",
"i. c #92C93F",
"p. c #AB805F",
"a. c #B4855B",
"s. c #86AB43",
"d. c #A7876C",
"f. c #C8895A",
"g. c #C99267",
"h. c #D29768",
"j. c #D09B74",
"k. c #DAA06D",
"l. c #DAA479",
"z. c #E4A877",
"x. c #E7AB7A",
"c. c #8FC642",
"v. c #93CA45",
"b. c #96D341",
"n. c #99D442",
"m. c #9CDB43",
"M. c #A6CD4A",
"N. c #A3DE47",
"B. c #A4DE48",
"V. c #AAE14B",
"C. c #B2E44F",
"Z. c #B7E652",
"A. c #B8E453",
"S. c #BEE957",
"D. c #C2EA59",
"F. c #777E82",
"G. c #7D8287",
"H. c #918D8C",
"J. c #868A92",
"K. c #92969D",
"L. c #A28084",
"P. c #AC999B",
"I. c #AFA49C",
"U. c #989DA4",
"Y. c #BE9DA4",
"T. c #9EA1AA",
"R. c #ABA9AE",
"E. c #ACB3BA",
"W. c #CDAA87",
"Q. c #DCBA90",
"!. c #E3AE82",
"~. c #E8B387",
"^. c #ECB98B",
"/. c #F1BC8D",
"(. c #EBC297",
"). c #F5C698",
"_. c #F4C99C",
"`. c #EECFAB",
"'. c #F6CDA3",
"]. c #FDD3A6",
"[. c #FDD6AA",
"{. c #FFDAAE",
"}. c #BAC3CA",
"|. c #CAD1DA",
" X c #D5DDE7",
/* pixels */
"m.m.i.4.w.e.e.w.2.>.j < p d p y p y 2 < S 2.y.m.m.m.m.m.m.m.m.m.",
"m.m.y.A 8 N ] n 5 2 8 g ' ' g g M M d y 6 7 H i.m.m.m.m.m.m.m.m.",
"m.m.m.t.c 2 f M p f g M ' M p M ' M d m M d 8 K i.N.m.N.N.m.m.m.",
"m.m.m.B.w.5 t d 4 d M M m d m ' ` M ` [ { [ M 8 K M.B.D.S.N.m.m.",
"m.m.V.A.s.6 4 y 4 y M M p d ` M M { } } ` M g y 1 <.N.N.N.m.m.m.",
"m.m.n.2.x e d d y M ' g 4 8 f p s ` ' M a 8 y 4 & J m.m.m.m.m.m.",
"m.m.u.c 2 p t 4 p { ` 4 < g m t < 4 p p m M M d 1 F i.n.m.m.m.m.",
"m.m.n.4.l 2 < < g } m 4 m &.f.} p 2 y f ' } { M y 5 >.m.m.m.m.m.",
"m.m.m.m.5.k % < ` ' s M =.z.x.f.} 2 2 y f M M f 4 & H m.m.m.m.m.",
"m.m.m.m.i.3.$ 2 ` M m $.h.j.!.x.f.s 4 f p y p 8 2 5 >.m.m.m.m.m.",
"m.m.m.m.m.u.= 2 f N $.] C O.j.~.l.V 2 a g 8 < < & F i.m.m.m.m.m.",
"m.m.m.m.m.i.4.7 f &.g.1 X ! g.z.x.O.2 # 2 4 2 & # :.m.m.m.m.m.m.",
"m.m.m.m.m.m.t.= O.z.j.- X H.l.x.!.%.t t < # < < # :.m.m.m.m.m.m.",
"m.m.m.m.m.m.r.k g./.l.b i I.(.).'.g.b U V < 2 < O H i.m.m.m.m.m.",
"m.m.m.m.m.m.5.h W.].(.+.E R.{.{.[.k.d - 6 < 5 k x ] w.m.m.m.m.m.",
"m.m.m.m.m.m.r.z W.[.[.Q.Q.`.{.{.[.h.u @ O O $ ] q.9.0.b.m.m.m.m.",
"m.m.m.m.m.m.y.z p._.[.{.{.{.{.[.^.#.* O @ . = 9.q.G n 2.n.m.m.m.",
"m.m.m.m.m.m.b.3.c a.!.`.'.'.'.~.*.i % % X Z S G B s f n 2.m.m.m.",
"m.m.m.m.m.m.m.b.2.x i ..#.#.#.@.I Q J.K.R 7.s.w.A 2 d t K n.m.m.",
"m.m.m.m.m.m.m.m.b.,.h # y Y ! Q Q U.|. XE.8.s.v.H 1 w 8 H m.m.m.",
"m.m.m.m.m.m.m.m.b.6.Q 2 0 P.E.G.F.J.U.E.U.F.W 5.t.c 4 < H m.m.m.",
"m.m.m.m.m.m.m.m.c.T Y ( ( R.U.P Q F.R.}.E.J.R 7.N.t.F < H i.m.m.",
"m.m.m.m.m.m.m.m.u.D a ) X.~ ; % i @.F.J.U.T.Q 6.i.V.y.F >.m.m.m.",
"m.m.m.m.N.m.m.N.c.D ^ | P.L v O.*.=.*.d.-.H.P ,.m.m.n.y.t.m.m.m.",
"m.m.m.V.C.V.V.C.v.T ^  .Y.L *./.'././._.j.@.= ;.m.m.m.m.m.m.m.m.",
"m.m.m.m.V.S.V.V.n.7.N o.L.i +.^.'.^././.l.V Z 5.m.m.m.m.m.m.m.m.",
"m.m.m.m.V.S.S.m.m.n.7.V I 4 8 V #.%.$.U v A 5.m.m.m.V.V.m.m.m.i.",
"m.m.m.m.m.V.V.m.m.m.c.Z > 9 > o < 3 3 +   :.m.m.m.V.S.D.V.m.m.m.",
"m.m.m.m.m.m.m.m.i.N.i.3.r 9 / 9 > > : o k 5.m.m.V.C.C.S.V.m.m.m.",
"m.m.m.m.m.m.V.Z.V.m.N.i.1.0 / ( 9 > : O :.m.m.m.m.V.m.m.m.m.m.m.",
"m.m.m.m.m.m.m.m.m.m.m.m.u.j q _ ) , o k 5.m.m.m.m.m.m.m.m.m.m.m.",
"m.m.m.m.m.m.m.m.m.m.m.m.u.= a o.X.3 . :.m.m.m.m.m.m.m.m.m.m.m.m."
};
