/* XPM */
static char *result[] = {
/* columns rows colors chars-per-pixel */
"32 32 142 2 ",
"   c #463C0E",
".  c #50370A",
"X  c #553C0B",
"o  c #454110",
"O  c #414C15",
"+  c #564610",
"@  c #574D14",
"#  c #565517",
"$  c #5B5915",
"%  c #535718",
"&  c #5B5D1A",
"*  c #61420C",
"=  c #6A470B",
"-  c #604710",
";  c #48631E",
":  c #5C631C",
">  c #556B1F",
",  c #5F6D1F",
"<  c #62661B",
"1  c #7F6115",
"2  c #736815",
"3  c #5A692F",
"4  c #5D7925",
"5  c #5E6E33",
"6  c #646C2F",
"7  c #617C25",
"8  c #6A7925",
"9  c #67722C",
"0  c #707422",
"q  c #6E6542",
"w  c #825C0A",
"e  c #955C05",
"r  c #896C19",
"t  c #90731A",
"y  c #AE6A0B",
"u  c #B0690B",
"i  c #AA7F17",
"p  c #837221",
"a  c #887829",
"s  c #877736",
"d  c #C57609",
"f  c #5F8629",
"g  c #668B2C",
"h  c #6A8C2A",
"j  c #728925",
"k  c #6E992F",
"l  c #72962C",
"z  c #6C8E33",
"x  c #718839",
"c  c #6D9531",
"v  c #6E9B30",
"b  c #749E34",
"n  c #7BA532",
"m  c #79AA34",
"M  c #AC8317",
"N  c #B48118",
"B  c #908027",
"V  c #849331",
"C  c #A19B36",
"Z  c #80A635",
"A  c #83A739",
"S  c #8AA738",
"D  c #80B136",
"F  c #82B638",
"G  c #85BA39",
"H  c #89BF3B",
"J  c #D98B14",
"K  c #D49C1D",
"L  c #E7900C",
"P  c #F8A111",
"I  c #F8AA1A",
"U  c #FDB21C",
"Y  c #CC9E22",
"T  c #D09E20",
"R  c #DFA620",
"E  c #D4A824",
"W  c #CBB32E",
"Q  c #D6B22A",
"!  c #D6BE32",
"~  c #FBBB25",
"^  c #8DC43C",
"/  c #8EC83D",
"(  c #91C63C",
")  c #93CB3E",
"_  c #D8C338",
"`  c #FFCD2E",
"'  c #E8CC38",
"]  c #F7D534",
"[  c #FDD433",
"{  c #FFDC36",
"}  c #FDD43B",
"|  c #F0DA39",
" . c #FFDF39",
".. c #FFE237",
"X. c #FFE93D",
"o. c #818D49",
"O. c #94984E",
"+. c #84845B",
"@. c #B1AB7A",
"#. c #94C042",
"$. c #95D140",
"%. c #99D642",
"&. c #9CDB43",
"*. c #A3DE47",
"=. c #A4DE48",
"-. c #B2DF4F",
";. c #ABE14B",
":. c #B2E44F",
">. c #B6E552",
",. c #B8E653",
"<. c #BEE957",
"1. c #DBD144",
"2. c #E9C447",
"3. c #C3EA59",
"4. c #CAEE5D",
"5. c #EFE646",
"6. c #FBE544",
"7. c #FFEE42",
"8. c #FFEE4A",
"9. c #FFF447",
"0. c #FFF44A",
"q. c #FFF94C",
"w. c #EEE854",
"e. c #FCED5D",
"r. c #FFFE52",
"t. c #FFF75A",
"y. c #FFFB5A",
"u. c #FFF463",
"i. c #FFFC63",
"p. c #FFFF6D",
"a. c #EEEB73",
"s. c #FFFF72",
"d. c #C7C396",
"f. c #CBC99C",
"g. c #FAF782",
"h. c #FFFE86",
"j. c #FBF98C",
"k. c #EFE995",
"l. c #EDEA9F",
"z. c #FDFC98",
"x. c #EDEAAD",
"c. c #F2F1A2",
/* pixels */
"&.&.&.&.&.&.&.&.&.&.&.&.&.&.&.&.&.&.&.&.&.&.&.&.&.&.&.&.&.&.&.&.",
"&.&.&.&.&.&.&.&.%.&.&.&.&.&.&.&.&.&.&.&.&.&.&.&.&.&.&.&.&.&.&.&.",
"&.&.&.&.&.&.&.&.&.&.&.&.&.&.&.;.*.&.&.&.&.&.&.&.&.*.&.;.;.&.) &.",
"&.&.&.=.=.&.&.&.&.&.&.&.&.&.&.<.3.;.&.&.&.&.&.&.;.:.;.,.,.;.&.&.",
"&.&.*.<.<.*.&.&.&.&.&.&.&.&.&.-.3.<.&.&.&.&.&.&.&.;.&.*.*.&.&.&.",
"&.&.&.=.*.&.&.&.&.&.&.&.&.&.&.&.;.;.;.&.&.&.&.&.&.&.&.&.&.&.&.&.",
"&.&.&.&.&.&.&.&.&.&.&.%.) ) ) ) / ( ( ) ) &.&.&.&.&.&.&.&.&.&.&.",
"&.&.&.&.&.&.&.&.&.&.&.G h : : < : & > h / &.&.&.&.&.&.&.&.&.&.&.",
"&.&.&.&.&.&.&.&.&.$.D z 9 1 p a s q q 3 c ^ &.&.&.*.&.&.&.&.&.&.",
"&.&.&.&.&.&.&.&.%.H 4 6 O.1.5.w.a.l.d.+.5 k ) &.;.:.*.&.&.&.&.&.",
"&.&.&.&.&.&.&.*.$.A & B ! } ..7.i.h.c.f.+.x H ) &.*.&.&.&.&.&.&.",
"&.&.&.&.&.&.=.>.#.V t Y [ [ { X.r.s.z.x.@.o.b / &.&.&.&.&.&.&.&.",
"&.&.&.&.&.&.&.=.A 0 T ~ ` ..9.9.r.s.j.k.d.O.4 F &.&.&.&.&.&.&.&.",
"&.&.&.&.&.&.&.%.g # E `  .6.0.q.y.s.h.g.w.C % n &.&.&.&.&.&.&.&.",
"&.&.&.&.&.&.&.%.7 + E { X.7.0.r.r.i.p.u.[ i o m *.&.&.&.&.&.&.&.",
"&.&.&.&.&.&.&.%.8 - Q ..X.7.0.r.r.r.r.0.U u . D <.;.&.&.&.&.&.&.",
"&.&.&.&.&.&.;.:.8 - _ X.X.9.0.r.r.r.q.6.P u . S 4.3.*.&.&.&.&.&.",
"&.&.&.&.&.&.&.&.4 @ _ X.X.9.0.r.r.r.9.[ P y   Z =.;.&.&.&.&.&.&.",
"&.&.&.&.&.&.&.) f % W 6.0.7.q.r.r.r.7.~ L e O m ) &.&.&.&.&.&.&.",
"&.&.&.&.&.&.&.&.k < N 2.u.8.0.q.q.r.6.I d w > m ;.&.&.&.&.&.&.&.",
"&.&.&.&.&.&.&.&.G j r C e.t.t.q.0.9.` J e 2 k / &.&.&.&.&.&.&.&.",
"&.&.&.&.&.&.&.&.) m $ i ' e.t.9.7.] R u = , ^ &.&.&.&.&.&.&.&.&.",
"&.&.&.&.&.&.;.) &.H 7 2 M _ | | ' K u = $ h ) ) &.&.&.&.&.&.&.&.",
"&.&.&.&.&.;.) *.*.) D j 2 1 r t r X * < l G ) ;.&.&.&.&.&.&.&.&.",
"&.&.&.&.,.;.;.:.*.&.) ^ h : : $ % O ; v / &.&.&.&.) &.&.&.&.&.&.",
"&.&.&.&.;.<.;.;.&.&.&.&.) ^ ) ) ^ ^ / ) &.&.&.&.&.&.&.&.&.&.&.&.",
"&.&.&.&.;.<.,.;.&.&.&.&.) &.*.&.&.&.&.&.&.&.&.&.&.&.;.;.&.&.&.&.",
"&.&.&.&.&.;.&.&.&.&.&.&.&.;.<.;.&.&.&.&.&.&.&.&.&.;.<.3.*.&.&.&.",
"&.&.&.&.&.&.&.*.&.&.&.&.&.*.3.,.&.&.&.&.&.&.&.&.*.,.:.<.*.&.&.&.",
"&.&.&.&.&.&.;.:.*.&.&.&.&.&.;.;.&.&.&.&.&.&.&.&.&.;.&.&.&.&.&.&.",
"&.&.&.&.&.&.&.*.&.&.&.&.&.&.&.&.&.&.&.&.&.&.&.&.&.&.&.&.&.&.&.&.",
") &.&.&.&.&.&.&.&.&.&.&.&.&.&.&.&.&.&.&.&.&.&.&.&.&.&.&.&.&.&.&."
};
