/* XPM */
static char *result[] = {
/* columns rows colors chars-per-pixel */
"32 32 205 2 ",
"   c #9CDB43",
".  c #9EDC44",
"X  c #A4DE48",
"o  c #9DDB44",
"O  c #A3DE47",
"+  c #9FDC45",
"@  c #A2DD47",
"#  c #BFE957",
"$  c #C5EB5B",
"%  c #ABE14B",
"&  c #9DDC44",
"*  c #B6E552",
"=  c #A9E04A",
"-  c #BDE856",
";  c #A2DE47",
":  c #9CDC43",
">  c #A4DF48",
",  c #A5DF48",
"<  c #9BD943",
"1  c #96D341",
"2  c #95D03F",
"3  c #96CF3F",
"4  c #95CF3F",
"5  c #96D340",
"6  c #9BD942",
"7  c #92CD3F",
"8  c #6C972E",
"9  c #5F7824",
"0  c #667220",
"q  c #607723",
"w  c #69922D",
"e  c #8FC93E",
"r  c #9DDC43",
"t  c #8DC33B",
"y  c #52661F",
"u  c #54502E",
"i  c #796A50",
"p  c #7A6B52",
"a  c #585332",
"s  c #4E5F1E",
"d  c #88BC39",
"f  c #8FC23B",
"g  c #5E6221",
"h  c #8C806C",
"j  c #DFDBD5",
"k  c #E2DED7",
"l  c #948874",
"z  c #5A591E",
"x  c #8AB937",
"c  c #92C63F",
"v  c #717837",
"b  c #A59D8B",
"n  c #F8F7F1",
"m  c #FAFAE5",
"M  c #A29578",
"N  c #5D581D",
"B  c #8AB837",
"V  c #B8E653",
"C  c #B0E34E",
"Z  c #99D742",
"A  c #8EC140",
"S  c #798345",
"D  c #ACA896",
"F  c #F7F7EF",
"G  c #FAF8DA",
"H  c #AA976F",
"J  c #685A1A",
"K  c #88B134",
"L  c #A9E04B",
"P  c #BAE754",
"I  c #94D140",
"U  c #85B33C",
"Y  c #767F44",
"T  c #ADA890",
"R  c #F7F7E1",
"E  c #FBF9CE",
"W  c #B79C67",
"Q  c #795D15",
"!  c #84A62F",
"~  c #93CF3F",
"^  c #9CDA43",
"/  c #94CF3F",
"(  c #83B13B",
")  c #757E42",
"_  c #ADA870",
"`  c #F7F7A2",
"'  c #FBF89B",
"]  c #BA9D4F",
"[  c #7D5E12",
"{  c #83A42F",
"}  c #92CE3F",
"|  c #9BDA43",
" . c #83B13C",
".. c #757E41",
"X. c #ADA453",
"o. c #F7ED65",
"O. c #FBEB61",
"+. c #BA9532",
"@. c #7C5D10",
"#. c #84B03A",
"$. c #767939",
"%. c #AC9438",
"&. c #F6D237",
"*. c #FACF33",
"=. c #BC881A",
"-. c #7F5F0E",
";. c #84A52F",
":. c #ABE14C",
">. c #C0E958",
",. c #94D040",
"<. c #84AD34",
"1. c #78671D",
"2. c #AA6C11",
"3. c #EE9D12",
"4. c #F8AA1A",
"5. c #C37F10",
"6. c #89680F",
"7. c #86A82F",
"8. c #BEE957",
"9. c #CAED5D",
"0. c #BEE956",
"q. c #81AA32",
"w. c #6B5912",
"e. c #945101",
"r. c #D97D05",
"t. c #F29913",
"y. c #BF801B",
"u. c #847223",
"i. c #85AB35",
"p. c #A6DF49",
"a. c #95D040",
"s. c #83AB36",
"d. c #5A5315",
"f. c #7B4704",
"g. c #C47204",
"h. c #EA9211",
"j. c #B68129",
"k. c #78783C",
"l. c #82AC3B",
"z. c #A1D547",
"x. c #93B23F",
"c. c #5A5317",
"v. c #774504",
"b. c #BF6D01",
"n. c #E18207",
"m. c #AF7623",
"M. c #75773D",
"N. c #81AD3C",
"B. c #B3E151",
"V. c #90B73D",
"C. c #544D14",
"Z. c #6E3B02",
"A. c #B36301",
"S. c #D07404",
"D. c #9C6114",
"F. c #6B662B",
"G. c #8CB53D",
"H. c #99D542",
"J. c #8DBD3A",
"K. c #504812",
"L. c #653100",
"P. c #A75B01",
"I. c #BF6B05",
"U. c #884E08",
"Y. c #65571B",
"T. c #A3C246",
"R. c #8CBD39",
"E. c #504A13",
"W. c #613000",
"Q. c #9E5600",
"!. c #B06201",
"~. c #7D4805",
"^. c #5C5416",
"/. c #91BC3B",
"(. c #9EDD44",
"). c #8CC13B",
"_. c #4D5919",
"`. c #462C05",
"'. c #653200",
"]. c #6C3700",
"[. c #533606",
"{. c #4E5919",
"}. c #88BB39",
"|. c #A4DE47",
" X c #90CA3E",
".X c #608528",
"XX c #4C5719",
"oX c #4F4812",
"OX c #504712",
"+X c #4C5618",
"@X c #5C7F26",
"#X c #8CC53C",
"$X c #ADE24D",
"%X c #8FC93D",
"&X c #8ABF3A",
"*X c #8BBB39",
"=X c #8BBE3A",
"-X c #8EC83D",
";X c #99D642",
":X c #C4EB5A",
">X c #A2DD46",
",X c #A3DF47",
"<X c #C4EB59",
"1X c #B2E44F",
"2X c white",
/* pixels */
"                                                                ",
"                                                                ",
"                            . X X o             . O + X X .     ",
"    . X X .                 @ # $ % &           O * = - - ;     ",
"    ; - - ;                 & % $ # ;           . O + X X .     ",
"    . X X .                 : . > , .                           ",
"                        < 1 2 3 4 4 5 6                         ",
"                      : 7 8 9 0 0 q w e :                       ",
"                      r t y u i p a s d r       . O .           ",
"                      r f g h j k l z x r       O * O           ",
"            . O + O . : c v b n m M N B r       . O .           ",
"            O V C V O Z A S D F G H J K Z                       ",
"            & L P L o I U Y T R E W Q ! ~ ^                     ",
"              & O &   / ( ) _ ` ' ] [ { } |                     ",
"                      /  ...X.o.O.+.@.{ } |   & @ &             ",
"            . O .     / #.$.%.&.*.=.-.;.} | & :.>.:.&           ",
"            O * O     ,.<.1.2.3.4.5.6.7.} | ; 8.9.0.;           ",
"            . O .     ,.q.w.e.r.t.y.u.i.7 | . X p.X .           ",
"                      a.s.d.f.g.h.j.k.l.7 |                     ",
"                    o z.x.c.v.b.n.m.M.N.} |                     ",
"                    @ B.V.C.Z.A.S.D.F.G.H.                      ",
"                    . O J.K.L.P.I.U.Y.T.O                       ",
"                      : R.E.W.Q.!.~.^./.(.                      ",
"      . O & . O .     r )._.`.'.].[.{.}.r                       ",
"      O V = |.* O     r  X.XXXoXOX+X@X#Xr                       ",
"      & :.>.$XX .       Z %X&X*X*X=X-X;X                        ",
"        |.:X# >X          . ,X(.r r r             & X X .       ",
"        . X X &           X # :.&               & = >.<XX       ",
"            & O .         X :X# @               O V 1X8.X       ",
"            O * O         . X X .               . O + @ .       ",
"            . O .                                               ",
"                                                                "
};
