/* XPM */
static char *result[] = {
/* columns rows colors chars-per-pixel */
"32 32 250 2 ",
"   c #9CDB43",
".  c #9EDC44",
"X  c #A4DE48",
"o  c #9DDB44",
"O  c #A3DE47",
"+  c #9FDC45",
"@  c #A2DD47",
"#  c #BFE957",
"$  c #C5EB5B",
"%  c #ABE14B",
"&  c #9DDC44",
"*  c #B6E552",
"=  c #A9E04A",
"-  c #BDE856",
";  c #A2DE47",
":  c #9CDC43",
">  c #A5DF48",
",  c #9BD942",
"<  c #93CE3F",
"1  c #90C83D",
"2  c #92C93D",
"3  c #91CC3E",
"4  c #99D742",
"5  c #92CC3F",
"6  c #61882A",
"7  c #51641E",
"8  c #60671E",
"9  c #62681D",
"0  c #55641D",
"q  c #567724",
"w  c #87BE3A",
"e  c #7BA936",
"r  c #637534",
"t  c #696545",
"y  c #837558",
"u  c #867742",
"i  c #6C632D",
"p  c #575F26",
"a  c #719831",
"s  c #8CC43C",
"d  c #9CDA43",
"f  c #7DAF35",
"g  c #59742C",
"h  c #969A62",
"j  c #D0CCA8",
"k  c #EAE8CC",
"l  c #EDEA91",
"z  c #CEC45C",
"x  c #978C3D",
"c  c #5E7027",
"v  c #6F9C30",
"b  c #99D642",
"n  c #6C992E",
"m  c #3C4827",
"M  c #A9A996",
"N  c #F5F3DD",
"B  c #FFFFCF",
"V  c #FFFF84",
"C  c #F5E14D",
"Z  c #C4A32F",
"A  c #555619",
"S  c #5D8428",
"D  c #97D441",
"F  c #B8E653",
"G  c #B0E34E",
"H  c #749D34",
"J  c #4F5339",
"K  c #BBBAB6",
"L  c #FCFBE6",
"P  c #FAF7B4",
"I  c #FDFB6F",
"U  c #FFEA41",
"Y  c #D9B128",
"T  c #5E5113",
"R  c #5F7C25",
"E  c #A9E04B",
"W  c #BAE754",
"Q  c #9BD843",
"!  c #85AB3F",
"~  c #7B7B54",
"^  c #CDCABC",
"/  c #FAF7D5",
"(  c #F5F099",
")  c #FCF965",
"_  c #FFEF44",
"`  c #DEBB2C",
"'  c #755913",
"]  c #6E7D23",
"[  c #96D03F",
"{  c #80A23D",
"}  c #807F54",
"|  c #D0CDAB",
" . c #FDFCBC",
".. c #FCFA87",
"X. c #FEFD60",
"o. c #FFF447",
"O. c #E4C530",
"+. c #8C6310",
"@. c #787A1E",
"#. c #8DC33B",
"$. c #9AD842",
"%. c #8EC73D",
"&. c #7C9D3C",
"*. c #7F7E4C",
"=. c #D0CD7D",
"-. c #FFFC85",
";. c #FFFA67",
":. c #FFFD57",
">. c #FFF749",
",. c #E8CE34",
"<. c #9D6F10",
"1. c #7C7719",
"2. c #83B336",
"3. c #96D240",
"4. c #8BC33C",
"5. c #7A9637",
"6. c #807538",
"7. c #D0BF46",
"8. c #FFEB48",
"9. c #FFEC44",
"0. c #FFF84D",
"q. c #FFF94B",
"w. c #EAD337",
"e. c #A57811",
"r. c #7D7617",
"t. c #7BA832",
"y. c #95D040",
"u. c #ABE14C",
"i. c #C0E958",
"p. c #98D641",
"a. c #84B838",
"s. c #738326",
"d. c #805915",
"f. c #CF911D",
"g. c #FDBF28",
"h. c #FFD332",
"j. c #FFF147",
"k. c #EAD538",
"l. c #A57A13",
"z. c #7D7618",
"x. c #9AD243",
"c. c #CAED5D",
"v. c #BEE956",
"b. c #87BD3A",
"n. c #6F8224",
"m. c #6C470A",
"M. c #B46C09",
"N. c #EA9C15",
"B. c #FDC128",
"V. c #FFE740",
"C. c #FFF84A",
"Z. c #E8DB43",
"A. c #9A822C",
"S. c #7A822B",
"D. c #82B337",
"F. c #97D341",
"G. c #A4DF48",
"H. c #A6DF49",
"J. c #9AD942",
"K. c #90CB3E",
"L. c #718C29",
"P. c #563C0B",
"I. c #935302",
"U. c #D0800B",
"Y. c #F1AD20",
"T. c #FCDF3B",
"R. c #FFF951",
"E. c #E3E054",
"W. c #89803D",
"Q. c #758937",
"!. c #8CC33D",
"~. c #99D641",
"^. c #9BD743",
"/. c #7B952F",
"(. c #4C3009",
"). c #834500",
"_. c #BA6904",
"`. c #D88E15",
"'. c #F4D93D",
"]. c #FFFF63",
"[. c #DEDA66",
"{. c #74672C",
"}. c #6D8029",
"|. c #96D040",
" X c #9BDA43",
".X c #A2DD46",
"XX c #7F9936",
"oX c #362708",
"OX c #773E00",
"+X c #B16101",
"@X c #CA800D",
"#X c #EFD137",
"$X c #FFFC64",
"%X c #D7D46A",
"&X c #565024",
"*X c #5A7322",
"=X c #97D340",
"-X c #719A31",
";X c #30340D",
":X c #6D3F02",
">X c #A15800",
",X c #BA7609",
"<X c #EAC52E",
"1X c #F7E857",
"2X c #C4BF5F",
"3X c #4C5025",
"4X c #567825",
"5X c #96D341",
"6X c #7CAF36",
"7X c #4F641C",
"8X c #634509",
"9X c #7C4400",
"0X c #996107",
"qX c #D4AA24",
"wX c #D2B83E",
"eX c #9A9243",
"rX c #5D6E2A",
"tX c #6D992F",
"yX c #91CB3E",
"uX c #76A130",
"iX c #4F5315",
"pX c #452A04",
"aX c #5B3404",
"sX c #7C5A12",
"dX c #715F1D",
"fX c #595F25",
"gX c #709631",
"hX c #8AC33B",
"jX c #A4DE47",
"kX c #5E8328",
"lX c #495719",
"zX c #545416",
"xX c #5D5E19",
"cX c #535F1B",
"vX c #547323",
"bX c #86BC3A",
"nX c #ADE24D",
"mX c #8DC43C",
"MX c #8FC43B",
"NX c #91C53C",
"BX c #8FC53C",
"VX c #8FC93D",
"CX c #C4EB5A",
"ZX c #A3DF47",
"AX c #9EDD44",
"SX c #9DDC43",
"DX c #C4EB59",
"FX c #B2E44F",
"GX c #BEE957",
"HX c white",
/* pixels */
"                                                                ",
"                                                                ",
"                            . X X o             . O + X X .     ",
"    . X X .                 @ # $ % &           O * = - - ;     ",
"    ; - - ;                 & % $ # ;           . O + X X .     ",
"    . X X .               : : . > > .                           ",
"                        , < 1 2 2 1 3 4                         ",
"                        5 6 7 8 9 0 q w                         ",
"                      3 e r t y u i p a s ,     . O .           ",
"                    d f g h j k l z x c v b     O * O           ",
"            . O + O o n m M N B V C Z A S D     . O .           ",
"            O F G F @ H J K L P I U Y T R D :                   ",
"            & E W = Q ! ~ ^ / ( ) _ ` ' ] [                     ",
"              & O d 3 { } |  ...X.o.O.+.@.#.4                   ",
"                  $.%.&.*.=.-.;.:.>.,.<.1.2.3.. @ &             ",
"            . O . $.4.5.6.7.8.9.0.q.w.e.r.t.y.u.i.u.&           ",
"            O * O p.a.s.d.f.g.h.j.q.k.l.z.t.x.# c.v.;           ",
"            . O . 4 b.n.m.M.N.B.V.C.Z.A.S.D.F.G.H.X .           ",
"                  J.K.L.P.I.U.Y.T.R.E.W.Q.!.~.                  ",
"                    ^./.(.)._.`.'.].[.{.}.|. X                  ",
"                    .XXXoXOX+X@X#X$X%X&X*X=X:                   ",
"                    o -X;X:X>X,X<X1X2X3X4X5X:                   ",
"                    d 6X7X8X9X0XqXwXeXrXtXp.                    ",
"      . O & . O .     yXuXiXpXaXsXdXfXgXhX,                     ",
"      O F = jX* O       yXkXlXzXxXcXvXbX                        ",
"      & u.i.nXX .       J.3 mXMXNXBXVXp.                        ",
"        jXCX# .X          . ZXAX: SXSX            & X X .       ",
"        . X X &           X # u.&               & = i.DXX       ",
"            & O .         X CX# @               O F FXGXX       ",
"            O * O         . X X .               . O + @ .       ",
"            . O .                                               ",
"                                                                "
};
