/* XPM */
static char *result[] = {
/* columns rows colors chars-per-pixel */
"32 32 142 2 ",
"   c #392101",
".  c #342B09",
"X  c #393E11",
"o  c #552D03",
"O  c #44390C",
"+  c #603904",
"@  c #4F4812",
"#  c #534914",
"$  c #594D13",
"%  c #455C1C",
"&  c #595416",
"*  c #555D1A",
"=  c #595918",
"-  c #7B4702",
";  c #715D12",
":  c #56661F",
">  c #6E641A",
",  c #626B1E",
"<  c #696A1C",
"1  c #7A6414",
"2  c #577725",
"3  c #616B21",
"4  c #67622B",
"5  c #776425",
"6  c #786C20",
"7  c #667322",
"8  c #6F742D",
"9  c #787322",
"0  c #6B6536",
"q  c #7B6B35",
"w  c #776543",
"e  c #6F7242",
"r  c #776853",
"t  c #804605",
"y  c #894E01",
"u  c #89550D",
"i  c #A45C04",
"p  c #8E6D0F",
"a  c #9D6C1E",
"s  c #97761B",
"d  c #9A771B",
"f  c #A5650B",
"g  c #A67918",
"h  c #816B22",
"j  c #85772A",
"k  c #C17309",
"l  c #6A8025",
"z  c #62852A",
"x  c #69822A",
"c  c #6A912D",
"v  c #72932C",
"b  c #6E8334",
"n  c #738236",
"m  c #778339",
"M  c #76A533",
"N  c #7AA331",
"B  c #7FAF36",
"V  c #7B8D41",
"C  c #B58A1B",
"Z  c #A18933",
"A  c #89A72F",
"S  c #8AAB32",
"D  c #85B336",
"F  c #86BA38",
"G  c #8BBC39",
"H  c #BBA73A",
"J  c #CD800F",
"K  c #D89619",
"L  c #C8A020",
"P  c #CAAB29",
"I  c #CFAF3B",
"U  c #E6AF26",
"Y  c #EAAA21",
"T  c #F3B221",
"R  c #EDB231",
"E  c #8CC33C",
"W  c #8EC83D",
"Q  c #93CD3F",
"!  c #94D03F",
"~  c #CDC33F",
"^  c #ECCC3A",
"/  c #F6CB33",
"(  c #F7D737",
")  c #FDD235",
"_  c #FBDA37",
"`  c #F7D539",
"'  c #FFDC39",
"]  c #FFE53D",
"[  c #FFE83F",
"{  c #9B8E4E",
"}  c #99925A",
"|  c #A09248",
" . c #AB9D4A",
".. c #8E8467",
"X. c #9A9668",
"o. c #91C840",
"O. c #95D240",
"+. c #9AD542",
"@. c #9CDB43",
"#. c #A1D347",
"$. c #A3DE47",
"%. c #A4DE48",
"&. c #AFDA4E",
"*. c #B2D951",
"=. c #AAE14B",
"-. c #B2E44F",
";. c #B6E552",
":. c #B8E653",
">. c #BEE956",
",. c #C3EA5A",
"<. c #C9EC5D",
"1. c #F7E241",
"2. c #FDEC42",
"3. c #FFED4D",
"4. c #FEF44A",
"5. c #FFF94D",
"6. c #E7E05D",
"7. c #FFFB54",
"8. c #FFF058",
"9. c #FFFC5B",
"0. c #DBD567",
"q. c #EFE566",
"w. c #EEE06E",
"e. c #FDFB61",
"r. c #F9F768",
"t. c #F8F773",
"y. c #FEFC72",
"u. c #FFFF7A",
"i. c #B2AA82",
"p. c #CAC698",
"a. c #E6E282",
"s. c #FFFC85",
"d. c #FFFF9F",
"f. c #DCD6A9",
"g. c #EAE8A7",
"h. c #FFFFA3",
"j. c #FEFEAF",
"k. c #E4E0B8",
"l. c #F2F0B4",
"z. c #ECEAC4",
"x. c #E4E0C9",
"c. c #FFFFC4",
/* pixels */
"@.@.@.@.@.@.@.@.@.@.@.@.@.@.@.@.@.@.@.@.@.@.@.@.@.@.@.@.@.@.@.@.",
"@.@.@.@.@.@.@.@.@.@.@.@.@.@.@.@.@.@.@.@.@.@.@.@.@.@.@.@.@.@.@.@.",
"@.@.@.@.@.@.@.@.@.@.@.@.@.@.@.%.%.@.@.@.@.@.@.@.@.=.@.=.=.@.@.@.",
"@.@.@.%.%.@.@.@.@.@.@.@.@.@.@.>.,.=.@.@.@.@.@.@.=.-.=.:.:.@.@.@.",
"@.@.$.>.>.$.@.@.@.@.@.@.@.@.@.=.,.,.=.! @.@.@.@.@.=.@.@.=.@.@.@.",
"@.@.@.$.%.@.@.@.@.@.@.@.@.@.@.$.=.%.$.@.@.@.@.@.@.@.@.@.@.@.@.@.",
"@.@.@.@.@.@.@.@.@.@.@.@.@.! o.O.Q Q ! ! @.@.@.@.@.@.@.@.@.@.@.@.",
"@.@.@.@.@.@.@.@.@.@.@.! D l , 3 7 , 7 N W ! @.@.@.@.@.@.@.@.@.@.",
"@.@.@.@.@.@.@.@.@.@.O.F x 0 w w q 5 > 7 N Q @.@.@.=.@.@.@.@.@.@.",
"@.@.@.@.@.@.@.@.@.@.E v 4 i.k.g.a.6.~ 6 7 F ! @.$.-.@.@.@.@.@.@.",
"@.@.@.@.@.@.@.$.$.+.M b } f.c.d.y.3.^ Z 8 c W @.@.=.@.@.@.@.@.@.",
"@.@.@.@.@.@.$.;.-.&.x e p.l.h.y.3.] ` I j : F @.@.@.@.@.@.@.@.@.",
"@.@.@.@.@.@.@.=.:.#.3 r x.j.u.7.] ] 2./ d @ D @.@.@.@.@.@.@.@.@.",
"@.@.@.@.@.@.@.@.%.O.n ..z.h.y.7.] ] 4.) g $ D @.@.@.@.@.@.@.@.@.",
"@.@.@.@.@.@.@.@.@.o.V X.g.s.e.7.] ] 4._ C ; S @.@.@.@.@.@.@.@.@.",
"@.@.@.@.@.@.@.$.O.G m { w.8.4.5.] 2.5.2.L p A $.>.=.@.@.@.@.@.@.",
"@.@.@.@.@.@.=.-.+.F 9 a R ) [ 4.' ] 5.5.P p A *.<.,.$.@.@.@.@.@.",
"@.@.@.@.@.@.@.=.+.E > t J T ' 4.] ] 7.e.H 1 S +.%.%.@.@.@.@.@.@.",
"@.@.@.@.@.! @.@.@.Q = o i K / 4.[ [ 7.t. .& D @.@.@.@.@.@.@.@.@.",
"@.@.@.@.@.@.@.@.@.Q %   y k U 4.2.2.9.t.| # S @.@.@.@.@.@.@.@.@.",
"@.@.@.@.@.@.@.@.@.Q 2 O - i K 2.4.7.r.0.{ * F @.@.@.@.@.@.@.@.@.",
"@.@.@.@.@.@.@.@.@.! v * + y C ( 4.9.q. .8 z E @.@.@.@.@.@.@.@.@.",
"@.@.@.@.@.@.@.@.@.@.G 2 . o f Y ( 1.~ h 7 B ! @.@.@.@.@.@.@.@.@.",
"@.@.@.@.@.@.@.=.@.@.! M % . o u s s p < v Q @.@.@.@.@.@.@.@.@.@.",
"@.@.@.$.:.=.=.-.@.@.@.! M % X @ & & * v G @.@.@.@.@.@.@.@.@.@.@.",
"@.@.@.@.=.>.=.=.@.@.@.@.! E F E G G G Q O.@.@.@.@.@.@.@.@.@.@.@.",
"@.@.@.@.=.,.>.@.@.@.@.@.@.@.=.@.@.@.@.@.@.@.@.@.@.@.$.$.@.@.@.@.",
"@.@.@.@.@.$.=.@.@.@.@.@.@.@.>.=.@.@.@.@.@.@.@.@.@.=.>.,.$.@.@.@.",
"@.@.@.@.@.@.@.$.@.@.@.@.! =.,.>.=.@.@.@.@.@.@.@.$.;.;.>.%.@.@.@.",
"@.@.@.@.@.@.$.-.=.@.@.@.@.@.=.=.@.@.@.@.@.@.@.@.@.$.@.$.@.@.@.@.",
"@.@.@.@.@.@.@.=.@.@.@.@.@.@.@.@.@.@.@.@.@.@.@.@.@.@.@.@.@.@.@.@.",
"@.@.@.@.@.@.@.@.@.@.@.@.@.@.@.! @.@.@.@.@.@.@.@.@.@.@.@.@.@.@.@."
};
