/* XPM */
static char *result[] = {
/* columns rows colors chars-per-pixel */
"32 32 147 2 ",
"   c #3F4013",
".  c #524612",
"X  c #5C4C15",
"o  c #565517",
"O  c #565718",
"+  c #5B551A",
"@  c #575C1A",
"#  c #5C5B1B",
"$  c #644E14",
"%  c #6A5515",
"&  c #60511B",
"*  c #715F1B",
"=  c #5F6A1E",
"-  c #636C1F",
";  c #77631C",
":  c #79671D",
">  c #726C1C",
",  c #7D6C1F",
"<  c #79701E",
"1  c #4F5D20",
"2  c #4E6C21",
"3  c #596E21",
"4  c #5B7122",
"5  c #5E7B25",
"6  c #6B6725",
"7  c #666B27",
"8  c #6D6D2E",
"9  c #796C2F",
"0  c #657221",
"q  c #6A7322",
"w  c #637D25",
"e  c #6A7B23",
"r  c #657C2A",
"t  c #6B7B2C",
"y  c #727627",
"u  c #7A6830",
"i  c #797230",
"p  c #717C31",
"a  c #896C1C",
"s  c #8E701C",
"d  c #8F7621",
"f  c #816F33",
"g  c #857634",
"h  c #837B35",
"j  c #6D8426",
"k  c #678728",
"l  c #6A832C",
"z  c #608829",
"x  c #6F8A28",
"c  c #6C972E",
"v  c #75922D",
"b  c #789430",
"n  c #719C31",
"m  c #7C9F32",
"M  c #75A332",
"N  c #7FA733",
"B  c #7AAC34",
"V  c #9E8623",
"C  c #998428",
"Z  c #8E8139",
"A  c #9D953B",
"S  c #A9942B",
"D  c #AF9B2D",
"F  c #A3973B",
"G  c #A79B3A",
"H  c #B29E3A",
"J  c #82AC35",
"K  c #85B436",
"L  c #8BBC39",
"P  c #93BF3D",
"I  c #BAAF35",
"U  c #B3A23A",
"Y  c #C7B434",
"T  c #C8B333",
"R  c #CCBB34",
"E  c #C1B13C",
"W  c #CBB93E",
"Q  c #D0BE36",
"!  c #8EC33B",
"~  c #8FC83E",
"^  c #93C43D",
"/  c #93CD3F",
"(  c #96D03F",
")  c #D6C638",
"_  c #D7CC3D",
"`  c #E2C332",
"'  c #E8D53B",
"]  c #FFD532",
"[  c #FFDB36",
"{  c #FFDE38",
"}  c #FFE53D",
"|  c #FFEB3F",
" . c #ADA545",
".. c #B8A940",
"X. c #BCB244",
"o. c #B6AC51",
"O. c #BDB456",
"+. c #CABD41",
"@. c #97CE42",
"#. c #96D240",
"$. c #9AD542",
"%. c #9CDB43",
"&. c #A3DE47",
"*. c #A4DE48",
"=. c #ABE14B",
"-. c #B2E44F",
";. c #B6E552",
":. c #B8E653",
">. c #BEE957",
",. c #CFC345",
"<. c #D9CE4B",
"1. c #D7D242",
"2. c #DDD645",
"3. c #D5D048",
"4. c #D9CF52",
"5. c #DED453",
"6. c #E8D544",
"7. c #E3DE46",
"8. c #E3DF48",
"9. c #E3DA53",
"0. c #E9DB51",
"q. c #C3EB5A",
"w. c #E4E047",
"e. c #EEE141",
"r. c #F4E744",
"t. c #F7E947",
"y. c #FEED43",
"u. c #F5EE4F",
"i. c #F8EF4A",
"p. c #FFF145",
"a. c #FEF449",
"s. c #FFFA4D",
"d. c #FCE654",
"f. c #FFE854",
"g. c #F8EE5A",
"h. c #FDF553",
"j. c #FFFE52",
"k. c #FDF65D",
"l. c #FFFF58",
"z. c #DDD668",
"x. c #E1DA6B",
"c. c #EAE36F",
"v. c #F9F767",
"b. c #FEFD64",
"n. c #FFFD6C",
"m. c #FEFE73",
"M. c #FFFE7B",
/* pixels */
"%.%.%.%.%.%.%.%.%.%.%.%.%.%.%.%.%.%.%.%.%.%.%.%.%.%.%.%.%.%.%.%.",
"%.%.%.%.%.%.%.%.%.%.%.%.%.%.%.%.%.%.%.%.%.%.%.%.%.%.%.%.%.%.%.%.",
"%.%.%.%.%.%.%.%.%.%.%.%.%.%.%.&.&.%.%.%.%.%.%.%.%.&.%.*.*.%.%.%.",
"%.%.%.*.*.%.%.%.%.%.%.%.%.%.&.>.q.=.%.%.%.%.%.%.&.;.=.>.>.&.%.%.",
"%.%.&.>.>.&.%.%.%.%.%.%.%.( =.=.q.q.&.%.%.%.%.%.%.*.%.&.*.%.%.%.",
"%.%.%.&.*.%.%.%.%.%.$.~ ! L L L P ^ L ! ^ %.%.%.%.%.%.%.%.%.%.%.",
"%.%.%.%.%.%.%.%.%.%.! c 3 o + # # O o 4 M / %.%.%.%.%.%.%.%.%.%.",
"%.%.%.%.%.%.%.%./ K v t 8 9 f g g f u 8 r v K #.%.%.%.%.%.%.%.%.",
"%.%.%.%.%.%.%./ J 0 & Z O.x.c.c.c.c.z.o.h X j K #.*.%.%.%.%.%.%.",
"%.%.%.%.%.%.%.K - < D ,.0.d.d.f.d.d.d.9.+.S < 0 P ;.&.%.%.%.%.%.",
"%.%.%.%.%.%.^ b + S } a.p.} [ ] [ { } y.a.e.C + m @.%.%.%.%.%.%.",
"%.%.%.%.%./ n p Z W r.a.p.p.[ ] } y.a.} y.i.X.Z r n #.%.%.%.%.%.",
"%.%.%.%.%.! 4 6 X.6.} p.s.s.} { p.s.j.y.p.p.7.U # w / %.%.%.%.%.",
"%.%.%.%.%.! O * 2.y.} a.j.s.y.| s.j.j.j.a.p.y.R $ - / %.%.%.%.%.",
"%.%.%.$.%.K O : 7.p.| s.j.j.y.y.s.j.j.j.s.p.a._ % 7 / %.%.%.%.%.",
"%.%.%.%.%.K @ , w.s.a.s.j.j.p.| s.j.j.j.s.s.s._ * q / %.%.%.%.%.",
"%.%.%.%.( K O 9 w.j.j.j.j.s.p.y.s.j.j.j.j.s.j.1.* y @.%.%.%.%.%.",
"%.( %.%.%.L o ; 8.b.b.l.s.p.} } s.j.j.j.j.j.s.) % - / %.%.%.%.%.",
"%.%.%.%.%.! @ * 3.v.m.b.j.p.} } j.l.j.j.j.j.t.Y $ = ^ %.%.%.%.%.",
"%.%.%.=.( / 5 7  .9.b.n.b.a.p.k.n.b.l.j.j.j.<.F = k / %.%.%.%.%.",
"%.%.%.%.%.@.M l i E h.b.b.k.b.n.M.M.b.l.s.t.H 9 k B ( %.%.%.%.%.",
"%.%.%.%.%.%.#.m X V ' u.v.m.m.M.M.M.m.k.r.` s o N $.%.%.%.%.%.%.",
"%.%.%.%.%.%.%.L j > d ..5.g.k.k.k.k.g.4.H a > x ~ %.%.%.%.%.%.%.",
"%.%.%.%.*.%.%.%.L e + h G T Q ) Q R I A i + x ! $.%.%.%.%.%.%.%.",
"%.%.%.=.-.=.=.-.%.! N k # X $ % % .   1 l B ~ $.%.%.%.%.%.%.%.%.",
"%.%.%.%.=.>.=.=.%.%.@.M k 7 0 q e 3 2 z B #.%.%.%.%.%.%.%.%.%.%.",
"%.%.%.%.=.q.:.=.%.%.%.$.( ( $.$.( ( / ( %.%.%.%.%.%.=.*.%.%.%.%.",
"%.%.%.%.%.&.&.%.%.%.%.%.%.&.>.=.%.%.%.%.%.%.%.%.%.=.>.>.*.%.%.%.",
"%.%.%.%.%.%.%.&.%.%.%.%.%.*.q.>.%.%.%.%.%.%.%.%.*.;.;.>.*.%.%.%.",
"%.%.%.%.%.%.&.-.*.%.%.%.%.%.*.=.%.%.%.%.%.%.%.%.%.=.%.%.%.%.%.%.",
"%.( %.%.%.%.%.=.%.%.%.%.%.%.%.%.%.%.%.%.%.%.%.%.%.%.%.%.%.%.%.%.",
"%.%.%.%.%.%.%.%.%.%.%.%.%.%.%.%.%.%.%.%.%.%.%.%.%.%.%.%.%.%.%.%."
};
