/* XPM */
static char *result[] = {
/* columns rows colors chars-per-pixel */
"32 32 149 2 ",
"   c #4B0404",
".  c #550405",
"X  c #5A0505",
"o  c #560B07",
"O  c #570808",
"+  c #5C0D0B",
"@  c #5A160C",
"#  c #54190C",
"$  c #5D1B0C",
"%  c #5D1913",
"&  c #6B0607",
"*  c #620708",
"=  c #610C09",
"-  c #6C0A09",
";  c #730607",
":  c #790607",
">  c #760708",
",  c #730B09",
"<  c #7B090A",
"1  c #631209",
"2  c #6E140B",
"3  c #651C0C",
"4  c #77160B",
"5  c #600F12",
"6  c #771719",
"7  c #5F2211",
"8  c #513111",
"9  c #5C3312",
"0  c #5D3C13",
"q  c #61260F",
"w  c #6A240E",
"e  c #70250F",
"r  c #6B2C11",
"t  c #752A11",
"y  c #673312",
"u  c #6A3313",
"i  c #643C15",
"p  c #6C3E16",
"a  c #683918",
"s  c #733714",
"d  c #6B3638",
"f  c #783A32",
"g  c #634216",
"h  c #6B4016",
"j  c #644C19",
"k  c #704318",
"l  c #68501A",
"z  c #6B5C1D",
"x  c #73581D",
"c  c #6E611F",
"v  c #4F422F",
"b  c #54492E",
"n  c #50593E",
"m  c #774A36",
"M  c #5A6129",
"N  c #56643D",
"B  c #6E6B22",
"V  c #736620",
"C  c #716C22",
"Z  c #66772E",
"A  c #757524",
"S  c #7A7827",
"D  c #777E28",
"F  c #667834",
"G  c #653641",
"H  c #614E46",
"J  c #704A40",
"K  c #774C4C",
"L  c #735943",
"P  c #6E4F5E",
"I  c #7B4F52",
"U  c #795858",
"Y  c #747F5E",
"T  c #745F70",
"R  c #706969",
"E  c #707362",
"W  c #830709",
"Q  c #880709",
"!  c #840909",
"~  c #920A0A",
"^  c #8F1616",
"/  c #862929",
"(  c #893639",
")  c #8A6224",
"_  c #87732B",
"`  c #897F2E",
"'  c #9C732E",
"]  c #AB4748",
"[  c #B45D5F",
"{  c #815C60",
"}  c #8D6669",
"|  c #936264",
" . c #987578",
".. c #7A842A",
"X. c #768C2B",
"o. c #7E922D",
"O. c #7E982F",
"+. c #7A9C33",
"@. c #77A03A",
"#. c #7AA33B",
"$. c #6F8141",
"%. c #779441",
"&. c #779349",
"*. c #738653",
"=. c #7EA542",
"-. c #8C812F",
";. c #80942E",
":. c #849C31",
">. c #86A233",
",. c #86AB35",
"<. c #88AC35",
"1. c #87A639",
"2. c #88AE3D",
"3. c #8AB337",
"4. c #8EB539",
"5. c #8EBD3B",
"6. c #91B43B",
"7. c #8BC03E",
"8. c #92C53D",
"9. c #94CB3E",
"0. c #88B940",
"q. c #82837A",
"w. c #8EC340",
"e. c #93CC40",
"r. c #96D241",
"t. c #9AD542",
"y. c #9CDB43",
"u. c #A8C749",
"i. c #A2DD47",
"p. c #A4DE48",
"a. c #A5E148",
"s. c #AAE14B",
"d. c #B1E34F",
"f. c #B6E552",
"g. c #B9E653",
"h. c #BDE856",
"j. c #C0E957",
"k. c #C3EA59",
"l. c #CAED5D",
"z. c #A08385",
"x. c #B78D8A",
"c. c #BA9B99",
"v. c #BCB0B3",
"b. c #BDB9BB",
"n. c #D2AAAD",
"m. c #C2B9BB",
"M. c #D5B1B4",
"N. c #D1C4C5",
"B. c #D7CDCF",
/* pixels */
"y.y.y.y.y.y.y.y.y.y.y.y.y.y.y.y.y.y.y.y.y.y.y.y.y.y.y.y.y.y.y.y.",
"y.y.y.y.y.y.y.y.y.y.y.y.y.y.y.y.y.y.y.y.y.y.y.y.y.y.y.y.y.y.y.y.",
"y.y.y.y.y.y.y.y.y.y.y.y.y.y.y.a.i.i.y.y.y.y.y.y.y.i.y.i.i.y.y.y.",
"y.y.y.p.i.y.y.y.y.y.y.y.y.y.9.-._ 9.y.y.y.y.y.y.y.f.s.h.h.i.y.y.",
"y.y.i.h.h.i.y.y.y.y.y.y.y.y.;.) ' ` i.y.y.y.y.y.y.i.y.i.p.y.y.y.",
"y.y.y.p.i.y.y.y.y.y.y.y.y.y.;.r t D y.y.y.y.y.y.y.y.y.y.y.y.y.y.",
"y.y.y.y.y.y.y.y.y.y.y.y.y.;.q X X $ D t.y.y.y.y.y.y.y.y.y.y.y.y.",
"y.y.y.y.y.y.y.y.y.y.y.y.8.y : ^ ^ Q w <.y.y.y.y.y.y.y.y.y.y.y.y.",
"y.y.y.y.y.y.y.y.y.y.y.t.A 2 ] n.M.[ < z 9.y.y.y.y.p.y.y.y.y.y.y.",
"y.y.y.y.y.y.y.y.y.y.y.4.m (  .N.B.z.( f ,.y.y.y.p.f.p.y.y.y.y.y.",
"y.y.y.y.y.y.y.i.y.i.a.7.L I } x.c.| { J 2.y.y.y.y.p.y.y.y.y.y.y.",
"y.y.y.y.y.y.i.f.d.f.i.:.$ d v.m.b.m.I # ..y.y.y.y.y.y.y.y.y.y.y.",
"t.y.y.y.y.y.y.p.g.s.<.e ; . K R R U + & 4 o.y.y.y.y.y.y.y.y.y.y.",
"y.y.y.y.y.y.y.y.a.y.3.c o : 6 / / / , . l >.y.y.y.y.y.y.y.y.y.y.",
"y.y.y.y.y.y.y.y.y.y.y.A - 1 3 ! Q 3 1 ; x 9.y.y.i.y.y.y.y.y.y.y.",
"y.y.y.y.y.y.y.i.y.y.5.h w B j , < i C y r ,.i.s.k.p.y.y.y.y.t.y.",
"y.y.y.y.y.y.a.f.a.4.h i X.,.7 G G % O.>.g a >.h.l.h.i.y.y.y.y.y.",
"y.y.y.y.y.a.9.a.5.z W Q t 0 + P T 5 9 s ! Q k 6.p.p.y.y.y.y.y.y.",
"y.y.y.y.y.y.9.3.u ! ~ Q > : + 6 6 * ; > < ~ Q e ;.y.y.y.y.y.y.y.",
"y.y.y.y.y.y.9.p Q < & . . : W ~ ~ W < O . & < Q e 4.y.y.y.y.y.y.",
"y.y.y.y.y.y.9.t >   O i i = , ! ! < - 9 j O   & 4 ,.y.y.y.y.y.y.",
"y.y.y.y.y.y.3.t - 8 = S e.j * - - * a u.:.= 8 1 4 :.y.y.y.y.y.y.",
"y.y.y.y.9.a...: 2 M v 1.y.8.C $ @ z 4.a.5.b M 3 W V y.y.y.y.y.y.",
"y.y.y.y.a.y.>.2 w Z n 7.y.y.t.3.1.e.y.y.e.N F y , ..y.y.y.y.y.y.",
"y.9.y.a.f.a.9.9 o X.@.r.y.y.y.y.y.y.y.y.t.@.+.% # ,.y.y.y.y.y.y.",
"y.a.y.y.a.j.p.Z H $.r.y.y.y.y.y.y.y.y.y.y.t.%.P M 9.y.y.y.y.y.y.",
"y.y.y.y.p.k.k.t.*.q.=.y.y.y.y.y.y.y.y.y.y.0.*.Y e.y.a.i.y.y.y.y.",
"y.y.y.y.y.p.p.i.0.E &.y.y.a.h.s.y.y.y.y.y.=.E =.y.s.k.k.p.y.y.y.",
"y.y.y.y.9.y.y.a.y.#.w.y.y.i.k.h.i.y.y.y.y.e.@.r.i.f.f.h.p.y.y.y.",
"y.y.y.y.a.y.a.f.i.y.y.y.y.y.a.i.y.y.y.y.y.y.y.y.y.i.y.i.y.y.y.y.",
"y.9.y.y.y.y.9.a.y.y.y.y.y.y.y.y.y.y.y.y.y.y.y.y.y.y.y.y.y.y.y.y.",
"y.y.y.y.y.y.y.a.y.y.y.y.y.y.y.y.y.y.y.y.y.y.y.y.y.y.y.y.y.y.y.y."
};
