/* XPM */
static char *result[] = {
/* columns rows colors chars-per-pixel */
"32 32 34 1 ",
"  c #9F744B",
". c #A0744B",
"X c #A1754B",
"o c #A1754C",
"O c #A4774D",
"+ c #A5784D",
"@ c #A7794E",
"# c #A97A4E",
"$ c #AA7B4F",
"% c #A17850",
"& c #A5805A",
"* c #AC8D69",
"= c #B39978",
"- c #B69D7D",
"; c #B4A68B",
": c #B4A78C",
"> c #B5A88C",
", c #B6A98D",
"< c #B8AB8F",
"1 c #BDAA8C",
"2 c #B9AC90",
"3 c #BAAD91",
"4 c #BBAE92",
"5 c #BFAE91",
"6 c #BCAF93",
"7 c #BDB094",
"8 c #BEB195",
"9 c #BFB296",
"0 c #C1B296",
"q c #C0B397",
"w c #C1B498",
"e c #C3B69A",
"r c #C4B79B",
"t c None",
/* pixels */
"tttttttttttttttttttttttttttttttt",
"tttttttttttttttttttttttttttttttt",
"tttttttttttttt:::::ttttttttttttt",
"tttttttttt:::6qqqq7<::tttttttttt",
"tttttttt::8rrrrrrrrrre,:tttttttt",
"ttttttt:4rrrrrrrrrrrrrre:ttttttt",
"tttttt:errr0&       -rrrr>tttttt",
"ttttt:8rrr% +$$$ $$#X 1rrr:ttttt",
"tttt;3rr0 O$$$$$ $$$$$ *rrr:tttt",
"tttt>rrr @$$$$$$ $$$$$$.-rrw:ttt",
"ttt:err%@$$$$$$$ $$$$$$$ 1rr>ttt",
"ttt>rr=o$$$$$$$$ $$$$$$$$ rre:tt",
"tt:9rr $$$$$$$$$ $$$$$$$$o-rr:tt",
"tt:rr5 $$$$$$$$$ $$$$$$$$$ rr2tt",
"tt:rr*+$$$$$$$$$ $$$$$$$$$ rrq:t",
"tt:rr $$$$$$$$$$ $$$$$$$$$ rrr:t",
"tt:rr $$$$$$$$$$ $$$$$$$$$ rrr:t",
"tt:rr $$$$$$$$$$ $$$$$$$$$ rrr:t",
"tt:rr $$$$$$$$$$ $$$$$$$$$ rrr:t",
"tt:rr $$$$$$$$$$ $$$$$$$$$ rrr:t",
"tt:rr $$$$$$$$$$ $$$$$$$$$ rrr:t",
"tt:rr $$$$$$$$$$ $$$$$$$$$ rrr:t",
"tt:rr $$$$$$$$$$ $$$$$$$$$ rrr:t",
"tt:rr $$$$$$$$$$ $$$$$$$$$ rrr:t",
"tt:rr $$$$$$$$$$ $$$$$$$$$ rrr:t",
"tt:rr $$$$$$$$$$ $$$$$$$$$ rrr:t",
"tt:rr $$$$$$$$$$ $$$$$$$$$ rrr:t",
"tt:rr $$$$$$$$$$ $$$$$$$$$ rrr:t",
"tt:rr $$$$$$$$$$ $$$$$$$$$ rrr:t",
"tt:rr $$$$$$$$$$ $$$$$$$$$ rrr:t",
"tt:rr $$$$$$$$$$ $$$$$$$$$ rrr:t",
"tt:rr                      rrr:t"
};
