/* XPM */
static char *result[] = {
/* columns rows colors chars-per-pixel */
"32 32 111 2 ",
"   c #442B17",
".  c #442C18",
"X  c #4D331D",
"o  c #533217",
"O  c #54361B",
"+  c #593719",
"@  c #57391C",
"#  c #5C3B1B",
"$  c #613E1C",
"%  c #4C3724",
"&  c #4C3827",
"*  c #4D3C2B",
"=  c #533820",
"-  c #513D2B",
";  c #4B3E31",
":  c #64411D",
">  c #68451E",
",  c #4E4136",
"<  c #434C3C",
"1  c #545E32",
"2  c #664521",
"3  c #684622",
"4  c #6C4A24",
"5  c #6E4E28",
"6  c #714E25",
"7  c #745126",
"8  c #74532B",
"9  c #78572C",
"0  c #7A592E",
"q  c #7D5B30",
"w  c #59642D",
"e  c #5E702B",
"r  c #63722B",
"t  c #424745",
"y  c #4F4A43",
"u  c #424549",
"i  c #474A4E",
"p  c #484B4E",
"a  c #534E47",
"s  c #4B5745",
"d  c #505E47",
"f  c #53514D",
"g  c #515D4B",
"h  c #474A51",
"j  c #494D51",
"k  c #4D5055",
"l  c #4E5259",
"z  c #545756",
"x  c #545F54",
"c  c #51565B",
"v  c #54595F",
"b  c #5B5E5A",
"n  c #5A6F43",
"m  c #55634D",
"M  c #5B6E4C",
"N  c #5E7545",
"B  c #5E714F",
"V  c #566350",
"C  c #596654",
"Z  c #5B6A53",
"A  c #57625A",
"S  c #5A625C",
"D  c #5D6A59",
"F  c #627C44",
"G  c #647C4A",
"H  c #606F59",
"J  c #687F54",
"K  c #565B62",
"L  c #595E65",
"P  c #5C6265",
"I  c #5D636A",
"U  c #606562",
"Y  c #646A66",
"T  c #60676C",
"R  c #646B6B",
"E  c #616770",
"W  c #646C73",
"Q  c #6B7473",
"!  c #6E7875",
"~  c #6A7278",
"^  c #6F7879",
"/  c #727C7C",
"(  c #815E31",
")  c #856234",
"_  c #71963F",
"`  c #78A23D",
"'  c #7FAD3F",
"]  c #658143",
"[  c #67804D",
"{  c #6A834D",
"}  c #6F9341",
"|  c #779D45",
" . c #6A8154",
".. c #7AA443",
"X. c #7DAA40",
"o. c #72816F",
"O. c #75807E",
"+. c #82B33E",
"@. c #8ABE3F",
"#. c #91C93F",
"$. c #83B342",
"%. c #86B940",
"&. c #89BD40",
"*. c #8DC440",
"=. c #93CD40",
"-. c #9EC44E",
";. c #96D341",
":. c #99D741",
">. c #9CDB43",
",. c #A3DE47",
"<. c #778281",
/* pixels */
">.>.>.>.>.>.>.>.,.>.>.,.#.,.>.>.>.>.>.>.>.>.>.>.>.>.>.>.>.>.>.>.",
":.:.:.:.:.:.:.:.#.,.#.>.>.>.:.:.:.:.:.:.:.;.:.:.:.:.:.:.:.>.:.:.",
"{  . . . . . . .J J J J { {  . . . . . . . . . . . . . .{ {  .{ ",
"Z v L K v v v v v v v v P v v v v v L P K v K L K K K v K P v Z ",
"' s i u u p p p k u j c c c c c c c v c c z j u k i h h t u < ` ",
"#.M K L l K K W L v I ~ W W I I P P I W W ~ P v P W K K l K [ ;.",
">.@.G L K c L K p j L I P P I R R R T U P P K p i L K v l V &.>.",
">.>.X.x I P v v k k P R ^ Q Y U b S U W ! W P k l l K P E M ;.>.",
">.>.#.F v K L E v P Q R f ; %     X X * y I ! R K I P K K M ;.>.",
">.>.;.[ L l E E I O.P , O # : $   O > # @ & b ! W E E l K G ;.>.",
">.>.>.] h l P I O.R , + 5 ( ( 4   @ ) 9 0 # % U <.R v l h } >.>.",
">.>.:...t k P ^ / < o : : : : +   O : : : : @ * Q O.P j < *.>.>.",
">.>.>.=.C W I ^ H = $ ( 7 0 ( 4   # ) 8 9 ( 2 O z O.I E C #.>.>.",
">.>.>.;.N I R O.a + 2 5 3 4 3 $   O 5 > 3 4 > # , / W P G ;.>.>.",
">.>.>.;.N K W ^ ; 2 6 6 4 6 6 2 . # 8 > 4 7 4 4 & R ^ A +.>.>.>.",
">.>.>.;.J E ~ Q - 5 8 0 5 9 0 2   # 0 9 9 0 8 9 = Y ^ A &.>.>.>.",
">.>.>.>...I ! Q , # : : : : : $ . @ > : : > : : @ R / A %.>.>.>.",
">.>.>.>...P ! Q = 7 0 ) 9 ( ) 3   $ ) 0 0 ) 9 0 X Y O.C *.>.>.>.",
">.>.>.>.X.A ! Q , $ : : # : : #   O : : : : : : = Y / C *.>.>.>.",
">.>.>.>.=.M Q ! = 6 9 ( 9 0 ( 4   # ) 9 9 0 8 9 = R / A %.>.>.>.",
">.>.>.>.>._ ! Q * : 3 4 2 4 4 #   @ 4 4 3 4 2 3 = U ^ b %.>.>.>.",
">.>.>.>.>.#.o.Q * > 4 7 4 4 7 :   # 7 4 4 7 4 4 X R / G =.>.>.>.",
">.>.>.>.#.#.o.Q * 4 8 0 8 9 0 :   # 0 8 8 0 8 8 % Y O.$.>.>.>.>.",
">.>.>.>.,.` Q Q * # : > : : > #   @ > : : > : $ @ R O.| >.>.>.>.",
">.>.>.,.-.H / Q * 5 0 ) 0 q ) 4   # ) 0 0 ) 9 0 X P / D *.>.>.>.",
">.>.#.#.{ E / ! - # : : $ $ : #   @ : $ $ : : # @ Y O.I { #.>.>.",
">.>.*.N D W / ! - 4 0 ( 8 0 ) 4   $ ) 9 0 q 9 9 % P ! c B ;.>.>.",
">.>...c L W / Q - : 2 3 2 3 3 #   @ 3 3 3 4 2 4 @ R O.I S X.>.>.",
">.#.H I L E / Q - 3 6 8 4 7 7 >   # 9 4 4 7 4 4 X Y <.W P n ;.>.",
">.' P E L l ^ Q - 4 8 0 5 8 9 :   @ 0 8 8 9 7 8 = Y <.E l m $.>.",
"' B c P I l ^ Q - o o o o o o X   o o o o o O O = Y <.W I k ] :.",
"] m d m Z d Y P 1 r r r r r r e e r r r r r r r w A W g Z m } >."
};
