/* XPM */
static char *result[] = {
/* columns rows colors chars-per-pixel */
"32 32 30 1 ",
"  c #342413",
". c #2E1E22",
"X c #282C3C",
"o c #323234",
"O c #5C2E00",
"+ c #45321D",
"@ c #563F25",
"# c #673931",
"$ c #5F4D39",
"% c #7D5939",
"& c #756554",
"* c #485262",
"= c #CB8F59",
"- c #2B4E95",
"; c #5E718E",
": c #2789CD",
"> c #42BFE8",
", c #61D5FB",
"< c #88A3BC",
"1 c #E98999",
"2 c #F6BB87",
"3 c #F6A2A8",
"4 c #F6C191",
"5 c #FBCBA0",
"6 c #FBD6B4",
"7 c gray85",
"8 c #D9D9DD",
"9 c gray95",
"0 c white",
"q c None",
/* pixels */
"qqqqqqqqqqqqqqqqqqqqqqqqqqqqqqqq",
"qqqqqqqqqqqqqq++++qqqqqqqqqqqqqq",
"qqqqqqqqqqqq++@@@@++qqqqqqqqqqqq",
"qqqqqqqqqq++@@$&$$@@+++qqqqqqqqq",
"qqqqqqqqq+@$$$&$$&&$$@@+qqqqqqqq",
"qqqqqqqq+@$$@+$&&$$$$$&@+qqqqqqq",
"qqqqqqq+@$$@+4+@$$@$$$$&$+qqqqqq",
"qqqqqqq+$$@+455+@$$@@$$$$+qqqqqq",
"qqqqqq+@$$+45555+$$$@@@$$@+qqqqq",
"qqqqqq+@$$+555666++$$$@@$@+qqqqq",
"qqqqqq+$@$+5   666   +$$@$+qqqqq",
"qqqqqq+$@$+57.86668.75+$@$+qqqqq",
"qqqqqq+@$+=59##666##95=+$$+qqqqq",
"qqqqqq+@$+=50OO626OO05=+$$+qqqqq",
"qqqqqq+@$+=43366666334+@$$+qqqqq",
"qqqqqq+@$$+=451666154=+@$@+qqqqq",
"qqqqqq+@$$@+=2411142=+@$$@+qqqqq",
"qqqqqq+@$$$@+=======+@$$@+qqqqqq",
"qqqqqq+@$$@+:,>,,,>,:+$@+qqqqqqq",
"qqqqqqq+@$@+X:,:::,:X+$@+%qqqqqq",
"qqqqqqq%+@+oXXXXXXXXX+@+5%qqqqqq",
"qqqqqq%26++:X;<*<<*;X++562%qqqqq",
"qqqqqq%65%:X**;<;;<*;X:%56%qqqqq",
"qqqqqq%52%X*;<**<*;<*;X%25%qqqqq",
"qqqqqq-%%>X*<*<;;;*;<*X>%%:-qqqq",
"qqqqqq-:>:>XXXXXXXXXXX>:>:-qqqqq",
"qqqqqq->:>:>X<;<><;<X>:-:>-qqqqq",
"qqqqqq-:>:--X;*;-;*;X--q--qqqqqq",
"qqqqqqq---qqX*;*q*;*Xqqqqqqqqqqq",
"qqqqqqqqqqqqqXXXqXXXqqqqqqqqqqqq",
"qqqqqqqqqqqqqqqqqqqqqqqqqqqqqqqq",
"qqqqqqqqqqqqqqqqqqqqqqqqqqqqqqqq"
};
