/* XPM */
static char *result[] = {
/* columns rows colors chars-per-pixel */
"32 32 29 1 ",
"  c #342413",
". c #2E1E22",
"X c #282C3C",
"o c #5C2E00",
"O c #45321D",
"+ c #563F25",
"@ c #673931",
"# c #5F4D39",
"$ c #7D5939",
"% c #756554",
"& c #485262",
"* c #CB8F59",
"= c #2B4E95",
"- c #5E718E",
"; c #2789CD",
": c #42BFE8",
"> c #61D5FB",
", c #88A3BC",
"< c #E98999",
"1 c #F6BB87",
"2 c #F6A2A8",
"3 c #F6C191",
"4 c #FBCBA0",
"5 c #FBD6B4",
"6 c gray85",
"7 c #D9D9DD",
"8 c gray95",
"9 c white",
"0 c None",
/* pixels */
"00000000000000000000000000000000",
"0000000000000OOOOOOO000000000000",
"00000000000OO++###+OOO0000000000",
"000000000OO#%#####%#++O000000000",
"00000000O+#%#######%##+O00000000",
"0000000O+##%%#####%%###+O0000000",
"000000O+++##%%##%%%####+O0000000",
"000000O+#######O########+O000000",
"00000O+##+###+OO+###++##+O000000",
"00000O+++##+OO3OO+##%+##+O000000",
"00000O####OO3333OO##%%+#++O00000",
"000000O+OO3355543O##+%%##+O00000",
"0000000O*335   53%+#++%##+O00000",
"00000000*3557.6 3O%######++O0000",
"00000000*355@@8 3O####%+##+O0000",
"00000000*155oo953O####%%+#+O0000",
"00000000*41555253++###+%%++O0000",
"000000000*41<5543O#%+##+##+O0000",
"0000000000<<3133*O##%####++O0000",
"000000000000****+O+##++++OO00000",
"0000000000==>:>:>O+++OOOOO000000",
"0000000000=;:;:;=$OOO>;=00000000",
"0000000000XXXXXXX$41$;:;=0000000",
"00000000000X,&-&-$151$;:;=000000",
"00000000000X&,&-,$154$:;:;=00000",
"000000000000X&-,-$541$;:;:;=0000",
"000000000000X-&-&$414$:;:;:;=000",
"0000000000000X-&-X$$$X;:;:;:;=00",
"0000000000000XXXXXXXX=:;:====000",
"00000000000000X&,&-X00===0000000",
"00000000000000X,&-&X000000000000",
"000000000000000XXXX0000000000000"
};
