/* XPM */
static char *result[] = {
/* columns rows colors chars-per-pixel */
"32 32 29 1 ",
"  c #342413",
". c #2E1E22",
"X c #282C3C",
"o c #5C2E00",
"O c #45321D",
"+ c #563F25",
"@ c #673931",
"# c #5F4D39",
"$ c #7D5939",
"% c #756554",
"& c #485262",
"* c #CB8F59",
"= c #2B4E95",
"- c #5E718E",
"; c #2789CD",
": c #42BFE8",
"> c #61D5FB",
", c #88A3BC",
"< c #E98999",
"1 c #F6BB87",
"2 c #F6A2A8",
"3 c #F6C191",
"4 c #FBCBA0",
"5 c #FBD6B4",
"6 c gray85",
"7 c #D9D9DD",
"8 c gray95",
"9 c white",
"0 c None",
/* pixels */
"00000000000000000000000000000000",
"0000000000000OOOOOOO000000000000",
"00000000000OOO+###++OO0000000000",
"0000000000O++#%#####%#OO00000000",
"000000000O+##%#######%#+O0000000",
"00000000O+###%%#####%%##+O000000",
"00000000O+####%%%##%%##+++O00000",
"0000000O+########O#######+O00000",
"0000000O+##++###+OO+###+##+O0000",
"0000000O+##+%##+OO3OO+##+++O0000",
"000000O++#+%%##OO3333OO####O0000",
"000000O+##%%+##O3455533OO+O00000",
"000000O+##%++#+%35   533*O000000",
"00000O++######%O3 6.7553*0000000",
"00000O+##+%####O3 8@@553*0000000",
"00000O+#+%%####O359oo551*0000000",
"00000O++%%+###++35255514*0000000",
"00000O+##+##+%#O3455<14*00000000",
"00000O++####%##O*3313<<000000000",
"000000OO++++##+O+****00000000000",
"0000000OOOOO+++O>:>:>==000000000",
"000000000=;>OOO$=;:;:;=000000000",
"00000000=;:;$14$XXXXXXX000000000",
"0000000=;:;$151$-&-&,X0000000000",
"000000=;:;:$451$,-&,&X0000000000",
"00000=;:;:;$145$-,-&X00000000000",
"0000=;:;:;:$414$&-&-X00000000000",
"000=;:;:;:;X$$$X-&-X000000000000",
"0000====:;:=XXXXXXXX000000000000",
"00000000===00X-&,&X0000000000000",
"0000000000000X&-&,X0000000000000",
"00000000000000XXXX00000000000000"
};
