/* XPM */
static char *result[] = {
/* columns rows colors chars-per-pixel */
"32 32 13 1 ",
"  c #282C3C",
". c #45321D",
"X c #563F25",
"o c #5F4D39",
"O c #756554",
"+ c #485262",
"@ c #2B4E95",
"# c #5E718E",
"$ c #2789CD",
"% c #42BFE8",
"& c #F6BB87",
"* c #FBCBA0",
"= c None",
/* pixels */
"================================",
"==============......============",
"=============.XXXXXX.===========",
"===========..OooooooO..=========",
"==========.XOooooooooOX.========",
"=========.oXOOooooooOOXo.=======",
"=========.oXXOOOooOOOXXo.=======",
"========.XooXXXooooXXXooX.======",
"========.XooooooooooooooX.======",
"========.oooXoooXooooXooo.======",
"=======.XoooXOooXOoooXOooX.=====",
"=======.XooXOoooXOoooXXOoX.=====",
"=======.oooXOoooXOooooXOoo.=====",
"======.XooXOooooXOooooXXOoX.====",
"======.XooXOooooXOoooooXOoX.====",
"======.XXXOoooooXOooooXXOoX.====",
"======.XOOoooooXXOooooXOooo.====",
"======.XXXoooooXOOooooXOoXX.====",
"=======.XXXXooXXOooXXXXXXX.=====",
"======= .XXXXXXOXXXXXXXXX.======",
"====== *@..XXXXXXXXXXXX..* =====",
"====== &@$@............$@& =====",
"===== *@$%@%$%@%$%@%$%@%$@* ====",
"===== &@%$%@%$%@%$%@%$%@%@& ====",
"=====  @$%$@$%$@$%$@$%$@$@  ====",
"======@$%$@$%$@$%$@$%$@$%$@=====",
"======@%$%@%$%@%$%@%$%@%$%@=====",
"======@$%$@$%$@$%$@$%$@$%$@=====",
"=======@@@=@@@#@@@#@@@=@@@======",
"=========== +#+ = +#+ ==========",
"============   ===   ===========",
"================================"
};