/* XPM */
static char *result[] = {
/* columns rows colors chars-per-pixel */
"32 32 32 1 ",
"  c #9CDB43",
". c #9EDC44",
"X c #A4DE48",
"o c #9DDB44",
"O c #A3DE47",
"+ c #9FDC45",
"@ c #A2DD47",
"# c #BFE957",
"$ c #C5EB5B",
"% c #ABE14B",
"& c #9DDC44",
"* c #B6E552",
"= c #A9E04A",
"- c #BDE856",
"; c #A2DE47",
": c #B8E653",
"> c #A9E04B",
", c #B0E34E",
"< c #BAE754",
"1 c #ABE14C",
"2 c #C0E958",
"3 c #BEE957",
"4 c #CAED5D",
"5 c #BEE956",
"6 c #A6DF49",
"7 c #A4DE47",
"8 c #ADE24D",
"9 c #C4EB5A",
"0 c #A2DD46",
"q c #C4EB59",
"w c #B2E44F",
"e c white",
/* pixels */
"                                ",
"                                ",
"              .XXo      .O+XX.  ",
"  .XX.        @#$%&     O*=--;  ",
"  ;--;        &%$#;     .O+XX.  ",
"  .XX.         oXX.             ",
"                                ",
"                                ",
"                        .O.     ",
"               .O&      O*O     ",
"      .O+O.    O:>&     .O.     ",
"      O:,:O    +,<O             ",
"      &><>&    O:>&             ",
"       &O&     .O&              ",
"                       &@&      ",
"      .O.             &121&     ",
"      O*O             @345;     ",
"      .O.             .X6X.     ",
"           &O.                  ",
"          &>:O                  ",
"          O:>&   .XX.           ",
"          .O&    ;--;           ",
"                 .XX.           ",
"   .O&.O.                       ",
"   O:=7*O                       ",
"   &128X.                       ",
"    79#0     .@&         &XX.   ",
"    .XX&     X#1&       &=2qX   ",
"      &O.    X9#@       O:w3X   ",
"      O*O    .XX.       .O+@.   ",
"      .O.                       ",
"                                "
};
