/* XPM */
static char *_122929ddc8e48cae75d74a747068c3eJnwpcFJaa8mYI7hU[] = {
/* columns rows colors chars-per-pixel */
"32 32 184 2 ",
"   c #621A1E",
".  c #651E23",
"X  c #6B1C22",
"o  c #6C2225",
"O  c #6F2E2A",
"+  c #702F29",
"@  c #782829",
"#  c #7B2A27",
"$  c #6D332A",
"%  c #6B3B2E",
"&  c #713229",
"*  c #703330",
"=  c #783735",
"-  c #7B3E35",
";  c #783838",
":  c #495D3A",
">  c #74412E",
",  c #6D4432",
"<  c #714735",
"1  c #7E4232",
"2  c #724D37",
"3  c #754C38",
"4  c #7E4B38",
"5  c #77523C",
"6  c #7D543A",
"7  c #7C593E",
"8  c #60613F",
"9  c #69673E",
"0  c #70603C",
"q  c #5F5F43",
"w  c #794841",
"e  c #7D5B40",
"r  c #4B7E47",
"t  c #577E47",
"y  c #597C44",
"u  c #606441",
"i  c #786843",
"p  c #617E46",
"a  c #667647",
"s  c #727143",
"d  c #7D6155",
"f  c #852C2B",
"g  c #813332",
"h  c #883A34",
"j  c #863636",
"k  c #973A35",
"l  c #854B35",
"z  c #8C4D37",
"x  c #884638",
"c  c #98463B",
"v  c #82553C",
"b  c #855B3E",
"n  c #8B5E3F",
"m  c #965C3E",
"M  c #985B3E",
"N  c #A24A3E",
"B  c #A3503E",
"V  c #8A4643",
"C  c #9D4D44",
"Z  c #815E45",
"A  c #885F49",
"S  c #875D47",
"D  c #9A5A47",
"F  c #A85749",
"G  c #B55944",
"H  c #B65743",
"J  c #A75F53",
"K  c #876646",
"L  c #8F6340",
"P  c #866E43",
"I  c #8C6B45",
"U  c #84644B",
"Y  c #896C4C",
"T  c #936546",
"R  c #9D6643",
"E  c #966F46",
"W  c #966749",
"Q  c #9B6F48",
"!  c #8E704E",
"~  c #93734E",
"^  c #9F7248",
"/  c #9B7147",
"(  c #816655",
")  c #886756",
"_  c #886759",
"`  c #916B54",
"'  c #957453",
"]  c #9A7955",
"[  c #9F7F59",
"{  c #967852",
"}  c #AC6446",
"|  c #A66C47",
" . c #A96946",
".. c #A66B49",
"X. c #A96848",
"o. c #A26141",
"O. c #B36C4A",
"+. c #B36648",
"@. c #A3734A",
"#. c #B3734B",
"$. c #B6794D",
"%. c #A1675C",
"&. c #B36656",
"*. c #8F786A",
"=. c #897466",
"-. c #987265",
";. c #927C6F",
":. c #9E7C70",
">. c #A27466",
",. c #A2766B",
"<. c #B37F6E",
"1. c #BA7463",
"2. c #A57F73",
"3. c #C5724E",
"4. c #C27D4F",
"5. c #CF7753",
"6. c #C47D51",
"7. c #CB7D54",
"8. c #D07755",
"9. c #D07854",
"0. c #4F8249",
"q. c #5D8246",
"w. c #51844A",
"e. c #5B834A",
"r. c #54894C",
"t. c #5E904B",
"y. c #63964E",
"u. c #9D8257",
"i. c #A2835A",
"p. c #AB8D5E",
"a. c #A8915F",
"s. c #A5B14F",
"d. c #9E8C7E",
"f. c #968374",
"g. c #AE8F61",
"h. c #B19462",
"j. c #BB9B6A",
"k. c #AB8676",
"l. c #AA897B",
"z. c #BA8474",
"x. c #B38B7C",
"c. c #B88876",
"v. c #B0917F",
"b. c #CD8255",
"n. c #D48857",
"m. c #D78958",
"M. c #DB8B5B",
"N. c #D38756",
"B. c #E08E5C",
"V. c #E5925E",
"C. c #EB965F",
"Z. c #C28F7E",
"A. c #EB9660",
"S. c #C3A56E",
"D. c #C6A96F",
"F. c #C8AB6F",
"G. c #C9AC71",
"H. c #D7C07D",
"J. c #DDC57F",
"K. c #AC9A8C",
"L. c #B59F8F",
"P. c #BD9784",
"I. c #B6A18F",
"U. c #BFA391",
"Y. c #B1A897",
"T. c #B0A798",
"R. c #B9AC9B",
"E. c #B7A193",
"W. c #BFB09D",
"Q. c #C0A997",
"!. c #C3B4A3",
"~. c #CEB7A5",
"^. c #CCBBAB",
"/. c #C2B6AA",
"(. c #C6C1AE",
"). c #CAC3B1",
"_. c #D7CDBB",
"`. c #D5D2BF",
"'. c #DCD9C7",
"]. c #DAD6C5",
"[. c #E1DECE",
"{. c #E6E5D3",
"}. c #EFECDD",
"|. c #FCFCF0",
/* pixels */
"G A.A.A.A.A.A.A.A.A.A.A.A.A.A.C.A.G 5.A.A.A.A.A.9.9.G G 9.G G G ",
"9.A.A.C.A.A.A.A.A.A.A.A.A.A.C.A.A.9.A.A.A.A.A.A.A.C.A.9.9.9.9.G ",
"9.A.A.A.C.C.A.A.A.A.A.A.A.A.A.A.A.9.M.T A 7.A.A.A.A.A.C.9.A.A.9.",
"9.A.A.A.A.A.C.A.C.A.A.A.A.A.A.A.C.T d.[.|.K.7.A.A.A.A.A.A.A.A.A.",
"G C.C.A.A.A.A.A.A.A.A.A.A.A.C.n.w (.'.{.}.{.f.B.A.A.A.A.A.A.A.A.",
"G 9.A.A.A.A.A.A.A.A.A.A.A.C.N.- R.U.^.[.{.'.^.R A.A.C.A.A.9.A.A.",
"9.G A.A.A.A.A.C.A.A.A.C.A.A.O k.1.P.~.`.].z.Z.l A.A.A.A.A.9.G 9.",
"A.9.9.A.A.A.A.A.A.A.C.A.A.A.& k &.k.P.W.!.c.P.h A.A.A.A.G 9.A.A.",
"A.A.8.G A.A.A.A.A.A.A.9.A.A.4.# -.F I.z.l.=.;.d.` V.A.A.9.A.A.A.",
"A.A.A.A.G G H 9.9.A.A.A.A.A.C.6.o j -.c X >.z._.'.| A.A.C.A.A.A.",
"A.A.A.A.G 5.9.b.b.b.B.A.A.A.A.A.V.M . .   C x.Q.!.| A.9.A.A.A.C.",
"A.A.C.A.8.9.../.T.>.-  .A.A...A m.A.6 2 m g J I.<...A.5.A.A.C.A.",
"A.A.A.A.5.A.*.{.^.x.%.= 4.$.L.!.( V.b < 3 % g c _ $.8.G 9.A.A.A.",
"A.A.A.9.A.$.R.!.c.R.%.+ V.X.D v.- #.] Z < G c & z 9.G G G G 9.9.",
"9.G G 9.A.#.Y.1.E.N V o.A.V.l 1 6 7 ' ~ c 9.S ( =.W A.A.A.A.A.A.",
"A.A.9.G A.O.:.F l.x 1 V.A.A.A.A.~ ' h.4 A. .f <.`.).#.A.A.A.A.A.",
"A.A.A.9.A.A.z o o % b V.C.A.A.V.a.D.5 A.A.7.= 2.L.,.#.C.A.A.A.A.",
"A.A.A.A.8.A.C.A.A.#.~ n b.V.A.m J.[ #.A.A.A.D ; j j #.A.A.A.A.A.",
"A.A.A.A.A.A.A.M.U Z v ! u.T 5.l F.7 A.C.A.A.6 3  .O.A.A.A.A.C.A.",
"A.A.A.A.A.9.A._ _.z.* } R u.L l D.7 A.A.M.R ' % U ..A.A.A.A.A.A.",
"A.A.A.A.A.9.9.d z.2.$ A.A.| { 5 j.7 A.| I p.U @ U.) A.A.A.A.A.A.",
"A.A.A.A.A.9.G $ f O 2 e K K i i.i.i.v p.Y 6 6 > j 1 C.A.A.A.A.A.",
"A.A.A.A.A.9.G F B 3.+.v b 7 ' h.S.G.] Y 6.A.A.A.n.V.A.A.A.A.A.A.",
"A.A.A.A.9.G A.A.A.A.A.9.G } , U S.H.g.u I V.A.A.A.A.A.A.A.A.A.A.",
"A.A.A.A.8.A.A.A.A.A.A.A.O.t 0.8 i.G.i.p w.a / A.C.A.A.A.A.A.A.A.",
"A.A.A.A.A.A.A.A.A.A.A.A.$.9 r : ' i.Y y r.s #.A.A.A.A.C.A.A.A.A.",
"A.A.A.5.A.A.A.C.C.A.A.A.@.e.w.t.q y q.y.r.Q A.C.A.A.C.A.A.A.A.A.",
"A.A.A.A.C.A.A.A.A.A.A.A.A.^ r.r.r y.r.p p P A.A.A.C.A.A.A.A.A.A.",
"A.A.9.A.A.A.C.A.A.C.A.C.A.B.E e.0 s q.P M.V.A.A.A.A.A.A.A.A.A.C.",
"A.9.9.A.A.A.A.A.A.A.A.A.C.A.A.@.3.G M.V.C.C.A.A.A.A.A.A.A.C.A.A.",
"5.G A.A.A.A.A.A.A.A.A.A.A.A.A.A.A.G G 9.C.A.A.A.C.A.A.A.A.A.A.9.",
"G 9.A.A.A.A.A.A.A.A.A.A.A.C.A.C.A.G G G G 9.A.A.A.A.A.A.A.A.9.s."
};
