/* XPM */
static char *b6df7e4a461a4718c352122f7c67a71dGbgcNyOLE0m0Bq9R[] = {
/* columns rows colors chars-per-pixel */
"32 32 238 2 ",
"   c #561C0C",
".  c #6B1C12",
"X  c #52291B",
"o  c #4D3809",
"O  c #672818",
"+  c #792A18",
"@  c #693519",
"#  c #78341E",
"$  c #75230E",
"%  c #5B3028",
"&  c #792C22",
"*  c #693926",
"=  c #743323",
"-  c #793A27",
";  c #652C21",
":  c #4A5014",
">  c #664D19",
",  c #715114",
"<  c #53601A",
"1  c #75442B",
"2  c #6F4A3C",
"3  c #6C6D27",
"4  c #5F4840",
"5  c #69554F",
"6  c #6B585A",
"7  c #6E4C4B",
"8  c #7E644C",
"9  c #776858",
"0  c #797877",
"q  c #7C7569",
"w  c #83331C",
"e  c #833727",
"r  c #923D33",
"t  c #9D3E38",
"y  c #953F2E",
"u  c #8A462A",
"i  c #924529",
"p  c #8B4634",
"a  c #9A4738",
"s  c #975636",
"d  c #855E3D",
"f  c #B65A2E",
"g  c #A74937",
"h  c #A95737",
"j  c #B55A35",
"k  c #AB4B33",
"l  c #8D7236",
"z  c #B3623C",
"x  c #B8643B",
"c  c #AA622F",
"v  c #C9753E",
"b  c #8D574F",
"n  c #A54C42",
"m  c #B74E46",
"M  c #A45342",
"N  c #AA5847",
"B  c #B55946",
"V  c #B45D54",
"C  c #866249",
"Z  c #866857",
"A  c #8B755A",
"S  c #9B7152",
"D  c #AA664D",
"F  c #B66246",
"G  c #BF7747",
"H  c #AC6A54",
"J  c #BC6655",
"K  c #B77759",
"L  c #A57149",
"P  c #827869",
"I  c #8F776A",
"U  c #BA7562",
"Y  c #C5724C",
"T  c #CC7A4B",
"R  c #CA7645",
"E  c #D27A4D",
"W  c #D4754C",
"Q  c #C57B54",
"!  c #CA7B55",
"~  c #D37B56",
"^  c #CA6F4E",
"/  c #C47C63",
"(  c #D77761",
")  c #73803A",
"_  c #778B46",
"`  c #7F8679",
"'  c #9B9C54",
"]  c #848B45",
"[  c #B98658",
"{  c #AE8B50",
"}  c #ADA155",
"|  c #858678",
" . c #978975",
".. c #9B8E70",
"X. c #A98A6F",
"o. c #A5846D",
"O. c #B98967",
"+. c #B99C79",
"@. c #AE8C70",
"#. c #9FA366",
"$. c #A6A877",
"%. c #B5A96C",
"&. c #C38357",
"*. c #D5875D",
"=. c #C79857",
"-. c #DD955C",
";. c #C0814E",
":. c #E58D5B",
">. c #E88C58",
",. c #E69455",
"<. c #E5935C",
"1. c #EB945D",
"2. c #E5995B",
"3. c #EA995C",
"4. c #EA9457",
"5. c #F0955C",
"6. c #F59658",
"7. c #F28E5D",
"8. c #C6A45F",
"9. c #DAA15A",
"0. c #CA8765",
"q. c #D68B65",
"w. c #CA9564",
"e. c #DD9463",
"r. c #DC946B",
"t. c #D99B6E",
"y. c #D69867",
"u. c #CD8E73",
"i. c #D68B73",
"p. c #C89F7E",
"a. c #DD9573",
"s. c #DD9C75",
"d. c #D59B79",
"f. c #E58C64",
"g. c #EB8D64",
"h. c #E68B67",
"j. c #F28D64",
"k. c #F28D6B",
"l. c #E49463",
"z. c #EB9563",
"x. c #E29A65",
"c. c #EB9963",
"v. c #E4926B",
"b. c #EC956B",
"n. c #E6996B",
"m. c #EB9A6B",
"M. c #F29564",
"N. c #F29B64",
"B. c #F3936B",
"V. c #F49B6C",
"C. c #F89569",
"Z. c #E78E74",
"A. c #E49573",
"S. c #EC9472",
"D. c #E29872",
"F. c #EB9A73",
"G. c #F39A76",
"H. c #DBA169",
"J. c #D8A379",
"K. c #CAA174",
"L. c #EEA065",
"P. c #EAA36E",
"I. c #798381",
"U. c #6F9099",
"Y. c #6E99AF",
"T. c #719BB0",
"R. c #7AA2B5",
"E. c #639FC4",
"W. c #6AA2C5",
"Q. c #68A6D2",
"!. c #7CAFDC",
"~. c #878E85",
"^. c #8C8D95",
"/. c #89969B",
"(. c #919284",
"). c #B79D81",
"_. c #AF9D87",
"`. c #B9A68A",
"'. c #B4BA85",
"]. c #B9A792",
"[. c #AFA88C",
"{. c #959AAA",
"}. c #87A2AB",
"|. c #96ABBE",
" X c #97ADAC",
".X c #A0AEB7",
"XX c #CC9E87",
"oX c #E99885",
"OX c #C3A483",
"+X c #C8A689",
"@X c #C8B887",
"#X c #CBA794",
"$X c #C3B49D",
"%X c #D8B696",
"&X c #D6AB8F",
"*X c #E4A98D",
"=X c #E7BA89",
"-X c #E7AB95",
";X c #E8B89A",
":X c #C8B6A2",
">X c #D8B3A0",
",X c #F5BFA3",
"<X c #D8CE9D",
"1X c #E8C89A",
"2X c #E9D29C",
"3X c #D9C7A7",
"4X c #DBD6AB",
"5X c #E4CCA4",
"6X c #E8CAAB",
"7X c #F9C8AA",
"8X c #E6D3A5",
"9X c #E5D3AD",
"0X c #EBD3AC",
"qX c #EEDAAC",
"wX c #E8D7A3",
"eX c #F2D4AD",
"rX c #F2DDAE",
"tX c #F9D6AE",
"yX c #E6CFB5",
"uX c #EDD3B3",
"iX c #EED9B3",
"pX c #E9D4BA",
"aX c #FFD3B3",
"sX c #F3DDB3",
"dX c #F5DDBB",
"fX c #F9D8B6",
"gX c #F2CFB1",
"hX c #F6E2B5",
"jX c #FEE4BB",
"kX c #FAE5B9",
"lX c #F2E0AE",
"zX c #94B6CF",
"xX c #86BDE4",
"cX c #AFCAD1",
"vX c #E6D9C3",
"bX c #F9DDC5",
"nX c #FEE3C3",
"mX c #F8EAC3",
/* pixels */
"f c.:.m.<.z.V.>.1.V.:.c.1.<.c.2.2.c T m.g.b.j.B.E T j h ( B B N ",
"T z.c.z.z.<.c.N.z.z.z.z.z.c.x.-.-.R m.b.h.B.M.z.z.b.m.~ ! ~ Y F ",
"~ l.z.z.M.1.<.<.f.B.k.h.b.F.e.y.a.Q h.z.N.1.z.c.z.1.<.1.R -.V.W ",
"Y F.l.c.1.5.<.v j j k k ! a.Q i w F v.l.c.3.,.3.1.c.1.4.2.L.1.7.",
"F v.b.z.,.3.>.f k g a e H D $ g m + u t.e.x.c.<.<.1.z.<.c.:.M.M.",
"z Y V.z.1.c.:.j k y & - - = g B m N - s &.P.-.c.c.c.:.V.C.W b.l.",
"Y x f.z.b.b.f.h i O O   & V N N a./ M e @ L s.e.z.M.M.g.g.W z ! ",
"z.T E b.g.S.Z.a # O   - M n K ,XjX7X/ M p # s r.v.z.B.C.f E n.e.",
"1.z.T z S.Z.oXp     r N a 0.aXjXjXjXaXO.h a $ s a.n.z.M.v 4.N.<.",
"5.>.m.r.F N M = O p n n u.7XnXjXkXsXeXaXi.g a # u ! n.<.2.3.,.N.",
",.L.z.A.h U - . a g D d.jXmXrXsXqXkXhXtXaX*XM r e + q.Q x.<.5.4.",
"3.2.l.A.D e & n t J *XjXjXlXsXsXqXrXeXeXtXaX-XV r + u N r.n.N.4.",
"c.<.l.v.u + a a K ;XnXjXqXqXhXrXqXhX6XqX0XgXfX-XH p e . J A.z.z.",
"z.b.l.*.0.i s u.aXjXkXsXhXhXqXqXrX8XdXsX6XuX0XaX7XU + M B j Y E ",
"W j j T v.0.J.tXjXhXdXdXdXsXsXsXsXsXiXiXiXuX0XgXaXJ.&.*.m.m.z.z.",
"B.C.W j n.t.1XjXsXhXdXdXdXiXuXfXfXdXpXvXvXyXvX9XiX=Xt.n.c.<.M.z.",
"<.c.z.R m.t.1XjX%XS A A A A o.#X6X..~././.^.(...$X+X/ v.M.1.1.c.",
"3.1.f.b.T t.1XnX+X2 q 0 P 9 Z +X6X .}.zXzX|. X| ].OXK S.z.1.1.z.",
"M.M.b.F.q.t.1XjX+X5 .XcXcX~.Z `.6X| R.xX!.zX|.` [.OXK F.z.1.c.z.",
"M.z.S.v.F.w.1XkX#X5 |.zXzXI.9 ).yX~.Y.Q.Q.W.}.| [.OXK n.z.1.c.z.",
"5.1.v.n.e.[ 1XmX#X7 ^.{.{.0 P _.3X` U.W.E.Y.U.` `.p.K l.1.1.c.l.",
"4.3.l.m.b.[ <XmX#X2 6 6 6 4 9 ].yX| U.R.Y.T./.| ].p.&.l.1.3.c.l.",
",.3.5.7.M.G ;XbXXX1 * * * 1 8 `.6X .| I.0 0 I A >X&Xq.<.5.5.z.b.",
"2.,.5.M.R c 6XnXXX1 @ - u L Z +.iX%X:X$X:X:X#X#X6X%XJ.-.3.4.l.n.",
"3.3.c.l.[ K.1XnXp.- = = - 1 C +.qXiXuXpXuXuXuXpXiX@X%.8.9.-.b.S.",
"1.l.e.y.8.} @XkXOX* ; = * @ d +.0X9X5X5X0X0X6X3X4X$.' } =.H.l.b.",
"b.e.H.{ ' ) '.mX`.% % % X X C ).uX9X9X9X9X5X5X8X<X$._ ] l H.z.1.",
"V.F.w.l 3 < '.4X$.8 Z Z C C I ).uXuXuX5X8X8X2X2XwX#.: : l y.1.6.",
"f.n.;.[ , > +.`.....X.X.X.X.o.o.XX-X7X;X=X=X=X=X=X{ o > [ x.>.6.",
"G.Y ! y.=.w.J.O.O.O.O.[ O.O.O.O.U H i.a.d.y.r.e.e.y.w.d.s.e.N.6.",
"W f m.l.L.c.v.F.v.b.l.e.x.x.D.s.D.h z ! r.a.F.b.V.<.x.e.e.n.x.G ",
"j E l.<.1.5.j.k.j.j.1.c.4.<.m.v.F.h j j z Q b.b.j.5.N.<.m.l.;.y."
};
