/* XPM */
static char *result[] = {
/* columns rows colors chars-per-pixel */
"32 32 177 2 ",
"   c #9CDB43",
".  c #9CDA44",
"X  c #9BD846",
"o  c #9BD747",
"O  c #9AD746",
"+  c #98CA55",
"@  c #92B56A",
"#  c #8FAF6F",
"$  c #8FAF70",
"%  c #90B06E",
"&  c #94B966",
"*  c #99CB54",
"=  c #9AD747",
"-  c #9BD845",
";  c #95C45A",
":  c #8BAD70",
">  c #88A972",
",  c #89A47F",
"<  c #8B9C91",
"1  c #8B9A97",
"2  c #8B9A95",
"3  c #8A9D8C",
"4  c #89A47D",
"5  c #88A973",
"6  c #8CB16C",
"7  c #98C758",
"8  c #9EDB44",
"9  c #A3DE47",
"0  c #9FDC45",
"q  c #A4DE48",
"w  c #9EDC44",
"e  c #9BD945",
"r  c #96C559",
"t  c #8DAF6D",
"y  c #89A283",
"u  c #8A9998",
"i  c #8A9A9C",
"p  c #8D9C9F",
"a  c #91A0A2",
"s  c #92A1A4",
"d  c #92A1A3",
"f  c #8F9FA1",
"g  c #8C9C9E",
"h  c #899A94",
"j  c #88A17F",
"k  c #8DB567",
"l  c #A0D450",
"z  c #B5E453",
"x  c #A9E04B",
"c  c #BDE856",
"v  c #A2DE47",
"b  c #A1DB49",
"n  c #90BF5D",
"m  c #88A180",
"M  c #899995",
"N  c #8D9D9F",
"B  c #93A2A4",
"V  c #94A3A5",
"C  c #94A2A4",
"Z  c #8B9B9D",
"A  c #899D90",
"S  c #8DAD73",
"D  c #9CC45F",
"F  c #9FD849",
"G  c #A4DC4A",
"H  c #92C05E",
"J  c #89A286",
"K  c #8C9B9D",
"L  c #92A0A2",
"P  c #838E8F",
"I  c #707778",
"U  c #6C7273",
"Y  c #6B7273",
"T  c #747C7D",
"R  c #889495",
"E  c #93A2A3",
"W  c #95A4A6",
"Q  c #899A96",
"!  c #89A17E",
"~  c #95BF5F",
"^  c #869F84",
"/  c #8D9C9E",
"(  c #818C8E",
")  c #6D7475",
"_  c #5F6364",
"`  c #515151",
"'  c gray30",
"]  c #535555",
"[  c #636868",
"{  c #757E7F",
"}  c #8C999B",
"|  c #899A97",
" . c #96C35C",
".. c #9CD846",
"X. c #9CD945",
"o. c #94C15B",
"O. c #869F81",
"+. c #89999B",
"@. c #93A1A3",
"#. c #7F898A",
"$. c #5F6263",
"%. c #4E4F4F",
"&. c #555657",
"*. c #6B7172",
"=. c #818C8D",
"-. c #8BA877",
";. c #99CF4E",
":. c #9CDB44",
">. c #9ACF50",
",. c #8AA776",
"<. c #889797",
"1. c #5D6060",
"2. c #505151",
"3. c #65696A",
"4. c #869293",
"5. c #91A1A3",
"6. c #889C91",
"7. c #8DB36A",
"8. c #99D449",
"9. c #90B865",
"0. c #889C8C",
"q. c #535454",
"w. c #8B989A",
"e. c #839A86",
"r. c #94C15D",
"t. c #9AD14D",
"y. c #87A676",
"u. c #676D6E",
"i. c #545656",
"p. c #72797B",
"a. c #919FA1",
"s. c #889995",
"d. c #8BA876",
"f. c #99D24C",
"g. c #9CDC42",
"h. c #92BC62",
"j. c #879D88",
"k. c #8E9EA0",
"l. c #94A3A4",
"z. c #788082",
"x. c #575959",
"c. c #5B5E5E",
"v. c #859092",
"b. c #8F9EA1",
"n. c #849D82",
"m. c #97CF4E",
"M. c #8AAA72",
"N. c #899999",
"B. c #6A7071",
"V. c #525354",
"C. c #6E7475",
"Z. c #909E9F",
"A. c #91A0A3",
"S. c #869B89",
"D. c #94C05D",
"F. c #9AD647",
"G. c #87A973",
"H. c #8B9A9D",
"J. c #859192",
"K. c #616566",
"L. c #4D4C4C",
"P. c #5D6161",
"I. c #8D9A9C",
"U. c #8A9A96",
"Y. c #8FAA76",
"T. c #99D04D",
"R. c #545556",
"E. c #4C4C4C",
"W. c #8C9A9B",
"Q. c #8E9D9E",
"!. c #89A081",
"~. c #97CD50",
"^. c #96A5A7",
"/. c #909FA2",
"(. c #849D83",
"). c #95CC51",
"_. c white",
/* pixels */
"                        . X o o o o X .                         ",
"                  . X O + @ # $ $ % & * = - .                   ",
"              . X ; : > , < 1 1 1 2 3 4 5 6 7 o 8 9 0 q q w     ",
"    w q q w e r t y u i p a s s s d f g i h j k l z x c c v     ",
"    v c c b n m M N B V B B B B B B B C V d Z A S D F q q w     ",
"    w q G H J K d V L P I U Y Y Y Y Y T R E W d Q ! ~ o         ",
"      e n ^ / W V ( ) _ ` ' ' ' ' ' ' ] [ { } V s | !  ...      ",
"    X.o.O.+.B @.#.$.%.' ' ' ' ' ' ' ' ' ' &.*.=.@.s Q -.;.      ",
"  :.>.,.<.d V #.1.' ' ' ' ' ' ' ' ' ' ' ' ' 2.3.4.V 5.6.7.8.    ",
"  e 9.0.f V ( $.' ' ' ' ' ' ' ' ' ' ' ' ' ' ' q.U w.V N e.r...  ",
"  t.y.i V w.u.%.' ' ' ' ' ' ' ' ' ' ' ' ' ' ' ' i.p.a.s s.d.f.g.",
"e h.j.k.l.z.x.' ' ' ' ' ' ' ' ' ' ' ' ' ' ' ' ' ' c.v.V b.n.m.g.",
"= M.N.B a.B.' ' ' ' ' ' ' ' ' ' ' ' ' ' ' ' ' ' ' V.C.Z.A.S.D.o ",
"F.G.H.V J.K.' ' ' ' ' ' ' ' ' ' ' ' ' ' ' ' ' ' ' L.P.I.B U.Y.T.",
"F.G.H.B T R.' ' ' ' ' ' ' ' ' ' ' ' ' ' ' ' ' ' ' E.1.W.W Q.!.~.",
"F.G.H.@.*.' ' ' ' ' ' ' ' ' ' ' ' ' ' ' ' ' ' ' ' E.1.W.^./.(.).",
"F.G.H.@.B.' ' ' ' ' ' ' ' ' ' ' ' ' ' ' ' ' ' ' ' E.1.W.^./.(.).",
"F.G.H.@.B.' ' ' ' ' ' ' ' ' ' ' ' ' ' ' ' ' ' ' ' E.1.W.^./.(.).",
"F.G.H.@.B.' ' ' ' ' ' ' ' ' ' ' ' ' ' ' ' ' ' ' ' E.1.W.^./.(.).",
"F.G.H.@.B.' ' ' ' ' ' ' ' ' ' ' ' ' ' ' ' ' ' ' ' E.1.W.^./.(.).",
"F.G.H.@.B.' ' ' ' ' ' ' ' ' ' ' ' ' ' ' ' ' ' ' ' E.1.W.^./.(.).",
"F.G.H.@.B.' ' ' ' ' ' ' ' ' ' ' ' ' ' ' ' ' ' ' ' E.1.W.^./.(.).",
"F.G.H.@.B.' ' ' ' ' ' ' ' ' ' ' ' ' ' ' ' ' ' ' ' E.1.W.^./.(.).",
"F.G.H.@.B.' ' ' ' ' ' ' ' ' ' ' ' ' ' ' ' ' ' ' ' E.1.W.^./.(.).",
"F.G.H.@.B.' ' ' ' ' ' ' ' ' ' ' ' ' ' ' ' ' ' ' ' E.1.W.^./.(.).",
"F.G.H.@.B.' ' ' ' ' ' ' ' ' ' ' ' ' ' ' ' ' ' ' ' E.1.W.^./.(.).",
"F.G.H.@.B.' ' ' ' ' ' ' ' ' ' ' ' ' ' ' ' ' ' ' ' E.1.W.^./.(.).",
"F.G.H.@.B.' ' ' ' ' ' ' ' ' ' ' ' ' ' ' ' ' ' ' ' E.1.W.^./.(.).",
"F.G.H.@.B.' ' ' ' ' ' ' ' ' ' ' ' ' ' ' ' ' ' ' ' E.1.W.^./.(.).",
"F.G.H.@.B.' ' ' ' ' ' ' ' ' ' ' ' ' ' ' ' ' ' ' ' E.1.W.^./.(.).",
"F.G.H.@.B.' ' ' ' ' ' ' ' ' ' ' ' ' ' ' ' ' ' ' ' E.1.W.^./.(.).",
"F.G.H.@.B.' ' ' ' ' ' ' ' ' ' ' ' ' ' ' ' ' ' ' ' E.1.W.^./.(.)."
};
