/* XPM */
static char *c5681d6be16e4a26e26bbdbacbdae9dakIOaB6U4Z4gqTSp3[] = {
/* columns rows colors chars-per-pixel */
"32 32 196 2 ",
"   c #241417",
".  c #231218",
"X  c #241319",
"o  c #261319",
"O  c #24131B",
"+  c #231419",
"@  c #25141A",
"#  c #27141A",
"$  c #27131C",
"%  c #28131A",
"&  c #2A1719",
"*  c #2B161B",
"=  c #2C1619",
"-  c #28171D",
";  c #29151E",
":  c #2C171C",
">  c #2C171E",
",  c #25191D",
"<  c #2F1B1C",
"1  c #2E191E",
"2  c #311D1C",
"3  c #351C1F",
"4  c #351C20",
"5  c #371E21",
"6  c #311E24",
"7  c #381E21",
"8  c #361F31",
"9  c #272C25",
"0  c #3C2221",
"q  c #3D2521",
"w  c #3A2729",
"e  c #34282C",
"r  c #3B2B2C",
"t  c #38292E",
"y  c #28382B",
"u  c #3A2337",
"i  c #3D253D",
"p  c #3F3430",
"a  c #431F1F",
"s  c #402421",
"d  c #432723",
"f  c #462A26",
"g  c #4B2A23",
"h  c #492C24",
"j  c #462329",
"k  c #543228",
"l  c #553329",
"z  c #5B332B",
"x  c #5E362C",
"c  c #43383C",
"v  c #50393F",
"b  c #523C3F",
"n  c #633C2D",
"m  c #653E2F",
"M  c #70373D",
"N  c #73383E",
"B  c #294932",
"V  c #2C5A36",
"C  c #2A5939",
"Z  c #2B5A38",
"A  c #295A3A",
"S  c #2B5A3A",
"D  c #2C593A",
"F  c #335A3B",
"G  c #375A3A",
"H  c #57463E",
"J  c #67422F",
"K  c #714031",
"L  c #7F4F38",
"P  c #7E5036",
"I  c #7E5038",
"U  c #79533E",
"Y  c #53613E",
"T  c #513A40",
"R  c #503B40",
"E  c #553C40",
"W  c #573E42",
"Q  c #7A3B43",
"!  c #3B6041",
"~  c #3D6243",
"^  c #5D4344",
"/  c #5E4B45",
"(  c #4A5640",
")  c #525542",
"_  c #544A52",
"`  c #555354",
"'  c #5F5D5E",
"]  c #5F5F5F",
"[  c #6F5147",
"{  c #7D504B",
"}  c #6E5B57",
"|  c #566141",
" . c #5E6E53",
".. c #626F55",
"X. c #75605B",
"o. c #796658",
"O. c #627056",
"+. c #6E735C",
"@. c #71735B",
"#. c #5F6160",
"$. c #606060",
"%. c #864C38",
"&. c #87553A",
"*. c #A04F3C",
"=. c #803F45",
"-. c #8B4E4D",
";. c #9B4C4F",
":. c #835A46",
">. c #9C4B51",
",. c #9B4C51",
"<. c #994C52",
"1. c #9C4D52",
"2. c #845E51",
"3. c #9B5054",
"4. c #B55942",
"5. c #B45843",
"6. c #B45944",
"7. c #B55944",
"8. c #B75844",
"9. c #B65A45",
"0. c #B55846",
"q. c #9C6143",
"w. c #9D6242",
"e. c #896253",
"r. c #9A6D58",
"t. c #A06543",
"y. c #AE6447",
"u. c #AE6E48",
"i. c #BD6D4C",
"p. c #B5744A",
"a. c #B4754A",
"s. c #BF714B",
"d. c #BF714D",
"f. c #BB784E",
"g. c #BC794E",
"h. c #BE794F",
"j. c #A97A5C",
"k. c #AC7A5F",
"l. c #BF7A50",
"z. c #837062",
"x. c #847162",
"c. c #887362",
"v. c #897665",
"b. c #857D66",
"n. c #887D67",
"m. c #8F7A69",
"M. c #927469",
"N. c #9A7A6B",
"B. c #CF7753",
"V. c #CF7654",
"C. c #C47D51",
"Z. c #C87D53",
"A. c #D17754",
"S. c #D07755",
"D. c #D07852",
"F. c #D07854",
"G. c #D17955",
"H. c #D27855",
"J. c #B5805E",
"K. c #A5B14F",
"L. c #92826B",
"P. c #90816C",
"I. c #91826D",
"U. c #96816E",
"Y. c #95836F",
"T. c #99846F",
"R. c #9A866E",
"E. c #968470",
"W. c #9A8570",
"Q. c #9B8671",
"!. c #9D8770",
"~. c #BF8965",
"^. c #A18971",
"/. c #E08E5C",
"(. c #E28F5D",
"). c #E3915F",
"_. c #E4915F",
"`. c #E5925E",
"'. c #EA955E",
"]. c #EA955F",
"[. c #EB965F",
"{. c #EC955F",
"}. c #CD9268",
"|. c #CF9468",
" X c #D0956B",
".X c #DC9E6F",
"XX c #E99660",
"oX c #EB9660",
"OX c #EB9562",
"+X c #EC9560",
"@X c #EC9760",
"#X c #EC9761",
"$X c #EC9462",
"%X c #E1A26F",
"&X c #E1A171",
"*X c #E2A370",
/* pixels */
"7.+XoXoXoXoXoXoXoX[.oXoXoXoXoXoXoX7.D.oXoX[.oXoXF.F.7.7.D.4.4.7.",
"F.oX+X[.oXoXoXoXoXoXoXoXoX[.oXoX+XF.oXoXoXoX+X+XoX[.oXF.F.F.F.7.",
"F.oXoXoX[.[.oXoXoX[.oX+X+XoX/.f h g oXoXoXoXoXoX+XoXoX[.F.oXoXF.",
"F.oXoXoXoXoX[.oXoXoXoX+XoXoX1 T v v 1 oX[.oXoXoXoXoXoXoXoXoXoXoX",
"7.{.[.oXoXoXoXoXoXoXoXoXoX# T T b E & oXoXoXoXoXoXoXoXoX+XoXoXoX",
"7.F.oXoXoXoXoX+XoXoXoXoXp.6 T 2.&X&X$ oXoXoXoXoXoXoX[.oXoXF.oXoX",
"F.7.oXoXoXoXoX[.oXoXoX[.3 T E ~.r.e.X oXoXoXoX[.oXoXoXoXoXF.7.F.",
"oXF.F.oXoXoXoXoXoX[.oXoXq T ^ k.T  X& +XoXoXoXoXoXoXoXoX7.F.oXoX",
"oXoXF.7.oXoXoXoXoX[.oXK X T.^.j.v .XY.l [.oXoXoXoXoXoX+XS.oX[.oX",
"oXoXoXoX7.7.7.F.F.oXu.y S S n.L.W.W.b.B w.oXoXoXoXoXoXoXoXoXoXoX",
"oXoXoXoX7.F.F.oXoXoX, S D S S ~ O...S H t.oXoXoX[.oXoXF.oXoXoX[.",
"[.oXoXoXF.D.oXoXoXd v. .S S D S S S V =.w.+XoXoXoXoXoXF.oXoXoX[.",
"oXoXoXoXF.oX[.[.oX+ W.W.w S S S S S 1.Q %.oXoXoX[.oXF.7.S.[.+XoX",
"oXoXoXS.+XoXoXoX2 &X!./ Z.. S S S F ,.a 7.7.7.F.D.F.7.4.7.7.F.D.",
"F.7.7.F.oXoXoX[.& %X|.I [.X S G ) ,.[ z *.F.[.oXoXoXoXoXoXoXoXoX",
"oX+XF.7.oXoXoXoX: %X}.I oXX { -.,.( S i.n /.oXoX[.oXoXoXoXoXoXoX",
"oXoXoXF.oXoXoXoX3 &X&X:.C.% ;.[ S S S | s.7 oXoXoXoXoXoXoXoXoXoX",
"oX[.oXoXF.oX+XoX+XX &X:.X S S S S S S Y d.7 oXoXoXoXoXoXoXoXoXoX",
"oXoXoXoX[.oXoXoXoXl J.U # S S S S S S S 9 /.oXoXoXoXoXoXoXoXoXoX",
"oXoXoXoXoXS.oXoXoXoXw.y.3 @.+.S S S S ! p `.[.oXoXoXoXoXoXoXoXoX",
"oX[.oXoXoXF.F.oXoXoXoXoXd 3.W.E.Y.P.P.z.v 4 oX[.oXoXoXoXoXoXoXoX",
"oXoXoXoXoXF.7.F.F.F.V.+Xd >.,.>.j $ # T T - oXoXoXoXoXoXoXoXoXoX",
"oXoXoXoXoXS.7.7.7.F.F.[.0 ,.,.M p.oX# T T - oXoXoXoXoXoXoXoXoXoX",
"oX[.oXoXF.7.+X+XoX+XoXF.= ,.,.N h.+X  T T # oXoXoXoXoXoXoXoXoXoX",
"oXoXoXoXS.oXoXoX+XoX[.&.o.N.M.m oXoXl.t ] ` d oX{.oXoXoXoXoXoX+X",
"oXoXoXoXoXoXoXoXoXoXoXI x.T.m.J oXoX).e ] $.# oXoXoXoX[.oXoXoXoX",
"oXoX+XB.oXoX+X[.oXoXoXL c.W.c.x oX{.`.t $.#.X oXoXoX[.+X+XoXoXoX",
"oXoXoXoX[.oXoXoX+XoXoXP } X.& F.oXoX+Xh.c _ X oXoX[.oXoXoXoXoXoX",
"oXoXF.oXoXoX[.oXoXoXoXI u i : oXF.oXoXf.8 i X oXoXoX+XoXoXoXoX[.",
"oXF.F.oXoXoXoXoXoXoXoXI X # 4 oXF.7.oXu.X X # [.oXoXoXoXoX[.oXoX",
"B.7.oXoXoXoXoXoXoXoXoXoX+XoX[.oXoX7.7.F.oXoXoXoX[.oXoXoXoXoX+XF.",
"7.F.oXoXoXoXoXoXoXoXoXoXoXoX+XoXoX7.4.7.7.F.oXoX+XoXoXoXoXoXF.K."
};
