/* XPM */
static char *result[] = {
/* columns rows colors chars-per-pixel */
"32 32 129 2 ",
"   c #4C5719",
".  c #4F5B1B",
"X  c #515B1A",
"o  c #5D5B19",
"O  c #63510F",
"+  c #6D550E",
"@  c #71590F",
"#  c #6B5613",
"$  c #645C16",
"%  c #6E5914",
"&  c #605F1B",
"*  c #705C15",
"=  c #7B5C14",
"-  c #4C631E",
";  c #56631D",
":  c #58661D",
">  c #54691E",
",  c #64611E",
"<  c #68651C",
"1  c #6D6F1B",
"2  c #756116",
"3  c #6E731C",
"4  c #7F7319",
"5  c #5A6D21",
"6  c #527122",
"7  c #577925",
"8  c #597C26",
"9  c #716B26",
"0  c #667220",
"q  c #6F7D2C",
"w  c #727226",
"e  c #7D7923",
"r  c #74722B",
"t  c #7D762D",
"y  c #816416",
"u  c #866A16",
"i  c #84721C",
"p  c #88771E",
"a  c #917619",
"s  c #927A1D",
"d  c #A3700E",
"f  c #AC7710",
"g  c #807F27",
"h  c #6D8323",
"j  c #6A852F",
"k  c #658B2B",
"l  c #6C8E2F",
"z  c #728C27",
"x  c #6B952E",
"c  c #6E9B2F",
"v  c #729129",
"b  c #719C2F",
"n  c #7B8533",
"m  c #768B35",
"M  c #6F9B30",
"N  c #74A332",
"B  c #7BAC35",
"V  c #9A831F",
"C  c #BB8411",
"Z  c #BD8718",
"A  c #8E8223",
"S  c #828128",
"D  c #998423",
"F  c #818635",
"G  c #A99625",
"H  c #86BB3A",
"J  c #8ABE3A",
"K  c #B3A23E",
"L  c #C18A18",
"P  c #C3921B",
"I  c #D19F1F",
"U  c #CAAD2F",
"Y  c #D5A522",
"T  c #DFAC22",
"R  c #D8B42D",
"E  c #DABD32",
"W  c #E0AE22",
"Q  c #E3B526",
"!  c #E4B528",
"~  c #E5BA2A",
"^  c #E8BD2A",
"/  c #8BC33C",
"(  c #8FC93E",
")  c #93CD3F",
"_  c #94D03F",
"`  c #DCC133",
"'  c #E7C02D",
"]  c #EAC42D",
"[  c #EDC92E",
"{  c #FDC62B",
"}  c #FFCF2E",
"|  c #E5CA3B",
" . c #E7D23C",
".. c #EFD53C",
"X. c #F5D333",
"o. c #FED432",
"O. c #F5D937",
"+. c #FFDC35",
"@. c #F4DC39",
"#. c #FADE3C",
"$. c #FFE137",
"%. c #F6E13C",
"&. c #FFE53A",
"*. c #FFEA3E",
"=. c #BDAC41",
"-. c #9AC045",
";. c #9ACF42",
":. c #96D341",
">. c #99D742",
",. c #9CDB43",
"<. c #A3DE47",
"1. c #A4DE48",
"2. c #B3D850",
"3. c #A5E048",
"4. c #ABE14B",
"5. c #B2E44F",
"6. c #B6E552",
"7. c #B8E653",
"8. c #BEE957",
"9. c #C3EA5A",
"0. c #FBE740",
"q. c #FFED41",
"w. c #FFF145",
"e. c #FFF44B",
"r. c #FFF94C",
"t. c #FFF253",
"y. c #FFFB52",
"u. c #FFFC5B",
"i. c #FFFB6C",
/* pixels */
",.,.,.,.,.,.,.,.,.,.,.,.,.,.,.,.,.,.,.,.,.,.,.,.,.,.,.,.,.,.,.,.",
",.,.,.,.,.,.,.,.,.,.,.,.,.,.,.,.,.,.,.,.,.,.,.,.,.,.,.,.,.,.,.,.",
",.,.,.,.,.,.,.,.,.,.,.,.,.,.,.<.<.,.,.,.,.,.,.,.,.,.,.3.1.,.,.,.",
",.,.,.1.1.,.,.,.,.,.,.,.,.,.<.8.9.4.,.,.,.,.,.,.3.6.4.8.8.<.,.,.",
",.,.<.8.8.<.,.,.,.,.,.,.,.,.,.4.9.9.3.,.,.,.,.,.,.1.,.1.1.,.,.,.",
",.,.,.<.1.,.,.,.,.,.,.,.,.<.,.,.1.3.,.,.,.,.,.,.,.,.,.,.,.,.,.,.",
",.,.,.,.,.,.,.,.,.,.,._ ( / J J J J / ( :.,.,.,.,.,.,.,.,.,.,.,.",
",.,.,.,.,.,.,.,.,.,.:.H k - . o o   - x / :.,.,.,.,.,.,.,.,.,.,.",
",.,.,.,.,.,.,.,.:.J x j n S A D D p g n j c ( >.,.3.,.,.,.,.,.,.",
",.,.,.,.,.,.,.,./ x ; t =. .%.%.%.O.| K 9 : c ( 1.6.<.,.,.,.,.,.",
",.,.,.,.,.,.,.,.M ; G ` ..+.+.+.o.} }  .R V . N ,.<.,.,.,.,.,.,.",
",.,.,.,.,.,.>.-.m t E +.+.$.+.o.o.+.+.o.+.U r m H ,.,.,.,.,.,.,.",
",.,.,.,.,.,.) l F =...$.$.*.&.$.&.*.$.o.+.| K q x :.,.,.,.,.,.,.",
",.,.,.,.,.,./ - e  .&.*.q.q.*.*.e.w.&.$.+.+.E < 6 ) ,.,.,.,.,.,.",
",.,.,.,.,.,./ X p @.*.*.q.*.*.q.r.w.&.&.$.+.] 2 > ;.,.,.,.,.,.,.",
",.,.,.,.,.,./ & s @.q.q.*.&.&.*.r.w.&.&.&.$.] y 9 >.,.,.,.,.,.,.",
",.,.,.,.,.,.( , p @.q.*.&.&.&.*.r.w.&.&.&.$.] y w 2.1.,.,.,.,.,.",
",.,.,.,.,.,./ . i O.w.w.&.&.&.q.r.w.*.&.*.$.^ * 5 :.,.,.,.,.,.,.",
",.,.,.,.,.,./ > 4 Q *.w.w.&.*.w.u.e.*.*.*.X.I $ 7 ;.,.,.,.,.,.,.",
",.,.,.,.,.,.) x 4 C [ w.w.w.*.t.i.y.*.w.$.W d 3 b :.,.,.,.,.,.,.",
",.,.,.,.,.,.>./ h @ Y o.&.e.e.y.u.t.0.$.{ L o z ( >.,.,.,.,.,.,.",
",.,.,.,.,.,.,.,.N : a P Q #.w.q.q.&.X.T Z u : B ,.,.,.,.,.,.,.,.",
",.,.,.,.,.,.,.,.) N - + f Y ~ ' ~ ! I d O ; B ) ,.,.,.,.,.,.,.,.",
",.,.,.,.<.,.,.<.>.) B z 1 & % = = # $ 3 v H ( ,.,.,.,.,.,.,.,.,.",
",.,.,.<.6.1.1.6.1.,.,.J M 7 5 0 1 6 8 N ( ,.,.,.,.,.,.,.,.,.,.,.",
",.,.,.,.4.9.4.1.,.,.,.,.:.:.:.;.:.) _ _ ,.,.,.,.,.,.,.,.,.,.,.,.",
",.,.,.,.1.9.9.<.,.,.,.,.,.,.1.,.,.,.,.,.,.,.,.,.,.,.1.1.,.,.,.,.",
",.,.,.,.,.1.1.,.,.,.,.,.,.1.8.4.,.,.,.,.,.,.,.,.,.3.8.9.1.,.,.,.",
",.,.,.,.,.,.,.1.,.,.,.,.,.3.9.8.,.,.,.,.,.,.,.,.1.7.5.8.1.,.,.,.",
",.,.,.,.,.,.1.6.1.,.,.,.,.,.1.3.,.,.,.,.,.,.,.,.,.1.,.1.,.,.,.,.",
",.,.,.,.,.,.,.3.,.,.,.,.,.,.,.,.,.,.,.,.,.,.,.,.,.,.,.,.,.,.,.,.",
",.,.,.,.,.,.,.,.,.,.,.,.,.,.,.,.,.,.,.,.,.,.,.,.,.,.,.,.,.,.,.,."
};
