/* XPM */
static char *result[] = {
/* columns rows colors chars-per-pixel */
"32 32 106 2 ",
"   c #425A1C",
".  c #575D1A",
"X  c #5B5C1A",
"o  c #625D19",
"O  c #5A641D",
"+  c #62631C",
"@  c #75661C",
"#  c #7F6C1F",
"$  c #6C6622",
"%  c #666E29",
"&  c #756325",
"*  c #7A6626",
"=  c #766922",
"-  c #7F6E20",
";  c #7D6B28",
":  c #6D732C",
">  c #6D7F2B",
",  c #71742D",
"<  c #7B6F33",
"1  c #7D7033",
"2  c #82691A",
"3  c #87711D",
"4  c #847422",
"5  c #8A7620",
"6  c #877637",
"7  c #8C7D39",
"8  c #5D8228",
"9  c #618127",
"0  c #638529",
"q  c #6E832C",
"w  c #658929",
"e  c #6C8A2D",
"r  c #799B2E",
"t  c #778831",
"y  c #7DA230",
"u  c #A4861F",
"i  c #8F8026",
"p  c #9D8722",
"a  c #9F8E26",
"s  c #A79529",
"d  c #80A432",
"f  c #82B437",
"g  c #88B639",
"h  c #84BA39",
"j  c #8CBF3A",
"k  c #CEBC38",
"l  c #D4BC37",
"z  c #8FC63C",
"x  c #91C63C",
"c  c #92CB3E",
"v  c #D3C43C",
"b  c #D6C93F",
"n  c #E0CD3E",
"m  c #FFD432",
"M  c #FFDD37",
"N  c #FEE43D",
"B  c #FFE93F",
"V  c #AC9F42",
"C  c #AEA243",
"Z  c #AFA349",
"A  c #B2A543",
"S  c #B4A84C",
"D  c #9AC145",
"F  c #95CF40",
"G  c #9CC942",
"H  c #97D541",
"J  c #99D642",
"K  c #9CDB43",
"L  c #A3DE47",
"P  c #ADD04C",
"I  c #A4DE48",
"U  c #ABE14B",
"Y  c #B2E44F",
"T  c #B6E552",
"R  c #B8E653",
"E  c #BEE957",
"W  c #DBCE46",
"Q  c #DBD246",
"!  c #DAD54E",
"~  c #E4D342",
"^  c #EEDF45",
"/  c #E9DF4D",
"(  c #C3EA5A",
")  c #ECE647",
"_  c #EBE34C",
"`  c #EDE94B",
"'  c #F2E644",
"]  c #FFE741",
"[  c #FFED42",
"{  c #FDE349",
"}  c #F2EF4B",
"|  c #FFF347",
" . c #FFF64A",
".. c #FFF94D",
"X. c #E8E254",
"o. c #FFF553",
"O. c #FFFE52",
"+. c #FFFC5A",
"@. c #DDD464",
"#. c #E1D866",
"$. c #F0E96E",
"%. c #FFFE65",
"&. c #FAF569",
"*. c #FEFC6B",
"=. c #FFFC71",
"-. c #FFFF7D",
/* pixels */
"K K K K K K K K K K K K K K K K K K K K K K K K K K K K K K K K ",
"K K K K K K K K K K K K K K K K K K K K K K K K K K K K K K K K ",
"K K K K K K K K K K K K K K K I I K K K K K K K K L K U U K K K ",
"K K K I I K K K K K K K K K L E ( U K K K K K K L T U E R K K K ",
"K K L E E L K K K K K K K K K U ( ( U K K K K K K L K U L K K K ",
"K K K I I K K K K K K K K K K K I I K K K K K K K K K K K K K K ",
"K K K K K K K K K K K J c x x x x z x c H K K K K K K K K K K K ",
"K K K K K K K K K K J h 0 O X O + X . 9 y K K K K K K K K K K K ",
"K K K K K K K K J c y q : < 6 7 7 6 1 : > r z J K L K K K K K K ",
"K K K K K K K K x r + & Z @.$.$.$.$.#.S ; o r z L T I K K K K K ",
"K K K K K K K L d o a v / { { { { { { / b s o r K L K K K K K K ",
"K K K K K K L D t * k | | [ M m M N B [ | b ; q y K K K K K K K ",
"K K K K K K c e , C ~ [ | ..B m [  . .N [ _ A : 8 F K K K K K K ",
"K K K K K K x O = Q N B ..O.| N | O.O... .[ ~ # O c K K K K K K ",
"K K K K K K j X 2 ) [ [ ..O. .B ..O.O.O. .| ' 5 . z K K K K K K ",
"K K K K K H f O 4 ` ....O.O.| [ ..O.O.O... .} i + G K K K K K K ",
"K K K K K J g + 4 ` O.O.O...| B ..O.O.O.O.O.} i $ P U K K K K K ",
"K K K K K K j O - ` %.%.O...[ N  .O.O.O.O...' 3 X G K K K K K K ",
"K K K K K K c O = ! &.*.+. .] ] +.+.O.O.O. .n 2 . z J K K K K K ",
"K K K K K K c w : C X.*.=.o. .+.*.*.O.O.O._ A , > z K J K K K K ",
"K K K K K K H h q & k o.%.&.*.=.-.-.*.+.| v * > h c K K K K K K ",
"K K K K K K K K y O p l X.&.*.*.=.=.&.X.l u o r K K K K K K K K ",
"K K K K K K K K c y + & V W N ) ^ ^ W A * o r x K K K K K K K K ",
"K K K K L K K L K x y q : @ @ 3 3 @ X % q r x J K K K K K K K K ",
"K K K L R I I T U K c z 8 O O + O     8 y K K K K K K K K K K K ",
"K K K K U ( U I K K L K c c c c c c c H K K K K K K K K K K K K ",
"K K K K I ( ( L K K K K K K U K K K K K K K K K K K K U K K K K ",
"K K K K K I I K K K K K K K E U K K K K K K K K K U E ( L K K K ",
"K K K K K K K I K K K K K L ( E U K K K K K K K L T Y E L K K K ",
"K K K K K K I T K K K K K K U L K K K K K K K K K L K L K K K K ",
"K K K K K K K I K K K K K K K K K K K K K K K K K K K K K K K K ",
"K K K K K K K K K K K K K K K K K K K K K K K K K K K K K K K K "
};
