/* XPM */
static char *result[] = {
/* columns rows colors chars-per-pixel */
"32 32 148 2 ",
"   c #533E09",
".  c #5C4209",
"X  c #424C15",
"o  c #5A5516",
"O  c #5A561A",
"+  c #565B1B",
"@  c #5E5F1B",
"#  c #714B0A",
"$  c #77530F",
"%  c #6F5A11",
"&  c #625E18",
"*  c #47621E",
"=  c #54631D",
"-  c #5E671D",
";  c #63641C",
":  c #6B661A",
">  c #646C1E",
",  c #445122",
"<  c #5E5921",
"1  c #635D23",
"2  c #4F6C21",
"3  c #516F22",
"4  c #517122",
"5  c #686921",
"6  c #746424",
"7  c #7B692E",
"8  c #657C23",
"9  c #687029",
"0  c #727524",
"q  c #7C7322",
"w  c #727929",
"e  c #696634",
"r  c #815A12",
"t  c #876D1A",
"y  c #9A6F11",
"u  c #A77A14",
"i  c #817120",
"p  c #897A24",
"a  c #8A7C3B",
"s  c #837243",
"d  c #877844",
"f  c #8C7C46",
"g  c #618028",
"h  c #6D872D",
"j  c #64892A",
"k  c #73812F",
"l  c #748B2D",
"z  c #69922D",
"x  c #6D982E",
"c  c #73962F",
"v  c #78992D",
"b  c #738432",
"n  c #7D8A35",
"m  c #719632",
"M  c #719F31",
"N  c #74A332",
"B  c #7DA331",
"V  c #7C8242",
"C  c #AF821B",
"Z  c #9B8623",
"A  c #91823F",
"S  c #80A732",
"D  c #81B437",
"F  c #85BB39",
"G  c #D59720",
"H  c #D5BE31",
"J  c #EDB12C",
"K  c #8EC33B",
"L  c #8FC93D",
"P  c #90C73D",
"I  c #92CA3E",
"U  c #DDC73C",
"Y  c #EEC335",
"T  c #E2CA38",
"R  c #EECD38",
"E  c #FBE23E",
"W  c #968E59",
"Q  c #ABA148",
"!  c #B4A948",
"~  c #CBB846",
"^  c #D0BD46",
"/  c #C4BB6B",
"(  c #C5BF76",
")  c #9EC647",
"_  c #96C840",
"`  c #95D140",
"'  c #99D742",
"]  c #9CDB43",
"[  c #A3DE47",
"{  c #AED14D",
"}  c #A4DE48",
"|  c #A5E048",
" . c #ABE14B",
".. c #B6E552",
"X. c #B8E653",
"o. c #BEE957",
"O. c #D9CE49",
"+. c #D8D34E",
"@. c #E8D544",
"#. c #E7DF46",
"$. c #EFD942",
"%. c #E0D449",
"&. c #C3EA5A",
"*. c #EBE74D",
"=. c #EEEA4B",
"-. c #FFED42",
";. c #FDE54C",
":. c #FEEC48",
">. c #FEF54A",
",. c #FEF94D",
"<. c #FFEA51",
"1. c #F7E059",
"2. c #FFEF5B",
"3. c #FFF350",
"4. c #FFFD54",
"5. c #FFF55B",
"6. c #FFFE5B",
"7. c #C8C272",
"8. c #D6CD7D",
"9. c #E2CD62",
"0. c #E5DF6D",
"q. c #E1D978",
"w. c #E8DD7C",
"e. c #F1D371",
"r. c #EEE462",
"t. c #FFEA67",
"y. c #FFFF63",
"u. c #FEF36A",
"i. c #FFFD6E",
"p. c #E9E473",
"a. c #E7E37F",
"s. c #EFE67C",
"d. c #FEE37E",
"f. c #FBF572",
"g. c #FFFD74",
"h. c #FFFE7B",
"j. c #D4CC83",
"k. c #DDD48C",
"l. c #ECCF83",
"z. c #FBD888",
"x. c #E1D690",
"c. c #E2D991",
"v. c #EFE480",
"b. c #EFEB86",
"n. c #ECE889",
"m. c #FFFF84",
"M. c #FAF78D",
"N. c #F0E995",
/* pixels */
"] ] ] ] ] ] ] ] ] ] ] ] ] ] ] ] ] ] ] I ] ] ] ] ] ] ] ] ] ] ] ] ",
"] ] ] ] ] ] ] ] ] ] ] ] ] ] ] ] ] ] ] | ] ] ] ] ] ] ] ] ] ] ] ] ",
"] ] ] ] ] ] ] ] ] ] ] ] I ] ] | | ] ] ] ] ] ] ] ] | ] | | ] ] ] ",
"] ] ] } } ] ] ] ] ] ] ] | ] | o.&. .] ] ] ] ] ] | ..| o.o.| ] ] ",
"] ] [ o.o.[ ] ] ] ] ] ] ] ] [  .&.&.| I | ] ] ] ] | ] ] | ] ] ] ",
"] ] ] [ [ ] ] ] ] ] ] ] ] ] ] [ | | ] | ] ] ] ] ] ] ] ] ] ] ] ] ",
"] ] ] ] ] ] ] ] ] ] ] I P K F P L K K I I ] ] ] ] ] ] ] ] ] ] ] ",
"] ] ] ] ] ] ] ] ] ] ] D g + o @ - o + 4 K I ] ] ] ] ] ] ] ] ] ] ",
"] ] ] ] ] ] ] ] ' P v b n d a A f s s V b m L ' ] | ] ] ] ] ] ] ",
"] ] ] ] ] ] ] ] L c O s ( w.s.a.x.x.k.( d 1 z K | X.| ] ] ] ] ] ",
"] ] ] ] ] ] ] [ m < f / v.z.l.8.j.c.N.b.8.W , x ] | ] ] ] ] ] ] ",
"] ] ] ] ] ] ] ) n 7 ~ r.u.d.e.9.q.n.M.m.M.7.e h F I ] ] ] ] ] ] ",
"] ] ] ] ] ] ` m n ! @.:.5.u.2.;.f.m.m.m.m.p.! k x I ] ] ] ] ] ] ",
"] ] ] ] ] ] L 2 w %.E <.u.y.4.5.h.m.m.m.m.f.%.0 4 I ] ] ] ] ] ] ",
"] ] ] ] ] ] L = q =.-.5.h.6.,.4.h.m.m.m.m.g.#.q = L ] ] ] ] ] ] ",
"] ] ] ] ] ] P ; p =.,.5.i.6.,.3.g.m.m.m.m.f.$.t : ` ] ] ] ] ] ] ",
"] ] ] ] ] ] _ 5 p =.4.4.6.4.>.3.g.m.m.m.m.u.Y r 1 { | ] ] ] ] ] ",
"] ] ] ] ] ] L = q *.y.y.4.6.>.3.g.m.h.i.h.t.J $ + I ] ] ] ] ] ] ",
"] ] ] ] ] ] L 4 0 O.f.g.6.6.4.5.h.h.g.6.y.1.G % 3 L ] ] ] ] ] ] ",
"] ] ] ] ] ] _ x k Q p.h.g.6.y.h.h.i.6.4.4.U y : x _ ] ] ] ] ] ] ",
"] ] ] ] ] ] ] K l 6 ^ u.h.g.h.m.m.i.4.,.R C   8 K ' ] ] ] ] ] ] ",
"] ] ] ] ] ] ] ] B ; Z ~ 0.f.g.g.g.6.:.T C # X M ' ] ] ] ] ] ] ] ",
"] ] ] ] ] ] ] ] I v - 6 Q +.*.*.*.#.H u . X x L ] ] ] ] ] ] ] ] ",
"] ] ] ] | ] ] } ] I S h 9 6 q i q : o & 8 N I ] ] ] ] ] ] ] ] ] ",
"] ] ] ] X. .| ..| ] ] F j - ; 5 > * * j F ] ] ] ] ] ] ] ] ] ] ] ",
"] ] ] ]  .&. .| ] ] ] ' ` I I I I L L _ ' ] ] ] ] ] ] ] ] ] ] ] ",
"] ] ] ] [ &.o.| ] ] ] ] ] ] | ] ] ] ] ] ] ] ] ] ] ] | | ] ] ] ] ",
"] ] ] ] ] | | ] ] ] ] ] ] | o. .] ] ] ] ] ] ] ] ] | o.&.| ] ] ] ",
"] ] ] ] ] ] ] | ] ] ] ] ] | &.o.| ] ] ] ] ] ] ] [ X...o.[ ] ] ] ",
"] ] ] ] ] ] [ ..[ ] ] ] ] ] | | ] ] ] ] ] ] ] ] ] | ] ] ] ] ] ] ",
"] ] ] ] ] ] ] [ ] ] ] ] ] ] ] ] ] ] ] ] ] ] ] ] ] ] ] ] ] ] ] ] ",
"] ] ] ] ] ] ] ] ] ] ] ] ] ] ] ] ] ] ] ] ] ] ] ] ] ] ] ] ] ] ] ] "
};
