/* XPM */
static char *result[] = {
/* columns rows colors chars-per-pixel */
"32 32 144 2 ",
"   c #58470B",
".  c #4F4E14",
"X  c #455218",
"o  c #415A1B",
"O  c #54571E",
"+  c #575C1A",
"@  c #5B5B1B",
"#  c #644C0F",
"$  c #6D550D",
"%  c #635813",
"&  c #5C611B",
"*  c #55691D",
"=  c #5B681E",
"-  c #61651C",
";  c #62681D",
":  c #6C6B19",
">  c #75621C",
",  c #6B771E",
"<  c #4D5F21",
"1  c #665C22",
"2  c #4C6121",
"3  c #5A7224",
"4  c #5A7429",
"5  c #5E7E2B",
"6  c #746922",
"7  c #6B712D",
"8  c #687C28",
"9  c #70732B",
"0  c #686F3F",
"q  c #706F30",
"w  c #786930",
"e  c #727632",
"r  c #787734",
"t  c #767F34",
"y  c #786F48",
"u  c #865C0A",
"i  c #98670D",
"p  c #A36A08",
"a  c #AF7A16",
"s  c #BC7D14",
"d  c #8B7B24",
"f  c #816E3D",
"g  c #837235",
"h  c #64842A",
"j  c #65872A",
"k  c #68842E",
"l  c #668C2B",
"z  c #74842F",
"x  c #718D2C",
"c  c #6C8731",
"v  c #778332",
"b  c #6E9034",
"n  c #749E31",
"m  c #76A433",
"M  c #7BAC35",
"N  c #7EB137",
"B  c #798245",
"V  c #91873E",
"C  c #839D3C",
"Z  c #A08A36",
"A  c #A58F39",
"S  c #AB9E3A",
"D  c #85BA38",
"F  c #88BF3B",
"G  c #B0A33D",
"H  c #D19519",
"J  c #DFA61D",
"K  c #D9A324",
"L  c #DBB126",
"P  c #D4BD35",
"I  c #E5B628",
"U  c #E6BF33",
"Y  c #8CC33C",
"T  c #8FC83E",
"R  c #90C53C",
"E  c #92CB3E",
"W  c #ECC838",
"Q  c #FBC43E",
"!  c #EED239",
"~  c #FEE43D",
"^  c #A29646",
"/  c #B29E43",
"(  c #A09D56",
")  c #AEA740",
"_  c #B5AD45",
"`  c #B2A64C",
"'  c #BDB55B",
"]  c #B0AE7A",
"[  c #B8B57B",
"{  c #93CA40",
"}  c #96D341",
"|  c #99D642",
" . c #9CDB43",
".. c #A3DE47",
"X. c #A4DE48",
"o. c #ADD94E",
"O. c #ABE14B",
"+. c #B2E44F",
"@. c #B6E552",
"#. c #B8E653",
"$. c #BEE957",
"%. c #D6D04D",
"&. c #DFD55D",
"*. c #E6D243",
"=. c #FED447",
"-. c #FEDE4B",
";. c #ECDB53",
":. c #C3EA5A",
">. c #ECE14C",
",. c #FDE540",
"<. c #FFEF44",
"1. c #FAE14E",
"2. c #F1EC4B",
"3. c #FFF64B",
"4. c #FFFC4F",
"5. c #E4E052",
"6. c #E9E55B",
"7. c #FFFE52",
"8. c #FDF259",
"9. c #FFFF5D",
"0. c #D6CE68",
"q. c #DFD667",
"w. c #EADB67",
"e. c #E4DA70",
"r. c #ECE863",
"t. c #E7E369",
"y. c #FFFE6B",
"u. c #E9E473",
"i. c #FFF571",
"p. c #FFFD74",
"a. c #FFFE7D",
"s. c #E0D985",
"d. c #E1D88E",
"f. c #F1EB8C",
"g. c #FFFF84",
"h. c #F7F48C",
"j. c #FCF989",
"k. c #E9E397",
"l. c #F2EB9A",
"z. c #F6F291",
"x. c #DDD9A8",
"c. c #E6E2AF",
"v. c #F3ECA8",
"b. c #F3EEB3",
/* pixels */
" . . . . . . . . . . . . . . . . . . . . . . . . . . . . . . . .",
" . . . . . . . . . . . . . . . . . . . . . . . . . . . . . . . .",
" . . . . . . . . . . . . . . ...O. . . . . . . . ... ..... . . .",
" . . .X.X. . . . . . . . . .O.$.:.O. . . . . . ...+.O.$.$... . .",
" . ...$.$... . . . . . .O.E  .O.:.$...E .. . . . ... .O..... . .",
" . . ...X. . . . . . . . ... ... .O... . . . . . . . . . . . . .",
" . . . . . . . . . . .E E E R E E R E E  . . . . . . . . . . . .",
" . . . . . . . . ...E N h * - ; ; * = l Y  . . . . . . . .E  . .",
" . . . . . . . . .{ m k 7 w r g f y y t b N |  . ... . . . . ...",
" . . . . . . . .} M 2 q ` q.u.s.d.x.x.[ 0 4 F | ..#... . . . . .",
" . . . . . . . .M 4 e G *.-.w.s.k.v.b.c.] B 5 D .... . . . . . .",
" . . . . . .X.o.z @ S *.~ ,.;.e.f.l.v.b.k.( O m E  . . . . . . .",
" . . . . . .| R z > P ~ ~ 3.3.8.g.z.l.l.h.' 1 x Y  . . . . . . .",
" . . . . . .T m v Z U ~ 3.7.7.9.a.j.j.j.g.0.V k M  . . . . . . .",
" . . . . . .T l t / W ,.7.7.7.9.a.g.g.g.p.&.^ k n E  . . . . . .",
" . . . . . .T h e / W <.4.7.7.9.a.g.g.a.8.W A 9 m .. . . . . . .",
" . . . . . .{ c e ` >.7.7.7.4.y.a.g.g.a.1.I a : C #... . . . . .",
" . .|  . . .{ l t ` r.9.7.7.4.9.a.g.g.a.-.J p : n .... . . . . .",
" . . . . . .} n v ^ t.y.9.7.7.y.a.a.a.a.=.H u , M |  . . . . . .",
" . . . . . .| D 8 6 %.y.y.9.y.a.a.y.y.i.Q s # x F |  . . . . . .",
" . . . . . . .{ h @ ) 6.y.y.a.a.y.9.7.-.K i . n }  . . . . . . .",
" . . . . . . .| m 3 r _ 6.y.p.p.7.3.~ L p $ 3 D  . . . . . . . .",
" . . . . . . . .} M < q _ 5.2.2.2.! K i   * D |  . . . . . . . .",
" . . . .X. . .X. .{ n 8 9 : d Z d > % @ 8 m |  . . .|  . . . . .",
" . . ...@.O.O.+.O. .E N j * + - & X o j D  . . . . . . . . . . .",
" . . . .O.$.O... . . .E T Y R E Y Y Y T |  . . . . . . . . . . .",
" . . . .O.$.$... . . . . . . . . . . . . . . . . . .X.X. . . . .",
" . . . . ...O. . . . . . .O.$.O. . . . . . . . . .X.:.:.X. . . .",
" . . . . . . ... . . . . ...:.$.O. . .E  . . . .X.#.+.$.X. . . .",
"|  . . . . ...@... . . . . .O.O. . . . . . . . . .X. ... . . . .",
" . . . . . . .O. . . . . . . . . . . . . . . . . . . . . . . . .",
" . . . . . . . . . . . . . . . . . . . . . . . . . . . . . . . ."
};
