/* XPM */
static char *result[] = {
/* columns rows colors chars-per-pixel */
"32 32 144 2 ",
"   c #4D2802",
".  c #413308",
"X  c #563708",
"o  c #6B3C04",
"O  c #3A4915",
"+  c #4A5819",
"@  c #555317",
"#  c #585516",
"$  c #585519",
"%  c #5E5C19",
"&  c #68460C",
"*  c #6D4F0C",
"=  c #7B4D0C",
"-  c #7F590D",
";  c #6C5F15",
":  c #7D5F14",
">  c #5C641D",
",  c #6B6116",
"<  c #61661C",
"1  c #636C1E",
"2  c #716614",
"3  c #7A6111",
"4  c #716817",
"5  c #4D6A21",
"6  c #5C6A20",
"7  c #5D7022",
"8  c #667421",
"9  c #677922",
"0  c #66722E",
"q  c #776C43",
"w  c #7E735A",
"e  c #834903",
"r  c #884C03",
"t  c #89540C",
"y  c #9B5502",
"u  c #A25D06",
"i  c #AE5C00",
"p  c #8F6B17",
"a  c #926214",
"s  c #9E6114",
"d  c #AA6205",
"f  c #B86604",
"g  c #A17114",
"h  c #AE7E16",
"j  c #885C39",
"k  c #816123",
"l  c #927925",
"z  c #90643F",
"x  c #8B7230",
"c  c #9E7531",
"v  c #C87B0E",
"b  c #D67805",
"n  c #DD7B01",
"m  c #C07C1B",
"M  c #8E7A41",
"N  c #8B785D",
"B  c #6D812A",
"V  c #6B942D",
"C  c #76833C",
"Z  c #769F30",
"A  c #76A633",
"S  c #7BA330",
"D  c #7CA833",
"F  c #AD831D",
"G  c #85AD33",
"H  c #8BB937",
"J  c #84B939",
"K  c #89BD3A",
"L  c #D7870D",
"P  c #DF880A",
"I  c #C88E19",
"U  c #E68404",
"Y  c #EE8B06",
"T  c #F69409",
"R  c #F7980B",
"E  c #E29C1B",
"W  c #F19E13",
"Q  c #ECA017",
"!  c #F7A114",
"~  c #F0A21A",
"^  c #F4AD1D",
"/  c #FCB71F",
"(  c #D38E3B",
")  c #EA9F21",
"_  c #F5BD27",
"`  c #FDBE24",
"'  c #FDBC28",
"]  c #F4BA33",
"[  c #FFBD3E",
"{  c #8EC33B",
"}  c #90C23B",
"|  c #93CC3E",
" . c #95D03F",
".. c #FFC627",
"X. c #F3C329",
"o. c #FFC529",
"O. c #F6CD2F",
"+. c #FECC2D",
"@. c #FFD22F",
"#. c #FFC337",
"$. c #FFCF30",
"%. c #FFD433",
"&. c #FFDA35",
"*. c #F6D73B",
"=. c #FEDE3B",
"-. c #FFE43A",
";. c #FFEA3E",
":. c #B1AA72",
">. c #E49C4A",
",. c #FFBC48",
"<. c #F5B359",
"1. c #EEAE6B",
"2. c #F3B472",
"3. c #9BC642",
"4. c #98CF42",
"5. c #96D240",
"6. c #99D542",
"7. c #9CDB43",
"8. c #A8CF4A",
"9. c #A3DE47",
"0. c #A3D648",
"q. c #A4DE48",
"w. c #B5DE53",
"e. c #A5E048",
"r. c #AAE14B",
"t. c #B2E44F",
"y. c #B6E552",
"u. c #B8E653",
"i. c #BEE956",
"p. c #FFCA4E",
"a. c #F1D845",
"s. c #F4C45A",
"d. c #C3EA59",
"f. c #CAED5D",
"g. c #FFEE42",
"h. c #FFED4F",
"j. c #FFF44B",
"k. c #FDF45F",
"l. c #F1E16A",
"z. c #FFFB7C",
"x. c #DDDA82",
"c. c #CEC8B5",
"v. c #FCFBA3",
"b. c #EDE9BC",
/* pixels */
"7.7.7.7.7.7.7.7.7.7.7.7.7.7.7.7.7.7.7.7.7.7.7.7.7.7.7.7.7.7.7.7.",
"7.7.7.7.7.7.7.7.7.7.7.7.7.7.7.7.7.7.7.7.7.7.7.7.7.7.7.7.7.7.7.7.",
"7.7.7.7.7.7.7.7.7.7.7.7.7.7.7.q.q.7.7.7.7.7.7.7.7.9.7.q.e.7.7.7.",
"7.7.7.q.q.7.7.7.7.7.7.7.7.7.7.i.d.r.7.7.7.7.7.7.9.y.r.i.i.7.7.7.",
"7.7.9.i.i.9.7.7.7.7.7.7.7.7.7.r.d.d.q.7.7.7.7.7.7.q.7.q.q.7.7.7.",
"7.7.7.9.q.7.7.7.7.7.7.7.7.7.7.7.e.e.7.7.7.7.7.7.7.7.7.7.7.7.7.7.",
"7.7.7.7.7.7.7.7.7.7.7.7. .{ { { { { { 4.6.7.7.7.7.7.7.7.7.7.7.7.",
"7.7.7.7.7.7.7.7.7.7.7.{ S > @ ; % $ 6 Z { 7.7.7.7.7.7.7.7.7.7.7.",
"7.7.7.7.7.7.7.7.7.7.5.Z > 3 p l M N w 0 D 6.6.7.7.e.7.7.7.7.7.7.",
"7.7.7.7.7.7.7.7.7.6.J 8 & I X.a.x.b.c.q B D 6.7.q.u.q.7.7.7.7.7.",
"7.7.7.7.7.7.7.q.9.4.V 2 d P / =.l.v.b.:.C V | 7.7.q.7.7.7.7.7.7.",
"7.7.7.7.7.7.q.u.r.8.> - L W ` -.h.z.v.x.G 5 3.7.7.7.7.7.7.7.7.7.",
"7.7.7.7.7.7.7.q.i.3.# t ~ ` %.;.;.k.z.l.x @ K 7.7.7.7.7.7.7.7.7.",
"7.7.7.7.7.7.7.7.9.} % a ^ o.%.;.;.j.h.] a ; K 7.7.7.7.7.7.7.7.7.",
"7.7.7.7.7.7.7.7.6.H , g _ o.%.;.;.g.-.W u ; H 6.9.7.7.7.7.7.7.7.",
"7.7.7.7.7.7.7.9.5.G 3 h O.+.&.g.;.;.@.R i 3 G 0.i.r.7.7.7.7.7.7.",
"7.7.7.7.7.7.9.y.6.G 3 F *.$.%.g.-.-...T i : G w.f.i.9.7.7.7.7.7.",
"7.7.7.7.7.7.7.9.7.H , c s.#.%.-.&.@./ Y y ; H 9.q.9.7.7.7.7.7.7.",
"7.7.7.7.7.7.7.7.7.{ % z 2.[ %.-.@.` ! U = @ { 7.7.7.7.7.7.7.7.7.",
"7.7.7.7.7.7.7.7.7.K @ j 1.,.%.-.&.^ Y n & O J 7.7.7.7.7.7.7.7.7.",
"7.7.7.7.7.7.7.7.9.{ 7 k ( <.p.%...Q b f * 5 { 7.7.7.7.7.7.7.7.7.",
"7.7.7.7.7.7.7.7.7.| V 4 s >.,.' ^ L f r , V | 7.7.7.7.7.7.7.7.7.",
"7.7.7.7.7.7.7.7.7.7.{ 9 & m ) E v d e X 9 K 7.7.7.7.7.7.7.7.7.7.",
"7.7.7.7.e.7.7.e.7.7. .A 1 * = = o   . 6 A 6.7.7.7.7.7.7.7.7.7.7.",
"7.7.7.9.y.r.9.y.e.7.7.| D 8 < 1 > + 5 A | 7.7.7.7.7.7.7.7.7.7.7.",
"7.7.7.7.r.d.r.9.7.7.7.7. .| | | | | |  .6.7.7.7.7.7.7.7.7.7.7.7.",
"7.7.7.7.q.d.d.9.7.7.7.7.7.7.q.7.7.7.7.7.7.7.7.7.7.7.q.9.7.7.7.7.",
"7.7.7.7.7.q.9.7.7.7.7.7.7.q.d.r.7.7.7.7.7.7.7.7.7.q.d.d.9.7.7.7.",
"7.7.7.7.7.7.7.e.7.7.7.7.7.q.d.i.9.7.7.7.7.7.7.7.q.u.t.i.q.7.7.7.",
"7.7.7.7.7.7.q.y.q.7.7.7.7.7.q.9.7.7.7.7.7.7.7.7.7.q.7.9.7.7.7.7.",
"7.7.7.7.7.7.7.q.7.7.7.7.7.7.7.7.7.7.7.7.7.7.7.7.7.7.7.7.7.7.7.7.",
"7.7.7.7.7.7.7.7.7.7.7.7.7.7.7.7.7.7.7.7.7.7.7.7.7.7.7.7.7.7.7.7."
};
