/* XPM */
static char *result[] = {
/* columns rows colors chars-per-pixel */
"32 32 242 2 ",
"   c #9CDB43",
".  c #9EDC44",
"X  c #A4DE48",
"o  c #9DDB44",
"O  c #A3DE47",
"+  c #9FDC45",
"@  c #A2DD47",
"#  c #BFE957",
"$  c #C5EB5B",
"%  c #ABE14B",
"&  c #9DDC44",
"*  c #B6E552",
"=  c #A9E04A",
"-  c #BDE856",
";  c #A2DE47",
":  c #9DDC43",
">  c #9EDD44",
",  c #A5DF48",
"<  c #9AD842",
"1  c #91CC3E",
"2  c #8FC63C",
"3  c #91C73C",
"4  c #91C63C",
"5  c #90CA3E",
"6  c #99D742",
"7  c #8EC73D",
"8  c #5B7E26",
"9  c #50601C",
"0  c #5F641C",
"q  c #60641D",
"w  c #52601D",
"e  c #587925",
"r  c #8AC23B",
"t  c #9CDA43",
"y  c #8FC93E",
"u  c #779E2F",
"i  c #625C13",
"p  c #6E520D",
"a  c #896D26",
"s  c #8A7854",
"d  c #736C4F",
"f  c #636F37",
"g  c #759E35",
"h  c #8DC63C",
"j  c #9BDA43",
"k  c #9BD942",
"l  c #77A834",
"z  c #58661B",
"x  c #95640A",
"c  c #CE8E13",
"v  c #EDC54A",
"b  c #EFE3B8",
"n  c #D9D5B5",
"m  c #A6A86E",
"M  c #607731",
"N  c #73A231",
"B  c #9CD943",
"V  c #658E2C",
"C  c #39350C",
"Z  c #9A5B07",
"A  c #E38F10",
"S  c #FDBE42",
"D  c #FFEEB4",
"F  c #F9F8D0",
"G  c #C3C497",
"H  c #505D32",
"J  c #648C2A",
"K  c #B8E653",
"L  c #B0E34E",
"P  c #A1DB46",
"I  c #688B2A",
"U  c #433008",
"Y  c #AE6104",
"T  c #F09510",
"R  c #FEBE39",
"E  c #FFEE91",
"W  c #FFFFAA",
"Q  c #D0CF7D",
"!  c #585728",
"~  c #668628",
"^  c #A9E04B",
"/  c #BAE754",
"(  c #9AD642",
")  c #77912A",
"_  c #68450A",
"`  c #CB7406",
"'  c #FEA614",
"]  c #FFCA35",
"[  c #FFEC66",
"{  c #FFF667",
"}  c #D7C642",
"|  c #6F5A18",
" . c #728726",
".. c #97D340",
"X. c #90C93D",
"o. c #7C8B26",
"O. c #81510A",
"+. c #D6840F",
"@. c #FFB01D",
"#. c #FFC82D",
"$. c #FFD83D",
"%. c #FFD338",
"&. c #DDA623",
"*. c #86580D",
"=. c #798121",
"-. c #8EC53C",
";. c #8DC43C",
":. c #7C902F",
">. c #866421",
",. c #D8931E",
"<. c #FFB822",
"1. c #FFC428",
"2. c #FCB21D",
"3. c #DB880E",
"4. c #8D5306",
"5. c #77781D",
"6. c #83B637",
"7. c #97D441",
"8. c #89C03B",
"9. c #78943B",
"0. c #83743A",
"q. c #D79E29",
"w. c #FFBB24",
"e. c #FFBE26",
"r. c #FEB521",
"t. c #F89D11",
"y. c #D57702",
"u. c #8B4D03",
"i. c #71701A",
"p. c #7CAB34",
"a. c #97D241",
"s. c #ABE14C",
"d. c #C0E958",
"f. c #97D541",
"g. c #81B538",
"h. c #708A39",
"j. c #82743C",
"k. c #D79F2A",
"l. c #FFB722",
"z. c #FFB521",
"x. c #FEAA1B",
"c. c #F8960D",
"v. c #D57501",
"b. c #8B4D02",
"n. c #9CD444",
"m. c #CAED5D",
"M. c #BEE956",
"N. c #98D641",
"B. c #85BB3A",
"V. c #748F3A",
"C. c #82753C",
"Z. c #FF9E10",
"A. c #F88E06",
"S. c #D57400",
"D. c #8B4E03",
"F. c #84B637",
"G. c #99D542",
"H. c #A4DF48",
"J. c #A6DF49",
"K. c #90C93E",
"L. c #7A9739",
"P. c #7C6B36",
"I. c #D49C39",
"U. c #FFB730",
"Y. c #FDAD1D",
"T. c #F5910A",
"R. c #ED8302",
"E. c #CB6F02",
"W. c #814B05",
"Q. c #7A8221",
"!. c #8EC63C",
"~. c #7C9631",
"^. c #685224",
"/. c #CC9658",
"(. c #FFB94F",
"). c #F7A81F",
"_. c #DE840B",
"`. c #D57606",
"'. c #B46406",
"]. c #654009",
"[. c #728626",
"{. c #789032",
"}. c #493C16",
"|. c #C1973F",
" X c #FFB837",
".X c #F49710",
"XX c #D27906",
"oX c #C97106",
"OX c #A65D07",
"+X c #442E08",
"@X c #607E26",
"#X c #99D641",
"$X c #69902E",
"%X c #3E4011",
"&X c #AD871C",
"*X c #EC9F15",
"=X c #E68304",
"-X c #C46D01",
";X c #B66503",
":X c #925306",
">X c #3D340D",
",X c #5F8429",
"<X c #78A934",
"1X c #57671C",
"2X c #8A630D",
"3X c #B46907",
"4X c #BE6905",
"5X c #A65A01",
"6X c #8B4A01",
"7X c #6D4608",
"8X c #525E1A",
"9X c #73A232",
"0X c #8FCA3E",
"qX c #779F2F",
"wX c #595513",
"eX c #593505",
"rX c #673303",
"tX c #5E2E01",
"yX c #4A2A03",
"uX c #484610",
"iX c #70972D",
"pX c #A4DE47",
"aX c #8EC83D",
"sX c #5C8027",
"dX c #4C5B1A",
"fX c #555617",
"gX c #565517",
"hX c #4D591A",
"jX c #587A25",
"kX c #8BC33C",
"lX c #ADE24D",
"zX c #92CD3F",
"xX c #8FC73C",
"cX c #8FC73D",
"vX c #C4EB5A",
"bX c #A2DD46",
"nX c #A3DF47",
"mX c #9CDC43",
"MX c #C4EB59",
"NX c #B2E44F",
"BX c #BEE957",
"VX c white",
/* pixels */
"                                                                ",
"                                                                ",
"                            . X X o             . O + X X .     ",
"    . X X .                 @ # $ % &           O * = - - ;     ",
"    ; - - ;                 & % $ # ;           . O + X X .     ",
"    . X X .               : : > , , .                           ",
"                        < 1 2 3 4 2 5 6                         ",
"                        7 8 9 0 q w e r                         ",
"                    t y u i p a s d f g h j     . O .           ",
"                    k l z x c v b n m M N <     O * O           ",
"            . O + O B V C Z A S D F G H J 6     . O .           ",
"            O K L K P I U Y T R E W Q ! ~ 6                     ",
"            & ^ / = ( ) _ ` ' ] [ { } |  ...                    ",
"              & O B X.o.O.+.@.#.$.%.&.*.=.-.6                   ",
"                  6 ;.:.>.,.<.1.1.2.3.4.5.6.7.. @ &             ",
"            . O . 6 8.9.0.q.w.e.r.t.y.u.i.p.a.s.d.s.&           ",
"            O * O f.g.h.j.k.l.z.x.c.v.b.i.p.n.# m.M.;           ",
"            . O . N.B.V.C.k.z.@.Z.A.S.D.5.F.G.H.J.X .           ",
"                  < K.L.P.I.U.Y.T.R.E.W.Q.!.6                   ",
"                    ( ~.^./.(.)._.`.'.].[...                    ",
"                    P {.}.|. X.XXXoXOX+X@X#X                    ",
"                    B $X%X&X*X=X-X;X:X>X,X#X                    ",
"                    k <X1X2X3X4X5X6X7X8X9X<                     ",
"      . O & . O .   t 0XqXwXeXrXtXyXuXiX7 j                     ",
"      O K = pX* O       aXsXdXfXgXhXjXkX                        ",
"      & s.d.lXX .       < zXxX4 4 cX1 6                         ",
"        pXvX# bX          . nX> mX: :             & X X .       ",
"        . X X &           X # s.&               & = d.MXX       ",
"            & O .         X vX# @               O K NXBXX       ",
"            O * O         . X X .               . O + @ .       ",
"            . O .                                               ",
"                                                                "
};
