/* XPM */
static char *result[] = {
/* columns rows colors chars-per-pixel */
"32 32 205 2 ",
"   c #9CDB43",
".  c #9EDC44",
"X  c #A4DE48",
"o  c #9DDB44",
"O  c #A3DE47",
"+  c #9FDC45",
"@  c #A2DD47",
"#  c #BFE957",
"$  c #C5EB5B",
"%  c #ABE14B",
"&  c #9DDC44",
"*  c #B6E552",
"=  c #A9E04A",
"-  c #BDE856",
";  c #A2DE47",
":  c #9CDC43",
">  c #9EDD44",
",  c #A5DF48",
"<  c #9AD842",
"1  c #92CD3F",
"2  c #90C73D",
"3  c #91C63C",
"4  c #91C53C",
"5  c #8FC73C",
"6  c #92CC3E",
"7  c #99D742",
"8  c #91CB3E",
"9  c #648C2B",
"0  c #576920",
"q  c #5F641D",
"w  c #60631D",
"e  c #58681F",
"r  c #618629",
"t  c #8DC63D",
"y  c #9DDC43",
"u  c #8CC13B",
"i  c #4E5D1C",
"p  c #58502E",
"a  c #887A59",
"s  c #8A7C64",
"d  c #615A3D",
"f  c #4F5D1D",
"g  c #88BB39",
"h  c #8CBE39",
"j  c #535018",
"k  c #877759",
"l  c #E7E4C4",
"z  c #ECEADE",
"x  c #9C9281",
"c  c #605F25",
"v  c #8BBA39",
"b  c #8DBF39",
"n  c #5B581B",
"m  c #938462",
"M  c #F5F4D2",
"N  c #FBFBEE",
"B  c #B1AA99",
"V  c #73773E",
"C  c #90C03F",
"Z  c #B8E653",
"A  c #B0E34E",
"S  c #A3DD47",
"D  c #98D642",
"F  c #87B637",
"G  c #5B591B",
"H  c #928258",
"J  c #F0EBB5",
"K  c #F9F8C2",
"L  c #B6B286",
"P  c #798047",
"I  c #8BB93F",
"U  c #98D541",
"Y  c #A9E04B",
"T  c #BAE754",
"R  c #94D040",
"E  c #80AA33",
"W  c #5F5717",
"Q  c #957F43",
"!  c #ECE385",
"~  c #F8F381",
"^  c #B6B061",
"/  c #777D43",
"(  c #82AD3C",
")  c #93CE3F",
"_  c #9CDA43",
"`  c #83AA32",
"'  c #735E13",
"]  c #A98627",
"[  c #F4E250",
"{  c #FAEB50",
"}  c #B6A948",
"|  c #777B3F",
" . c #81AC3B",
".. c #9BDA43",
"X. c #93D040",
"o. c #85AB32",
"O. c #7B6010",
"+. c #B17D15",
"@. c #F8C92E",
"#. c #FBC92E",
"$. c #B88D27",
"%. c #796B27",
"&. c #82A835",
"*. c #92CE3F",
"=. c #84AC34",
"-. c #7A661A",
";. c #B07516",
":. c #F6AA1E",
">. c #F39F18",
",. c #B46C0C",
"<. c #7C5B0F",
"1. c #83A52F",
"2. c #ABE14C",
"3. c #C0E958",
"4. c #94CF3F",
"5. c #84B03A",
"6. c #767736",
"7. c #AD7D29",
"8. c #F09B18",
"9. c #DD840E",
"0. c #A45A05",
"q. c #79580D",
"w. c #83A42F",
"e. c #BEE957",
"r. c #CAED5D",
"t. c #BEE956",
"y. c #93CF3F",
"u. c #83B13C",
"i. c #757C3F",
"p. c #A9782A",
"a. c #E88B0E",
"s. c #D47808",
"d. c #935106",
"f. c #675210",
"g. c #7EA330",
"h. c #A6DF49",
"j. c #95D040",
"k. c #88B33E",
"l. c #767C3F",
"z. c #A27026",
"x. c #DC7D07",
"c. c #CF7407",
"v. c #894E08",
"b. c #574C13",
"n. c #7AA130",
"m. c #A1D547",
"M. c #9ABB48",
"N. c #767A3E",
"B. c #976825",
"V. c #CC7409",
"C. c #CA7107",
"Z. c #884D07",
"A. c #564C13",
"S. c #7AA331",
"D. c #B4E251",
"F. c #96BF41",
"G. c #676828",
"H. c #855413",
"J. c #BE6C05",
"K. c #C06C03",
"L. c #834B05",
"P. c #5B5115",
"I. c #8AB238",
"U. c #9AD743",
"Y. c #A3DF47",
"T. c #8FC03B",
"R. c #595516",
"E. c #734003",
"W. c #B06300",
"Q. c #B36400",
"!. c #7A4302",
"~. c #5F5018",
"^. c #A2C145",
"/. c #514D14",
"(. c #623201",
"). c #985200",
"_. c #9A5300",
"`. c #683601",
"'. c #504512",
"]. c #8EB83A",
"[. c #4D5D1B",
"{. c #422D07",
"}. c #592C01",
"|. c #5A2C01",
" X c #452C06",
".X c #485418",
"XX c #87BA38",
"oX c #A4DE47",
"OX c #91CC3E",
"+X c #67902C",
"@X c #55671E",
"#X c #575918",
"$X c #575818",
"%X c #55651D",
"&X c #638A2A",
"*X c #8EC83D",
"=X c #ADE24D",
"-X c #9AD942",
";X c #91C93D",
":X c #91C73D",
">X c #C4EB5A",
",X c #A2DD46",
"<X c #C4EB59",
"1X c #B2E44F",
"2X c white",
/* pixels */
"                                                                ",
"                                                                ",
"                            . X X o             . O + X X .     ",
"    . X X .                 @ # $ % &           O * = - - ;     ",
"    ; - - ;                 & % $ # ;           . O + X X .     ",
"    . X X .               : : > , , .                           ",
"                        < 1 2 3 4 5 6 7                         ",
"                      : 8 9 0 q w e r t :                       ",
"                      y u i p a s d f g y       . O .           ",
"                      y h j k l z x c v y       O * O           ",
"            . O + O . : b n m M N B V C :       . O .           ",
"            O Z A Z S D F G H J K L P I U                       ",
"            & Y T Y o R E W Q ! ~ ^ / ( ) _                     ",
"              & O &   R ` ' ] [ { } |  .1 ..                    ",
"                      X.o.O.+.@.#.$.%.&.*...  & @ &             ",
"            . O .     R =.-.;.:.>.,.<.1.*...& 2.3.2.&           ",
"            O * O     4.5.6.7.8.9.0.q.w.*...; e.r.t.;           ",
"            . O .     y.u.i.p.a.s.d.f.g.*.... X h.X .           ",
"                      j.k.l.z.x.c.v.b.n.*...                    ",
"                    o m.M.N.B.V.C.Z.A.S.y._                     ",
"                    S D.F.G.H.J.K.L.P.I.U.                      ",
"                    . Y.T.R.E.W.Q.!.~.^.Y.                      ",
"                      : h /.(.)._.`.'.].>                       ",
"      . O & . O .     y u [.{.}.|. X.XXXy                       ",
"      O Z = oX* O     : OX+X@X#X$X%X&X*X:                       ",
"      & 2.3.=XX .       -XR ;X:X:X;Xy.<                         ",
"        oX>X# ,X          . O > : y :             & X X .       ",
"        . X X &           X # 2.&               & = 3.<XX       ",
"            & O .         X >X# @               O Z 1Xe.X       ",
"            O * O         . X X .               . O + @ .       ",
"            . O .                                               ",
"                                                                "
};
