/* XPM */
static char *result[] = {
/* columns rows colors chars-per-pixel */
"32 32 139 2 ",
"   c #4F3206",
".  c #463408",
"X  c #483B0D",
"o  c #543C0D",
"O  c #5B3E09",
"+  c #3B4412",
"@  c #5A420F",
"#  c #4A4A16",
"$  c #504410",
"%  c #514913",
"&  c #5B4D14",
"*  c #4E5417",
"=  c #4C5118",
"-  c #545316",
";  c #525B19",
":  c #5B5D1A",
">  c #6C4506",
",  c #7E5F13",
"<  c #4B621D",
"1  c #5C631B",
"2  c #6F6313",
"3  c #726A16",
"4  c #455522",
"5  c #5C6D23",
"6  c #5C6528",
"7  c #5F7D26",
"8  c #6E6726",
"9  c #61692C",
"0  c #736621",
"q  c #60772F",
"w  c #606F35",
"e  c #657734",
"r  c #736A44",
"t  c #825307",
"y  c #8E5908",
"u  c #975B09",
"i  c #815E13",
"p  c #8A6716",
"a  c #907319",
"s  c #AB6B0A",
"d  c #B6710C",
"f  c #A97B14",
"g  c #B87F19",
"h  c #867625",
"j  c #887422",
"k  c #6F8927",
"l  c #648428",
"z  c #668F2C",
"x  c #6A8E2C",
"c  c #738B26",
"v  c #6A942D",
"b  c #749D2F",
"n  c #678830",
"m  c #70843A",
"M  c #749B32",
"N  c #7E9F30",
"B  c #73A232",
"V  c #7CA834",
"C  c #7EB136",
"Z  c #828A32",
"A  c #958737",
"S  c #90883D",
"D  c #B28C26",
"F  c #BA992A",
"G  c #BB9133",
"H  c #87A43F",
"J  c #82B437",
"K  c #82B738",
"L  c #86BC3A",
"P  c #BCA833",
"I  c #CE8513",
"U  c #C59018",
"Y  c #C8971B",
"T  c #E29817",
"R  c #EDA91F",
"E  c #CBA826",
"W  c #CEB32D",
"Q  c #DFB02B",
"!  c #D5A733",
"~  c #CDBA32",
"^  c #D6B635",
"/  c #E7BC29",
"(  c #E1BB34",
")  c #8CC33C",
"_  c #92CB3E",
"`  c #FCC42A",
"'  c #F2C92D",
"]  c #FBC82E",
"[  c #F2CB31",
"{  c #F7D237",
"}  c #FED735",
"|  c #FEDA35",
" . c #FFE137",
".. c #FFE43A",
"X. c #FFE93E",
"o. c #878E4D",
"O. c #86865B",
"+. c #999C5C",
"@. c #96BB44",
"#. c #B1AB54",
"$. c #8A8A61",
"%. c #A3A165",
"&. c #B8B37B",
"*. c #E1B54B",
"=. c #9ECC46",
"-. c #99D642",
";. c #9CDB43",
":. c #A3DE47",
">. c #A4DE48",
",. c #AAE14B",
"<. c #B2E44F",
"1. c #B6E552",
"2. c #BAE654",
"3. c #BEE957",
"4. c #D6CB44",
"5. c #F5DC5F",
"6. c #C4EA5A",
"7. c #EDE446",
"8. c #EDE748",
"9. c #FFEC41",
"0. c #FDE94E",
"q. c #FFF145",
"w. c #FFF54A",
"e. c #FFFA4D",
"r. c #FFED53",
"t. c #FAE45B",
"y. c #FFF252",
"u. c #FFFE52",
"i. c #DAD57E",
"p. c #FCF165",
"a. c #FEFE61",
"s. c #FFFF6A",
"d. c #F4E372",
"f. c #FAF97B",
"g. c #CBC894",
"h. c #CECC98",
"j. c #EDEA87",
"k. c #F3F288",
"l. c #F5F5A0",
/* pixels */
";.;.;.;.;.;.;.;.;.;.;.;.;.;.;.;.;.;.;.;.;.;.;.;.;.;.;.;.;.;.;.;.",
";.;.;.;.;.;.;.;.;.;.;.;.,._ ;.;.;.;.;.;.;.;.;.;.;.;.;.;.;.;.;.;.",
";.;.;.;.;.;.;.;.;.;.;.;.;.;.;.,.:.;.;.;.;.;.;.;.;.:.;.:.:.;.;.;.",
";.;.;.>.>.;.;.;.;.;.;.;.;.;.:.3.6.,.;.;.;.;.;.;.,.<.,.3.3.:.;.;.",
";.;.:.3.3.:.;.;.;.;.;.;.;.;.;.,.6.3.:.;.;.;.;.;.;.:.;.:.,.;.;.;.",
";.;.;.:.>.;.;.;.;.;.;.;.;.;.;.;.:.,.:.;.;.;.;.;.;.;.;.;.;.;.;.;.",
";.;.;.;.;.;.;.;.;.;.;.;._ _ _ _ _ _ _ _ _ ;.;.;.;.;.;.;.;.;.;.;.",
";.;.;.;.;.;.;.;.;.;.;.) b 5 : 8 1 1 1 l C ;.;.;.;.;.;.;.;.;.;.;.",
";.;.;.;.;.;.;.;.;.;.L M e r e j h 0 0 6 n K -.;.;.:.;.;.;.;.;.;.",
";.;.;.;.;.;.;.;.;._ n w O.g.j.t.8.7.4.S 9 7 ) ;.,.<.:.;.;.;.;.;.",
";.;.;.;.;.;.;.:.-.) m $.h.k.s.y.q. .{ ^ j : C _ ;.:.;.;.;.;.;.;.",
";.;.;.;.;.;.>.2.=.H o.&.l.s.u.e. .| | ] D 8 x ) ;.;.;.;.;.;.;.;.",
";.;.;.;.;.;.;.>.@.q +.i.f.a.u.e...9.9.] ! A 5 B ;.;.;.;.;.;.;.;.",
";.;.;.;.;.;.;.;.V 4 %.j.a.u.u.e.X.q.w.} ' F = z _ ;.;.;.;.;.;.;.",
";.;.;.;.;.;.;.;.M = #.p.w.y.u.e.9.9.w. .| E $ z :.;.;.;.;.;.;.;.",
";.;.;.;.;.;.;.:.N & P 9.9.w.u.e.9.X.9.....W @ c 3.,.;.;.;.;.;.;.",
";.;.;.;.;.;.,.<.N o g `  .w.e.w.X.X.X. ...~ @ Z 6.3.:.;.;.;.;.;.",
";.;.;.;.;.;.;.;.b . u T ` X.q.X.....X.....~ % k :.,.:.;.;.;.;.;.",
";.;.;.;.;.;.;.;.B + > d R  .q.X. . .X.0.| P * z _ ;.;.;.;.;.;.;.",
";.;.;.;.;.;.;.;.J < X t I [ X.X.9.X.0.d.*.D 1 B ;.;.;.;.;.:._ ;.",
"_ ;.;.;.;.;.;.;.) x $ O s /  ...9.y.p.5.G , k L ;.;.;.;.;.;.;.;.",
";.;.;.;.;.;.;.;._ L -   , Y ' | X.r.t.( a : J _ ;.;.;.;.;.;.;.;.",
";.;.;.;.;.;.;.;.:._ l # @ y U ' [ [ Q f 2 7 L ;.;.;.;.;.;.;.;.;.",
";.;.;.;.,.;.;.:.:._ K x ; . @ i p p , 3 c J _ :.;.;.;.;.;.;.;.;.",
";.;.;.,.<.,.,.<.:.;.;._ v < + ; 1 1 1 v L ;.;.;.;.;.;.;.;.;.;.;.",
";.;.;.;.,.3.,.,.;.;.;._ _ ) ) _ ) ) _ _ _ ;.;.;.;.;.;.;.;.;.;.;.",
";.;.;.;.,.6.3.:.;.;.;.;.;.;.:.;._ :.;.;.;.;.;.;.;.;.:.,.;.;.;.;.",
";.;.;.;.;.:.:.;.;.;.;.;.;.:.3.,.;.;.;.;.;.;.;.;.;.,.3.6.:.;.;.;.",
";.;.;.;.;.;.;.:.;.;.;.;.;.:.6.3.,.;.;.;.;.;.;.;.:.1.<.3.:.;.;.;.",
";.;.;.;.;.;.:.<.:.;.;.;.;.;.,.:.;.;.;.;.;.;.;.;.;.:.;.:.;.;.;.;.",
";.;.;.;.;.;.;.,.;.;.;.;.;.;.;.;.;.;.;.;.;.;.;.;.;.;.;.;.;.;.;.;.",
";.;.;.;.;.;.;.;.;.;.;.;.;.;.;.;.;.;.;.;.;.;.;.;.;.;.;.;.;.;.;.;."
};
