/* XPM */
static char *result[] = {
/* columns rows colors chars-per-pixel */
"32 32 149 2 ",
"   c #3E330B",
".  c #41330B",
"X  c #5A3504",
"o  c #6C3C05",
"O  c #3A4815",
"+  c #4E450F",
"@  c #5F4E0D",
"#  c #434110",
"$  c #564710",
"%  c #544C12",
"&  c #46581A",
"*  c #4C5F1C",
"=  c #505013",
"-  c #5C5013",
";  c #644008",
":  c #6C440A",
">  c #62480D",
",  c #724506",
"<  c #774A07",
"1  c #7A4807",
"2  c #744608",
"3  c #6E5B0F",
"4  c #7A5B0D",
"5  c #644C12",
"6  c #745011",
"7  c #55651B",
"8  c #646518",
"9  c #756716",
"0  c #796718",
"q  c #736A1D",
"w  c #72721A",
"e  c #71791E",
"r  c #595E28",
"t  c #695C24",
"y  c #526E23",
"u  c #557020",
"i  c #5C7522",
"p  c #626928",
"a  c #677622",
"s  c #667A24",
"d  c #6C7D24",
"f  c #6D742D",
"g  c #747C41",
"h  c #884B02",
"j  c #875F0A",
"k  c #8D5908",
"l  c #935202",
"z  c #A15501",
"x  c #A55C03",
"c  c #9E6105",
"v  c #A76103",
"b  c #AE6B07",
"n  c #B36204",
"m  c #AF710E",
"M  c #B9730B",
"N  c #A06614",
"B  c #B47014",
"V  c #B77B17",
"C  c #C06C05",
"Z  c #CB7101",
"A  c #C37D0F",
"S  c #D77600",
"D  c #DD7A01",
"F  c #6F8124",
"G  c #658629",
"H  c #688628",
"J  c #6D8D2A",
"K  c #6C942D",
"L  c #6F982E",
"P  c #678730",
"I  c #748332",
"U  c #708B31",
"Y  c #6E9330",
"T  c #719C30",
"R  c #7A9A34",
"E  c #7C9638",
"W  c #74A331",
"Q  c #7BAB34",
"!  c #7FB236",
"~  c #928136",
"^  c #80963B",
"/  c #AE923A",
"(  c #85B336",
")  c #89B537",
"_  c #85BB39",
"`  c #88BF3A",
"'  c #D8810B",
"]  c #EB8203",
"[  c #F38601",
"{  c #F58902",
"}  c #FE8C01",
"|  c #EC900E",
" . c #F59007",
".. c #FD9206",
"X. c #F5950B",
"o. c #FE950A",
"O. c #FF980C",
"+. c #E98B1B",
"@. c #E69614",
"#. c #FA9417",
"$. c #FF9B1D",
"%. c #FEA313",
"&. c #FCA719",
"*. c #FFAD1B",
"=. c #FFB01E",
"-. c #CD872A",
";. c #CD9D26",
":. c #EF9F2F",
">. c #DBAC31",
",. c #ECA527",
"<. c #E8AA28",
"1. c #FEB520",
"2. c #FDB922",
"3. c #E7BC34",
"4. c #FFB534",
"5. c #8BC33B",
"6. c #93CE3F",
"7. c #FFC529",
"8. c #FFCC2D",
"9. c #FFD330",
"0. c #FFD835",
"q. c #A89643",
"w. c #AAA65E",
"e. c #E09A55",
"r. c #C9BE5C",
"t. c #EBA549",
"y. c #FEAC4A",
"u. c #FFB44A",
"i. c #E9A15F",
"p. c #FFAB53",
"a. c #FEB757",
"s. c #FCB158",
"d. c #95CC41",
"f. c #96D340",
"g. c #98D441",
"h. c #9CDB43",
"j. c #A3DE47",
"k. c #A4DE48",
"l. c #B2DD51",
"z. c #ABE14B",
"x. c #B2E44F",
"c. c #B6E552",
"v. c #B8E653",
"b. c #BEE957",
"n. c #DEC346",
"m. c #FFC743",
"M. c #FBC947",
"N. c #E6C252",
"B. c #C3EA5A",
/* pixels */
"h.h.h.h.h.h.h.h.h.h.h.h.h.h.h.h.h.h.h.h.h.h.h.h.h.h.h.h.h.h.h.h.",
"h.h.h.h.h.h.h.h.h.h.h.h.h.h.h.h.h.h.h.h.h.h.h.h.h.h.h.h.h.h.h.h.",
"h.h.h.h.h.h.h.h.h.h.h.h.g.h.h.k.k.h.h.h.h.h.h.h.h.z.h.z.z.h.h.h.",
"h.h.h.k.k.h.h.h.h.h.h.h.h.h.j.b.B.z.h.h.h.h.h.h.j.x.z.v.v.h.h.h.",
"h.h.j.b.b.j.h.h.h.h.h.h.h.h.h.z.B.b.z.h.h.h.h.h.h.z.h.h.z.h.h.h.",
"h.h.h.k.k.h.h.h.h.h.h.h.h.h.h.h.k.z.h.h.h.h.h.h.h.h.h.h.h.h.h.h.",
"h.h.h.h.h.h.h.h.h.h.h.h.g.g.f.f.f.f.g.g.g.h.h.h.h.h.h.h.h.h.h.h.",
"h.h.h.h.h.h.h.h.h.h.h.` L s a d d a s L 5.h.h.h.h.h.h.h.h.h.h.h.",
"h.h.h.h.h.h.h.h.h.f._ Y a 5 : 2 , o ; 8 J 5.6.z.h.j.h.h.h.h.h.h.",
"h.h.h.h.h.h.h.h.g.` y p ~ ;.@.D D S Z c @ u 5.6.z.x.j.h.h.h.h.h.",
"h.h.h.h.h.h.h.j._ P g q.>.&.O.} } { ] S c 3 H _ h.j.h.h.h.h.h.h.",
"h.h.h.h.h.h.j.l.R r w.N.*.....o.X.X. .{ D c = T f.h.h.h.h.h.h.h.",
"h.h.h.h.h.h.g.d.I t r.M.o.} O.&.2.1.&.[ [ M > F 5.h.h.h.h.h.h.h.",
"h.h.h.h.h.h.f.Q I ~ n.7...} o.*.8.7.*.....' k e ! f.h.h.h.h.h.h.",
"h.h.h.h.h.h.6.K I q.3.=.} } O.1.9.8.*...%.@.b q L f.h.h.h.h.h.h.",
"h.h.h.h.h.h.6.G f / <.%.} } O.1.8.7.*...*.,.M 9 E h.h.h.h.h.h.h.",
"h.h.h.h.h.h.d.J q V | ..} } o.1.8.7.&.o.4.t.B 0 ^ l.k.h.h.h.h.h.",
"h.h.h.h.h.h.d.K 9 x D { } } O.*.8.7.*.o.p.i.B 9 U g.h.h.h.h.h.h.",
"h.h.h.h.h.h.6.W 8 1 n D } } O.=.8.7.*.$.p.e.N w W g.h.h.h.h.h.h.",
"h.h.h.h.h.h.g._ 7 X h Z } } O.1.0.8.4.s.y.-.6 F _ g.h.h.h.h.h.h.",
"h.h.h.h.h.h.h.6.H   X x ] } O.=.8.m.a.a.:.m $ K f.g.h.h.h.h.h.h.",
"h.h.h.h.h.h.h.6.Q & . 1 C ] o.%.1.u.s.,.A j 7 Q h.h.h.h.h.h.h.h.",
"h.h.h.h.h.h.h.g.6.W O . < Z {  ...#.+.M 6 7 Q 6.h.h.h.h.h.h.h.h.",
"h.h.h.h.z.h.h.z.h.d.K * + , l v x z l 4 8 L 6.h.h.h.h.h.h.h.h.h.",
"h.h.h.j.c.z.j.c.z.6.6.! y O # - - $ % i Q f.h.h.h.h.h.h.h.h.h.h.",
"h.h.h.h.z.b.z.j.h.h.h.6.5.! ! _ ) ( ( 5.f.h.h.h.h.h.h.h.h.h.h.h.",
"h.h.h.h.z.b.b.z.h.h.h.h.6.h.j.h.h.h.h.h.h.h.h.h.h.h.k.k.h.h.h.h.",
"h.h.h.h.h.j.j.h.h.h.h.h.h.z.b.z.h.h.h.h.h.h.h.h.h.k.B.B.k.h.h.h.",
"h.h.h.h.h.h.h.j.h.h.h.h.h.h.B.b.z.h.h.h.h.h.h.h.k.c.c.b.k.h.h.h.",
"h.h.h.h.h.h.j.c.z.h.h.h.h.h.z.j.h.h.h.h.h.h.h.h.h.k.h.k.h.h.h.h.",
"h.h.h.h.h.h.h.z.h.h.h.h.h.h.h.h.h.h.h.h.h.h.h.h.h.h.h.h.h.h.h.h.",
"h.h.h.h.h.h.h.h.h.h.h.h.h.h.h.h.h.h.h.h.h.h.h.h.h.h.h.h.h.h.h.h."
};
