/* XPM */
static char *result[] = {
/* columns rows colors chars-per-pixel */
"32 32 145 2 ",
"   c #32340C",
".  c #39380C",
"X  c #462E06",
"o  c #503A07",
"O  c #643D02",
"+  c #6D3F07",
"@  c #40410F",
"#  c #5F4308",
"$  c #554711",
"%  c #544C13",
"&  c #4D5016",
"*  c #475418",
"=  c #475E1C",
"-  c #4D5E1A",
";  c #535114",
":  c #5C5214",
">  c #5C5C1D",
",  c #67450C",
"<  c #6D4409",
"1  c #684B09",
"2  c #794302",
"3  c #704A07",
"4  c #7C4B06",
"5  c #764309",
"6  c #734C0C",
"7  c #6A560E",
"8  c #7D5007",
"9  c #71560C",
"0  c #645110",
"q  c #586017",
"w  c #54651F",
"e  c #676416",
"r  c #6E6615",
"t  c #60621A",
"y  c #6F6D19",
"u  c #7F6215",
"i  c #70721B",
"p  c #6E5826",
"a  c #516F22",
"s  c #5A7020",
"d  c #5C7B25",
"f  c #636523",
"g  c #6B6423",
"h  c #716228",
"j  c #667521",
"k  c #657A24",
"l  c #6B7B23",
"z  c #7C7324",
"x  c #7D6E3B",
"c  c #894D05",
"v  c #88560E",
"b  c #935303",
"n  c #9F5401",
"m  c #955804",
"M  c #9B5E04",
"N  c #A05501",
"B  c #A45C02",
"V  c #AC6804",
"C  c #B16401",
"Z  c #B96300",
"A  c #B66802",
"S  c #B66E0A",
"D  c #CF7402",
"F  c #CF7804",
"G  c #C67B0B",
"H  c #DC7901",
"J  c #E17C00",
"K  c #5D8027",
"L  c #6D8022",
"P  c #62892A",
"I  c #6B8C29",
"U  c #738E2B",
"Y  c #6A922D",
"T  c #6F982E",
"R  c #709B2F",
"E  c #7B8930",
"W  c #789E35",
"Q  c #75A332",
"!  c #7CA432",
"~  c #7CAD35",
"^  c #7FB237",
"/  c #828737",
"(  c #A58834",
")  c #AD8B3B",
"_  c #86B436",
"`  c #89B737",
"'  c #85BC39",
"]  c #8DBF3A",
"[  c #DD840A",
"{  c #D08B1C",
"}  c #E78707",
"|  c #EB8504",
" . c #E68A0B",
".. c #F48700",
"X. c #FC8D02",
"o. c #F28E08",
"O. c #EB920B",
"+. c #F79107",
"@. c #FD9105",
"#. c #F5910A",
"$. c #FD960A",
"%. c #FE990C",
"&. c #E08E14",
"*. c #E89416",
"=. c #E99919",
"-. c #FD9C11",
";. c #F3A217",
":. c #FEA316",
">. c #FFA519",
",. c #F2AB1D",
"<. c #FFAB1C",
"1. c #FFB11F",
"2. c #DE9B28",
"3. c #DAA92C",
"4. c #E2A82E",
"5. c #FEAD23",
"6. c #FEB520",
"7. c #FFBC25",
"8. c #FFB835",
"9. c #FFBD3E",
"0. c #8BC23B",
"q. c #91C03C",
"w. c #92CC3E",
"e. c #FFC227",
"r. c #FFC328",
"t. c #FFCC2E",
"y. c #FFD634",
"u. c #B6984B",
"i. c #FCAC4F",
"p. c #FFB653",
"a. c #94CF40",
"s. c #9DCF44",
"d. c #96D240",
"f. c #99D641",
"g. c #9CDB43",
"h. c #A6CF4A",
"j. c #A3DE47",
"k. c #A4DE48",
"l. c #B2D64F",
"z. c #ABE14B",
"x. c #B2E44F",
"c. c #B6E552",
"v. c #B8E653",
"b. c #BEE957",
"n. c #C3EA5A",
/* pixels */
"g.g.g.g.g.g.g.g.g.g.g.g.g.g.g.g.g.g.g.g.g.g.g.g.g.g.g.g.g.g.g.g.",
"g.g.g.g.g.g.g.g.g.g.g.f.g.g.g.g.g.g.g.g.g.g.g.g.g.g.g.g.g.g.g.g.",
"g.g.g.g.g.g.g.g.g.g.g.g.g.g.g.k.k.g.g.g.f.g.g.g.g.k.g.k.z.g.g.f.",
"g.g.g.k.k.g.g.g.g.g.g.g.g.g.k.n.n.k.g.g.g.g.g.g.k.c.z.b.v.j.g.g.",
"g.g.j.b.b.j.g.g.g.g.g.g.g.g.g.z.n.n.k.g.g.g.g.g.g.j.g.j.z.g.g.g.",
"g.g.g.k.k.g.g.g.g.g.g.g.g.g.g.g.k.k.g.g.g.g.g.g.g.g.g.g.g.g.g.g.",
"g.g.g.g.g.g.g.g.g.g.g.f.f.f.s.d.f.s.d.f.g.g.g.g.g.g.g.g.g.g.g.g.",
"g.g.g.g.g.g.g.g.g.g.g.' Y k j l l j k T 0.g.g.g.g.g.g.g.g.g.g.g.",
"g.g.g.g.g.g.g.g.f.w._ I s + , 6 6 + , e U _ a.g.g.z.g.g.g.g.g.g.",
"g.g.g.g.g.g.g.g.w.! > h ( { &.&.&.[ D V 6 t ~ d.j.x.z.g.g.g.g.g.",
"g.g.g.g.g.g.g.g.! q x ) 2.-.$.$.@.X...J Z 8 - ~ g.g.g.g.g.g.g.g.",
"g.g.g.g.g.g.j.h.E p u.i.>.%.@.$.%.%.X.X...C o I a.f.g.g.g.g.g.g.",
"g.g.g.g.g.g.d.W / ) 4.<.>.:.:.<.6.6.>.@.X.H M i Q d.g.g.g.g.g.g.",
"g.g.g.g.g.g.0.a z 3.;.:.>.>.<.<.r.7.<.:.%.#.F 7 d a.g.g.g.g.g.g.",
"g.g.g.g.g.g.0.* u ,.%.%.>.>.>.<.e.7.1.<.<.<. ., a a.g.g.g.g.g.g.",
"g.g.g.g.g.g.] % v ;.$.%.>.>.>.<.e.6.1.<.6.6.*.5 f s.g.g.g.g.g.g.",
"g.g.g.g.g.j.q.; c o.X.%.>.>.<.<.7.7.6.<.7.e.=.5 g l.k.g.g.g.g.g.",
"g.g.g.g.g.w.0.- 2 J X.%.>.>.>.<.7.7.<.5.9.9.*.< q s.g.g.g.g.g.g.",
"g.g.g.g.g.g.0.= # A | $.>.>.>.1.r.7.1.5.p.i.[ 1 a a.g.g.g.g.g.g.",
"g.g.g.g.g.g.w.K ; 4 H $.>.>.<.7.y.t.6.7.8.4.S r Y d.g.g.g.g.g.g.",
"g.g.g.g.g.g.w.^ w X B } -.>.1.e.y.y.e.7.,.G 3 L ^ d.g.g.g.g.g.g.",
"g.g.g.g.g.g.g.g.P   , C } %.>.1.6.e.e.,.[ m @ R g.g.g.g.g.g.g.g.",
"g.g.g.g.g.g.g.w.' K . O C } +.$.$.%.O.G c 0 I w.g.g.g.g.g.g.g.g.",
"g.g.g.g.z.g.j.z.w.' K > 9 b N B B n b u y U 0.w.g.g.g.g.g.g.g.g.",
"g.g.g.j.v.z.j.x.j.g.d.Q s & $ : : $ ; d ^ d.g.g.g.g.g.g.g.g.g.g.",
"g.g.g.g.z.n.z.z.g.g.g.d.0._ _ ` ` _ ` 0.d.g.g.g.g.g.g.g.g.g.g.g.",
"g.g.g.g.j.n.n.j.g.g.g.g.g.g.k.g.g.g.g.g.g.g.g.g.g.g.z.z.g.g.g.g.",
"g.g.g.g.j.j.j.g.g.g.g.g.g.j.n.z.g.g.g.g.g.g.g.g.g.z.v.n.j.g.g.g.",
"g.g.g.g.g.g.g.j.g.g.g.g.g.z.n.b.z.g.g.g.g.g.g.g.j.x.c.b.j.g.g.g.",
"g.g.g.g.g.g.j.x.g.g.g.g.g.g.z.g.g.g.g.g.g.g.g.g.g.z.g.g.g.g.g.g.",
"g.g.g.g.g.g.j.j.g.g.g.g.g.g.g.g.g.g.g.g.g.g.g.g.g.g.g.g.g.g.g.g.",
"g.g.g.g.g.g.g.g.g.g.g.g.g.g.g.g.g.g.g.g.g.g.g.g.g.g.g.g.g.g.g.g."
};
