/* XPM */
static char *result[] = {
/* columns rows colors chars-per-pixel */
"32 32 123 2 ",
"   c #374514",
".  c #53420D",
"X  c #4D4E15",
"o  c #544511",
"O  c #5C4C12",
"+  c #555216",
"@  c #5E5A16",
"#  c #63430B",
"$  c #6D4B0D",
"%  c #774505",
"&  c #744C0D",
"*  c #6B500F",
"=  c #73570E",
"-  c #7B540D",
";  c #6E4C10",
":  c #615D15",
">  c #6C5C14",
",  c #7A5510",
"<  c #4D681F",
"1  c #58691E",
"2  c #676117",
"3  c #6D6616",
"4  c #636C1E",
"5  c #6B6C19",
"6  c #796512",
"7  c #67701F",
"8  c #6F7A1F",
"9  c #557423",
"0  c #677220",
"q  c #687421",
"w  c #6B7F26",
"e  c #6F722A",
"r  c #657D2A",
"t  c #844D04",
"y  c #8C5306",
"u  c #83540D",
"i  c #835D0D",
"p  c #8C5A08",
"a  c #925305",
"s  c #845E12",
"d  c #97600F",
"f  c #9F630E",
"g  c #87611C",
"h  c #A46909",
"j  c #B46704",
"k  c #B46D0D",
"l  c #B4710A",
"z  c #BD750D",
"x  c #AA6F12",
"c  c #AC7816",
"v  c #987822",
"b  c #C47D0E",
"n  c #CC7C0A",
"m  c #C77F10",
"M  c #6D8426",
"N  c #658629",
"B  c #718127",
"V  c #728926",
"C  c #738D2A",
"Z  c #6F972E",
"A  c #74902A",
"S  c #789229",
"D  c #799A2E",
"F  c #729E30",
"G  c #799C30",
"H  c #74A131",
"J  c #7CA230",
"K  c #7CAF35",
"L  c #848C33",
"P  c #BB9736",
"I  c #82AC34",
"U  c #84B436",
"Y  c #85BA39",
"T  c #8ABC39",
"R  c #DD890F",
"E  c #CE8513",
"W  c #CF8A13",
"Q  c #D58D16",
"!  c #D88C16",
"~  c #D9941A",
"^  c #DE981A",
"/  c #E0870D",
"(  c #E28A0D",
")  c #E08B10",
"_  c #E19514",
"`  c #EF9F17",
"'  c #E39D1C",
"]  c #E5A11D",
"[  c #ECA018",
"{  c #F6A017",
"}  c #F4A31A",
"|  c #FCA419",
" . c #F6A91C",
".. c #FFAC1C",
"X. c #FFB11F",
"o. c #F2B025",
"O. c #FFB621",
"+. c #FEBB24",
"@. c #FBBD28",
"#. c #E7B630",
"$. c #8CC33B",
"%. c #8FC83D",
"&. c #94CE3F",
"*. c #96D03F",
"=. c #FFC127",
"-. c #FFC529",
";. c #FFCC2C",
":. c #FFD12F",
">. c #FFD531",
",. c #FFDB35",
"<. c #FFE038",
"1. c #97BB43",
"2. c #96D240",
"3. c #99D642",
"4. c #9CDB43",
"5. c #A3DE47",
"6. c #A4DE48",
"7. c #ABE14B",
"8. c #B2E44F",
"9. c #B6E552",
"0. c #B9E553",
"q. c #BEE957",
"w. c #C3EA5A",
/* pixels */
"4.4.4.4.4.4.4.4.4.4.4.4.4.4.4.4.4.4.4.4.4.4.4.4.4.4.4.4.4.4.4.4.",
"4.4.4.4.4.4.4.4.4.4.4.4.4.4.4.4.4.4.4.4.4.4.4.4.4.4.4.4.4.4.4.4.",
"4.4.4.4.4.4.4.4.4.4.4.4.4.4.4.5.6.4.4.4.4.4.4.3.4.5.4.5.7.4.4.4.",
"4.4.4.6.6.4.4.4.4.4.4.4.4.4.5.q.w.6.4.4.4.4.4.4.5.9.7.q.q.4.4.4.",
"4.4.5.q.q.5.4.4.4.4.4.4.4.4.4.7.w.w.5.4.4.4.4.4.4.7.4.6.6.4.4.4.",
"4.4.4.5.6.4.4.4.4.4.4.4.4.4.4.4.6.6.4.4.4.4.4.4.4.4.4.4.4.4.4.4.",
"4.4.4.4.4.4.4.4.4.4.4.3.2.2.2.&.2.2.2.2.4.4.4.4.4.4.4.4.4.4.4.4.",
"4.4.4.4.4.4.4.4.4.4.3.K N 4 7 q q 4 0 Z 2.3.4.4.4.4.4.4.4.4.4.4.",
"4.4.4.4.4.4.4.4.3.%.J 8 > $ & , - & * 5 S Y *.4.4.4.4.4.4.4.4.4.",
"4.4.4.4.4.4.4.4.$.C * p b ^ ' ] ' ' Q h $ 7 U 3.7.0.7.4.4.4.4.4.",
"4.4.4.4.4.4.5.3.C > x W ` ..........{ ) z s 4 T 4.4.4.4.4.4.4.4.",
"4.4.4.4.4.4.3.1.e g ] O.......O.....| | { k $ D 2.2.4.4.4.4.4.4.",
"4.4.4.4.4.4.T r e P o.X...O.@.-.-.+.....| R h 4 H 3.4.4.4.4.4.4.",
"4.4.4.4.4.4.K + v #.@.O.X.O.-.>.>.@.O...X.} m # N 2.4.4.4.4.4.4.",
"4.4.4.4.4.4.J . c @.-.+.O.O.-.>.,.-.O.O.O.O.! # M 3.4.4.4.4.4.4.",
"4.4.4.4.4.3.F O c @.-.+.O.O.-.>.,.-.O.O.-.+.~ ; L 6.4.4.4.4.4.4.",
"4.4.4.4.4.3.G O c O.=.+.O.X.=.;.>.=.O.+.;.=.Q * L 0.7.*.4.4.4.4.",
"4.4.4.4.4.4.J . x O.=.+.X.+.=.;.;.=.O.+.;.-.Q # B 5.4.4.4.4.4.4.",
"4.4.4.4.4.4.I o f [ +.+.+.+.=.:.>.=.O.+.;.X.E # w 4.4.4.4.4.4.4.",
"4.4.4.4.4.4.Y 1 i b { +.+.+.-.,.<.-.=.;.-.] l 2 A *.4.4.4.4.4.4.",
"4.4.4.4.4.4.%.F : t ( ..+.+.:.,.,.:.-.=. .z - V $.4.4.4.4.4.4.4.",
"4.4.4.4.4.4.4.&.9 . j / } +.-.:.;.;.+.[ n y @ U *.4.4.4.4.4.4.4.",
"4.4.4.4.4.4.4.4.K 8 # a b [  . . . ._ k % 2 J *.4.4.4.4.4.4.4.4.",
"4.4.4.4.5.4.4.5.4.U B 3 = - p d d u , 6 8 J &.*.4.4.4.4.4.4.4.4.",
"4.4.4.4.0.7.7.9.5.4.*.H <   X @ +     N $.*.4.4.4.4.4.4.4.4.4.4.",
"4.4.4.4.7.q.7.5.4.4.4.&.$.K $.$.$.Y %.%.4.4.4.4.4.4.4.4.4.4.4.4.",
"4.4.4.4.7.q.q.7.4.4.4.4.4.4.5.4.4.4.4.4.4.4.4.4.4.4.5.7.4.4.4.4.",
"4.4.4.4.4.7.4.4.4.4.4.4.4.7.q.7.4.4.4.4.4.4.4.4.4.7.q.w.5.4.4.4.",
"4.4.4.4.4.4.4.5.4.4.4.4.4.5.w.q.5.4.4.4.4.4.4.4.7.9.8.q.5.4.4.4.",
"4.4.4.4.4.4.5.9.5.4.4.4.4.4.7.5.4.4.4.4.4.4.4.4.4.5.4.5.4.4.4.4.",
"4.4.4.4.4.4.4.7.4.4.4.4.4.4.4.4.4.4.4.4.4.4.4.4.4.4.4.4.4.4.4.4.",
"4.4.4.4.4.4.4.4.4.4.4.4.4.4.4.4.4.4.4.4.4.4.4.4.4.4.4.4.4.4.4.4."
};
